<svg width="110" height="80" viewBox="0 0 110 80" fill="none" xmlns="http://www.w3.org/2000/svg">
<path d="M110 47.0588L90.8696 65.8824V51.7647H63.5138L63.5138 42.3529H90.8696V28.2353L110 47.0588ZM14.3478 80V42.3529H0L47.8261 0L81.3043 29.6471V32.9412H70.7348L47.8261 12.6588L23.913 33.8353V70.5882H71.7391V61.1765H81.3043V80H14.3478Z" fill="#3880FF"/>
<path d="M40 52.6289H44C44 54.3955 46.74 55.9003 50 55.9003C53.26 55.9003 56 54.3955 56 52.6289C56 50.8295 53.92 50.1752 49.52 49.3083C45.28 48.4414 40 47.3618 40 42.8144C40 39.8865 42.94 37.4001 47 36.5659V33H53V36.5659C57.06 37.4001 60 39.8865 60 42.8144H56C56 41.0478 53.26 39.543 50 39.543C46.74 39.543 44 41.0478 44 42.8144C44 44.6137 46.08 45.268 50.48 46.135C54.72 47.0019 60 48.0815 60 52.6289C60 55.5568 57.06 58.0431 53 58.8774V62.4433H47V58.8774C42.94 58.0431 40 55.5568 40 52.6289Z" fill="#3880FF"/>
</svg>
