<svg width="382" height="354" viewBox="0 0 382 354" fill="none" xmlns="http://www.w3.org/2000/svg">
<g style="mix-blend-mode:multiply" opacity="0.2">
<path d="M270.946 353.222C266.193 353.222 260.516 352.135 252.956 349.675C232.891 343.001 212.317 322.96 190.594 301.765C178.632 290.126 166.287 278.088 153.878 268.222C135.76 250.397 105.042 238.115 75.3121 226.21C53.5891 217.519 33.0783 209.294 17.1928 199.14L17.1609 199.118C5.23078 191.226 -0.351474 183.599 0.0951064 175.817C0.956369 160.631 24.7847 147.107 52.4089 131.455L55.0564 129.948C75.5354 118.286 101.246 102.679 138.471 79.3778L141.629 77.4712C174.932 57.3409 216.4 32.2888 270.117 17.1023C377.711 -18.0815 471.876 9.16544 501.605 38.6959C532.611 73.2146 529.931 109.862 491.398 178.833C451.046 250.73 361.666 306.31 325.11 326.862C310.15 333.646 300.772 339.654 293.945 344.043C285.269 349.586 279.623 353.222 270.946 353.222ZM19.9998 197.012C35.5345 206.944 55.8539 215.08 77.3536 223.705C107.434 235.743 138.567 248.202 157.068 266.426C169.509 276.292 181.917 288.397 193.911 300.08C215.347 320.964 235.603 340.696 254.678 347.059C273.53 353.155 277.964 350.318 291.138 341.893C298.092 337.437 307.63 331.318 322.686 324.489C358.795 304.16 447.537 249.001 487.538 177.746C525.529 109.773 528.305 73.791 498.16 40.2478C469.292 11.6041 377.328 -14.8225 271.776 19.6962C218.601 34.7496 177.42 59.6244 144.341 79.5995L141.215 81.5062C103.957 104.829 78.2148 120.459 57.6721 132.142L55.0246 133.65C28.1659 148.859 5.0075 162.005 4.21003 175.884C3.82725 182.823 8.99482 189.718 19.9998 197.012Z" fill="#CCCCCC"/>
<path d="M264.751 333.137C258.18 333.137 251.226 331.674 241.657 329.08L241.465 329.036C223.092 322.628 208.546 307.176 193.171 290.837C182.676 279.663 171.799 268.135 158.72 258.092C140.283 241.797 117.093 229.115 94.6998 216.855C79.6436 208.63 65.4168 200.849 53.0082 192.247L52.7849 192.069C27.5212 168.148 45.6396 157.595 78.4952 138.418C82.0679 136.334 85.8319 134.139 89.7555 131.789C97.4749 127.821 105.705 123.387 114.445 118.687C153.266 97.7802 206.473 69.1588 281.53 45.9246C373.271 21.5154 444.149 39.1627 473.751 67.4739C503.417 96.9821 491.902 132.498 458.568 191.825C422.044 251.817 355.375 290.659 319.553 311.521L315.566 313.849C288.931 327.595 277.511 333.137 264.751 333.137ZM243.252 326.42C269.377 333.47 273.811 331.785 313.014 311.61L316.906 309.349C352.441 288.642 418.599 250.088 454.74 190.783C487.531 132.454 498.983 97.6029 470.402 69.1809C441.757 41.7788 372.728 24.7744 283.125 48.6072C208.61 71.664 155.658 100.175 116.965 120.97C108.225 125.67 99.9949 130.104 92.3392 134.05C88.5114 136.334 84.7474 138.529 81.1747 140.635C48.2872 159.834 33.2311 168.613 56.0386 190.296C68.2558 198.742 82.355 206.435 97.2517 214.594C119.868 226.943 143.218 239.735 161.878 256.229C175.084 266.361 186.057 278 196.648 289.263C211.672 305.225 225.899 320.323 243.252 326.42Z" fill="#CCCCCC"/>
<path d="M259.417 316.374C251.028 316.374 243.245 314.29 233.547 310.743C217.343 303.959 204.328 289.926 190.548 275.094C182.382 266.27 173.897 257.158 164.2 248.8C150.643 235.676 134.566 224.458 119.063 213.594C106.336 204.682 94.3098 196.279 84.8359 187.611L84.7083 187.478C65.5053 164.998 85.3463 154.511 121.392 135.467L121.806 135.245L128.473 132.075C166.433 114.095 218.427 89.4644 289.657 71.6175C373.742 52.9725 427.268 71.9723 447.587 93.8762C469.31 117.243 463.983 148.614 429.214 202.155C403.886 239.467 362.546 273.01 306.372 301.853C284.649 312.096 271.411 316.374 259.417 316.374ZM88.1852 185.904C97.4996 194.395 109.398 202.731 121.998 211.532C137.628 222.462 153.801 233.791 167.485 247.027C177.278 255.429 185.795 264.63 194.025 273.52C207.518 288.085 220.278 301.831 235.589 308.238C257.663 316.352 268.668 316.197 303.98 299.503C359.547 270.948 400.441 237.782 425.45 200.935C459.549 148.414 464.972 117.842 444.11 95.4059C423.025 72.6817 367.522 57.34 290.965 74.3001C220.309 92.0139 168.57 116.512 130.802 134.425L123.88 137.729C87.5792 156.906 70.96 165.685 88.1852 185.904Z" fill="#CCCCCC"/>
<path d="M256.397 301.124C247.019 301.124 238.215 298.885 228.39 294.496L228.326 294.473C213.525 287.423 201.595 274.166 188.963 260.154C183.126 253.658 177.065 246.963 170.494 240.578C161.722 231.222 151.993 222.576 142.582 214.24C131.035 203.998 120.094 194.309 112.949 184.909C100.476 165.067 118.722 154.692 150.238 139.904C182.711 125.937 232.888 106.028 294.388 94.2783C353.114 85.8759 397.102 92.6155 418.378 113.234C441.345 135.448 435.635 170.676 402.716 209.895C368.234 256.053 313.719 283.122 297.833 290.305C280.927 297.577 268.199 301.124 256.397 301.124ZM230.623 292.079C248.996 300.26 263.415 301.723 295.6 287.867C311.231 280.795 365.044 254.08 399.08 208.498C431.17 170.255 436.975 136.157 414.997 114.919C394.709 95.2759 352.22 88.9575 295.313 97.0939C234.451 108.733 184.625 128.487 152.439 142.343C119.998 157.552 105.867 166.597 116.617 183.69C123.539 192.757 134.353 202.335 145.804 212.489C155.278 220.891 165.071 229.56 173.875 238.982C180.478 245.367 186.539 252.129 192.408 258.647C204.849 272.37 216.555 285.362 230.623 292.079Z" fill="#CCCCCC"/>
<path d="M254.433 287.199C244.481 287.199 235.326 284.827 225.82 280.083L225.565 279.928C189.169 254.321 146.137 195.682 137.876 184.198L137.748 183.931C131.305 167.481 145.85 157.815 174.91 145.733C202.279 135.047 245.502 120.946 296.157 114.362C342.793 109.263 377.722 116.136 394.564 133.716C413.257 153.248 407.547 182.934 378.934 215.169C353.734 246.251 316.604 268.621 290.256 279.174C276.475 284.539 264.992 287.199 254.433 287.199ZM228.372 277.821C246.586 286.845 262.823 286.534 288.182 276.669C314.052 266.315 350.512 244.323 375.361 213.706C402.73 182.867 408.6 153.581 391.119 135.313C375.234 118.707 341.74 112.256 296.859 117.2C246.81 123.718 204.065 137.685 176.983 148.238C149.168 159.788 136.057 168.368 141.672 183.067C165.404 216.056 200.588 258.223 228.372 277.821Z" fill="#CCCCCC"/>
<path d="M252.986 274.365C242.332 274.365 233.113 271.905 226.128 267.138C198.184 248.316 169.093 208.609 160.512 184.732C159.109 179.212 161.118 173.824 166.413 168.681C182.745 152.829 231.136 139.151 295.89 132.1C332.414 129.64 359.655 136.446 372.67 151.278C387.407 168.082 382.112 192.536 358.156 218.342C326.991 250.998 289.702 271.838 258.409 274.144C256.559 274.299 254.741 274.365 252.986 274.365ZM310.117 134.473C305.715 134.473 301.153 134.628 296.432 134.96C232.89 141.877 185.489 155.113 169.827 170.366C165.169 174.889 163.415 179.522 164.595 184.156C173.016 207.545 201.598 246.609 229.062 265.098C236.303 270.02 246.319 272.171 257.994 271.306C288.075 269.089 324.248 248.715 354.711 216.79C377.423 192.314 382.846 168.393 369.161 152.785C358.666 140.835 337.964 134.473 310.117 134.473Z" fill="#CCCCCC"/>
<path d="M253.806 262.168C243.917 262.168 235.209 259.951 228.415 255.65C204.172 240.375 181.747 208.073 180.471 186.546V186.502C180.312 166.66 227.777 150.365 293.297 147.793C321.208 147.327 341.91 153.801 351.639 166.083C362.804 180.161 358.21 199.693 339.039 219.69C315.338 243.989 285.673 259.774 259.643 261.924C257.634 262.079 255.688 262.168 253.806 262.168ZM184.618 186.457C185.894 207.342 207.649 238.69 231.222 253.522C238.399 258.067 248.032 259.973 259.133 259.064C283.982 257.002 312.563 241.683 335.594 218.072C353.872 199.006 358.402 180.538 348.003 167.436C339.039 156.151 319.709 150.165 293.456 150.631C231.318 153.092 184.49 168.5 184.618 186.457Z" fill="#CCCCCC"/>
<path d="M254.537 250.618C245.892 250.618 238.173 248.778 231.953 245.164C210.102 232.549 194.567 207.009 197.981 189.362C201.681 172.424 241.458 160.275 288.413 161.672C309.02 162.492 324.203 168.389 331.221 178.255C339.26 189.562 335.591 204.571 321.109 219.402C304.012 236.762 281.459 248.312 260.789 250.307C258.652 250.529 256.578 250.618 254.537 250.618ZM280.981 164.443C239.321 164.443 205.285 175.151 202.096 189.783C198.906 206.256 214.089 231.108 234.6 242.969C241.363 246.871 250.199 248.423 260.215 247.47C279.769 245.585 301.236 234.478 317.696 217.784C331.317 203.839 334.889 189.894 327.521 179.519C321.205 170.628 307.233 165.308 288.222 164.532C285.798 164.487 283.373 164.443 280.981 164.443Z" fill="#CCCCCC"/>
<path d="M256.476 239.576C249.522 239.576 243.206 238.18 237.911 235.453C219.569 225.986 209.266 206.942 214.944 192.997C220.717 179.208 250.702 170.916 283.143 174.108C297.529 175.594 308.088 180.56 312.872 188.098C318.295 196.633 315.616 207.452 305.536 217.783C293.956 229.578 278.422 237.382 262.919 239.177C260.75 239.443 258.581 239.576 256.476 239.576ZM218.931 193.795C213.763 206.454 223.588 224.479 240.367 233.147C246.332 236.229 253.892 237.337 262.249 236.362C276.444 234.699 291.373 227.161 302.154 216.187C311.405 206.698 313.925 196.899 309.108 189.273C304.93 182.666 295.488 178.299 282.569 176.968C252.616 173.998 224.067 181.558 218.931 193.795Z" fill="#CCCCCC"/>
<path d="M258.088 228.891C253.271 228.891 248.614 228.027 244.531 226.165C230.878 220.023 224.499 206.987 230.272 197.122C236.078 187.3 256.78 182.002 276.462 185.327C285.553 186.857 292.188 190.604 295.154 195.836C298.408 201.6 296.749 208.606 290.625 215.035C282.171 223.859 269.635 228.891 258.088 228.891ZM246.764 223.77C258.534 229.069 276.653 224.457 287.179 213.461C292.538 207.83 294.07 201.777 291.294 196.9C288.838 192.555 283.224 189.429 275.473 188.121C257.705 185.128 239.14 189.651 234.1 198.208C229.028 206.877 234.706 218.338 246.764 223.77Z" fill="#CCCCCC"/>
<path d="M259.274 218.405C256.658 218.405 254.106 217.983 251.777 217.097C243.803 214.059 240.581 207.076 244.632 201.511C248.619 196.013 259.561 193.375 268.971 195.636C273.5 196.722 276.818 198.895 278.253 201.777C279.784 204.814 279.051 208.362 276.212 211.488C272.161 215.899 265.621 218.405 259.274 218.405ZM261.825 197.698C256.052 197.698 250.597 199.627 248.269 202.819C245.238 207.009 247.662 212.286 253.723 214.569C259.752 216.875 268.269 214.791 272.671 209.936C274.872 207.519 275.446 204.97 274.298 202.708C273.277 200.669 270.885 199.117 267.567 198.319C265.685 197.897 263.739 197.698 261.825 197.698Z" fill="#CCCCCC"/>
</g>
</svg>
