<svg width="191" height="40" viewBox="0 0 191 40" fill="none" xmlns="http://www.w3.org/2000/svg">
<path d="M55.0575 30.6744L58.2171 12.5735H51.4766L52.1085 9.16632H69.5919L68.9599 12.5735H62.2194L59.0597 30.6744H55.0575ZM76.1218 31.1003C74.6473 31.1003 73.5941 30.8874 72.3302 30.2485C71.277 29.6097 70.4344 28.9708 69.8025 27.9061C69.1706 26.8413 68.9599 25.7765 68.9599 24.2859C68.9599 23.4341 68.9599 22.5823 69.1706 21.7305C69.5919 19.175 70.6451 17.2585 72.1196 15.7678C73.5941 14.4901 75.4899 13.8513 78.2282 13.8513C79.7027 13.8513 80.9666 14.0642 82.0198 14.7031C83.073 15.3419 83.9156 15.9808 84.5475 17.0455C85.1794 18.1103 85.3901 19.175 85.3901 20.4528C85.3901 21.3046 85.3901 22.1564 85.1794 23.0082C84.1262 28.332 81.1772 31.1003 76.1218 31.1003ZM76.3324 27.9061C77.8069 27.9061 79.0708 27.4802 79.7027 26.6284C80.5453 25.7765 80.9666 24.2859 81.3879 22.3693C81.3879 21.7305 81.5985 21.0916 81.5985 20.4528C81.5985 19.388 81.1772 18.5362 80.5453 17.8973C79.9134 17.2585 79.0708 16.8326 77.8069 16.8326C76.3324 16.8326 75.2792 17.2585 74.4366 18.1103C73.5941 18.9621 73.1728 20.4528 72.7515 22.3693C72.7515 23.0082 72.5409 23.647 72.5409 24.2859C72.5409 25.3506 72.9621 26.2024 73.5941 26.8413C74.226 27.6931 75.2792 27.9061 76.3324 27.9061ZM91.2881 31.1003C90.0242 31.1003 89.1817 30.8874 88.5497 30.2485C87.9178 29.6097 87.7072 28.9708 87.7072 28.119C87.7072 27.6931 87.9178 26.8413 88.1284 25.5636L89.6029 17.4714H87.7072L88.1284 14.4901H90.0242L90.8668 9.80518H94.869L93.8158 14.4901H96.5542L95.9222 17.4714H93.1839L91.7094 26.2024C91.7094 26.6284 91.4987 26.8413 91.4987 27.2672C91.4987 27.9061 91.92 28.332 92.5519 28.332H94.0264L93.6052 30.8874C93.1839 31.1003 92.9732 31.1003 92.3413 31.3133C92.1307 31.1003 91.7094 31.1003 91.2881 31.1003ZM110.878 27.0543C110.878 27.6931 111.089 27.9061 111.72 27.9061H112.774L112.352 30.4615C111.72 30.8874 110.878 30.8874 110.035 30.8874C109.193 30.8874 108.561 30.6744 108.14 30.2485C107.718 29.8226 107.508 29.1838 107.508 28.332H107.297C106.665 29.1838 106.033 29.8226 105.191 30.2485C104.348 30.6744 103.295 30.8874 102.452 30.8874C100.767 30.8874 99.5032 30.2485 98.6606 29.1838C97.818 28.119 97.1861 26.6284 97.1861 24.4988C97.1861 22.5823 97.3967 20.8787 98.0287 19.175C98.6606 17.4714 99.5032 16.1937 100.556 15.129C101.61 14.0642 103.084 13.6383 104.559 13.6383C105.612 13.6383 106.665 13.8513 107.297 14.2772C107.929 14.7031 108.561 15.129 108.982 15.9808H109.193L110.246 14.0642H113.406C113.195 15.5549 112.984 17.0455 112.774 18.1103C112.563 19.388 112.352 20.4528 112.142 21.3046C111.299 25.1377 110.878 26.8413 110.878 27.0543ZM103.505 27.9061C104.559 27.9061 105.401 27.4802 106.244 26.6284C106.876 25.7765 107.508 24.9247 107.718 23.647C108.14 22.5823 108.14 21.3046 108.14 20.4528C108.14 18.1103 107.086 17.0455 105.191 17.0455C104.137 17.0455 103.295 17.4714 102.663 18.1103C102.031 18.9621 101.61 19.8139 101.188 21.0916C100.978 22.1564 100.767 23.4341 100.767 24.4988C100.767 25.5636 100.978 26.4154 101.399 27.0543C101.82 27.4802 102.452 27.9061 103.505 27.9061ZM114.669 30.6744L118.672 8.10156H122.253L118.25 30.6744H114.669ZM136.787 34.7205L133.627 30.8874C133.417 30.8874 133.206 30.8874 132.785 30.8874C129.836 30.8874 127.308 30.2485 125.834 28.7579C124.148 27.2672 123.306 25.3506 123.306 22.5823C123.306 20.2398 123.727 18.1103 124.359 16.1937C125.202 14.2772 126.255 12.7865 127.729 11.5088C128.783 10.657 129.836 9.80518 131.31 9.37927C132.574 8.95337 134.049 8.74042 135.734 8.74042C138.893 8.74042 141.21 9.37927 142.896 10.8699C144.581 12.3606 145.423 14.4901 145.423 17.2585C145.423 20.2398 144.791 23.0082 143.317 25.3506C142.053 27.6931 140.157 29.3967 137.63 30.2485L141.632 34.7205H136.787ZM132.785 27.6931C134.891 27.6931 136.787 27.0543 138.051 25.7765C139.525 24.4988 140.368 22.7952 140.789 20.6657C141.21 19.388 141.21 18.3232 141.21 17.4714C141.21 15.7678 140.789 14.4901 139.947 13.4254C139.104 12.5735 137.84 12.1476 135.944 12.1476C133.838 12.1476 131.942 12.7865 130.678 14.0642C129.204 15.3419 128.361 17.0455 127.94 19.175C127.729 20.4528 127.519 21.5175 127.519 22.3693C127.519 24.0729 127.94 25.3506 128.783 26.4154C129.625 27.2672 130.889 27.6931 132.785 27.6931ZM155.745 31.1003C153.217 31.1003 150.9 30.6744 149.426 29.6097C147.74 28.7579 146.898 27.2672 146.898 25.5636C146.898 24.9247 146.898 24.4988 147.108 23.86H151.111C150.9 24.2859 150.9 24.7118 150.9 24.9247C150.9 25.7765 151.321 26.4154 152.164 27.0543C153.006 27.4802 154.06 27.6931 155.534 27.6931C157.43 27.6931 158.694 27.4802 159.536 26.8413C160.379 26.2024 160.8 25.5636 160.8 24.4988C160.8 23.86 160.59 23.4341 160.168 23.0082C159.747 22.5823 159.115 22.3693 158.483 21.9434C157.851 21.7305 157.009 21.3046 155.955 21.0916C154.481 20.6657 153.217 20.2398 152.375 19.8139C151.532 19.388 150.689 18.7491 150.057 18.1103C149.426 17.4714 149.004 16.4067 149.004 15.3419C149.004 13.8513 149.426 12.7865 150.268 11.7217C151.111 10.657 152.164 10.0181 153.428 9.59222C154.692 9.16632 156.166 8.95337 157.851 8.95337C160.379 8.95337 162.275 9.37927 163.749 10.2311C165.224 11.0829 166.066 12.3606 166.066 14.0642C166.066 14.4901 166.066 15.129 165.856 15.5549H162.064C162.064 15.3419 162.064 14.916 162.064 14.7031C162.064 13.8513 161.643 13.4254 161.011 12.9994C160.379 12.5735 159.326 12.3606 158.062 12.3606C156.587 12.3606 155.324 12.5735 154.481 12.9994C153.638 13.4254 153.217 14.0642 153.217 14.916C153.217 15.5549 153.638 16.1937 154.27 16.6196C155.113 17.0455 156.166 17.4714 157.641 17.8973C159.115 18.3232 160.379 18.7491 161.222 19.175C162.064 19.6009 162.907 20.2398 163.749 20.8787C164.381 21.7305 164.802 22.5823 164.802 23.86C164.802 25.5636 164.381 26.8413 163.539 27.9061C162.696 28.9708 161.643 29.8226 160.168 30.2485C158.904 30.8874 157.43 31.1003 155.745 31.1003ZM167.33 30.6744L171.122 9.16632H181.233C183.55 9.16632 185.235 9.59222 186.499 10.657C187.763 11.7217 188.184 12.9994 188.184 14.916C188.184 16.6196 187.763 18.1103 186.709 19.175C185.867 20.4528 184.603 21.3046 183.128 21.7305L186.077 30.6744H181.865L179.337 22.3693H172.807L171.332 30.6744H167.33ZM173.439 18.9621H180.39C181.654 18.9621 182.496 18.5362 183.339 17.8973C183.971 17.2585 184.392 16.4067 184.392 15.129C184.392 14.2772 184.182 13.6383 183.55 13.2124C182.918 12.7865 182.286 12.5735 181.233 12.5735H174.492L173.439 18.9621Z" fill="white"/>
<path d="M6.08594 17.9223L18.4429 5.57812L19.2746 6.40899L6.91765 18.7532L6.08594 17.9223ZM21.6509 33.4713L34.0078 21.1271L34.8395 21.9579L22.4826 34.3022L21.6509 33.4713ZM6.08594 21.9579L6.91765 21.1271L19.2746 33.4713L18.4429 34.3022L6.08594 21.9579ZM21.6509 6.40899L22.4826 5.57812L34.7207 17.8036L34.0078 18.7532L21.6509 6.40899Z" fill="url(#paint0_linear_4423_57350)"/>
<path d="M20.4612 1.78042L22.5999 3.91691L20.4612 5.93472L18.3225 3.79822L20.4612 1.78042ZM20.4612 0L16.5402 3.91691L20.4612 7.71513L24.3821 3.79822L20.4612 0ZM20.4612 33.9466L22.5999 36.0831L20.4612 38.1009L18.3225 35.9644L20.4612 33.9466ZM20.4612 32.1662L16.5402 36.0831L20.4612 40L24.3821 36.0831L20.4612 32.1662ZM4.42094 17.8042L6.44083 19.9407L4.30213 22.0772L2.28225 19.9407L4.42094 17.8042ZM4.42094 16.0237L0.5 19.9407L4.42094 23.8576L8.22307 19.9407L4.42094 16.0237ZM36.5014 17.8042L38.6401 19.9407L36.5014 22.0772L34.4815 19.9407L36.5014 17.8042ZM36.5014 16.0237L32.6993 19.9407L36.6202 23.8576L40.5412 19.9407L36.5014 16.0237Z" fill="url(#paint1_linear_4423_57350)"/>
<path d="M5.48828 17.923L18.4393 4.98535L19.271 5.93491L6.43881 18.7539L5.48828 17.923ZM21.885 34.1842L34.7171 21.3652L35.5489 22.196L22.7167 35.1337L21.885 34.1842ZM5.48828 22.196L6.32 21.3652L19.271 34.1842L18.4393 35.015L5.48828 22.196ZM21.885 5.93491L22.7167 5.10405L35.5489 17.923L34.7171 18.7539L21.885 5.93491Z" fill="url(#paint2_linear_4423_57350)"/>
<path d="M20.4612 1.78042L22.5999 3.91691L20.4612 5.93472L18.3225 3.79822L20.4612 1.78042ZM20.4612 0L16.5402 3.91691L20.4612 7.71513L24.3821 3.79822L20.4612 0ZM20.4612 33.9466L22.5999 36.0831L20.4612 38.1009L18.3225 35.9644L20.4612 33.9466ZM20.4612 32.1662L16.5402 36.0831L20.4612 40L24.3821 36.0831L20.4612 32.1662ZM4.42094 17.8042L6.44083 19.9407L4.30213 22.0772L2.28225 19.9407L4.42094 17.8042ZM4.42094 16.0237L0.5 19.9407L4.42094 23.8576L8.22307 19.9407L4.42094 16.0237ZM36.5014 17.8042L38.6401 19.9407L36.5014 22.0772L34.4815 19.9407L36.5014 17.8042ZM36.5014 16.0237L32.6993 19.9407L36.6202 23.8576L40.5412 19.9407L36.5014 16.0237Z" fill="url(#paint3_linear_4423_57350)"/>
<defs>
<linearGradient id="paint0_linear_4423_57350" x1="3.17819" y1="11.8953" x2="40.9021" y2="29.5051" gradientUnits="userSpaceOnUse">
<stop stop-color="#0D7CE9"/>
<stop offset="1" stop-color="#15CFF1"/>
</linearGradient>
<linearGradient id="paint1_linear_4423_57350" x1="-3.59992" y1="8.73738" x2="48.8958" y2="33.2416" gradientUnits="userSpaceOnUse">
<stop stop-color="#0D7CE9"/>
<stop offset="1" stop-color="#15CFF1"/>
</linearGradient>
<linearGradient id="paint2_linear_4423_57350" x1="2.43295" y1="11.6148" x2="42.0431" y2="30.1051" gradientUnits="userSpaceOnUse">
<stop stop-color="#FAFFFF"/>
<stop offset="1" stop-color="#FAFFFF"/>
</linearGradient>
<linearGradient id="paint3_linear_4423_57350" x1="-3.59992" y1="8.73738" x2="48.8958" y2="33.2416" gradientUnits="userSpaceOnUse">
<stop stop-color="#FAFFFF"/>
<stop offset="1" stop-color="#FAFFFF"/>
</linearGradient>
</defs>
</svg>
