<svg width="1440" height="376" viewBox="0 0 1440 376" fill="none" xmlns="http://www.w3.org/2000/svg">
<g opacity="0.2">
<path d="M430.006 375.263C422.902 375.263 415.988 374.957 409.343 374.347C395.408 373.067 382.534 370.438 371.077 366.534C358.763 362.338 347.964 356.622 338.975 349.543C320.909 335.316 311.871 318.278 303.13 301.799C301.412 298.564 299.637 295.218 297.834 291.972C285.534 269.847 269.942 250.466 250.17 232.723C210.728 197.328 155.259 167.121 89.7571 145.368C14.0052 120.212 -67.4404 107.68 -139.579 110.083C-181.978 111.496 -237.999 124.931 -263.036 147.876C-277.895 161.493 -279.093 176.605 -266.499 191.575L-266.749 191.638C-273.352 183.787 -276.229 175.916 -275.298 168.245C-274.443 161.207 -270.398 154.327 -263.272 147.797C-251.94 137.411 -233.25 128.206 -209.224 121.176C-187.023 114.68 -162.297 110.687 -139.595 109.931C-101.843 108.674 -61.6916 111.463 -20.257 118.22C17.3029 124.346 54.3654 133.436 89.9 145.237C155.44 167.002 210.942 197.225 250.406 232.641C270.189 250.397 285.79 269.788 298.098 291.925C299.903 295.172 301.679 298.519 303.393 301.754C312.127 318.22 321.159 335.247 339.2 349.453C356.647 363.194 380.264 371.518 409.39 374.193C449.725 377.899 498.706 370.149 540.41 353.46C600.509 329.411 642.218 294.406 682.557 260.556C689.627 254.622 696.937 248.487 704.175 242.562C722.966 227.178 748.416 207.243 778.66 189.483C809.575 171.33 840.991 157.992 874.703 148.707C895.338 143.024 917.207 139.195 939.702 137.327C960.48 135.6 982.472 135.493 1005.07 137.006C1043.83 139.601 1085.59 146.933 1132.73 159.417C1225.56 184.003 1318.29 213.843 1408.34 248.113C1493.94 280.685 1577.88 317.542 1657.85 357.658L1657.66 357.77C1491.9 274.611 1315.25 207.922 1132.61 159.553C1029.43 132.226 947.518 128.822 874.827 148.841C800.875 169.207 749.215 205.961 704.403 242.645C697.168 248.568 689.858 254.703 682.787 260.637C642.438 294.5 600.715 329.515 540.575 353.58C521.141 361.358 499.278 367.424 477.351 371.122C465.768 373.076 454.254 374.353 443.125 374.919C438.689 375.15 434.312 375.263 430.006 375.263Z" fill="#3880FF" fill-opacity="0.5"/>
<path d="M436.951 366.827C418.836 366.827 402.057 364.936 387.061 361.205C370.339 357.045 355.91 350.597 344.17 342.044C343.131 341.287 342.101 340.503 341.106 339.714C323.233 325.548 313.794 308.731 304.667 292.467C302.821 289.18 300.914 285.78 298.979 282.482C287.457 262.839 273.582 245.526 256.558 229.557C254.461 227.591 252.29 225.621 250.1 223.702C210.078 188.612 154.158 158.787 88.3875 137.453C12.0887 112.726 -69.5878 100.713 -141.597 103.627C-183.688 105.349 -239.451 119.004 -264.595 141.773C-279.652 155.407 -281.356 170.549 -269.528 185.563L-269.781 185.623C-275.98 177.754 -278.528 169.868 -277.349 162.187C-276.266 155.133 -272.056 148.238 -264.832 141.695C-253.383 131.326 -234.749 122.11 -210.949 115.044C-188.951 108.513 -164.331 104.405 -141.622 103.477C-103.916 101.951 -63.7208 104.473 -22.1543 110.971C15.4963 116.858 52.7346 125.724 88.5248 137.323C154.334 158.67 210.284 188.512 250.331 223.622C252.521 225.543 254.695 227.515 256.791 229.482C273.826 245.461 287.709 262.783 299.237 282.436C301.175 285.735 303.082 289.135 304.928 292.423C314.052 308.677 323.483 325.482 341.331 339.628C342.323 340.414 343.354 341.198 344.39 341.954C368.649 359.634 401.983 366.827 437.037 366.827C437.229 366.827 437.419 366.827 437.611 366.827C437.391 366.825 437.171 366.827 436.951 366.827ZM444.429 366.721C477.017 365.804 510.645 358.94 539.494 348.728C601.723 326.61 646.446 292.449 689.7 259.413C691.481 258.051 693.262 256.693 695.042 255.334C698.953 252.351 703.589 248.821 708.321 245.261C729.549 229.298 755.24 210.725 784.828 194.007C816.31 176.219 847.761 163.019 880.976 153.651C901.385 147.901 922.955 143.85 945.084 141.612C965.587 139.537 987.256 138.952 1009.48 139.869C1047.87 141.455 1089.15 147.468 1135.68 158.254C1181.05 168.753 1218.34 178.636 1253.04 189.357C1302.19 204.559 1349.02 222.075 1388.34 237.204C1479.75 272.476 1569.45 312.529 1654.93 356.249L1654.75 356.359C1569.27 312.645 1479.58 272.595 1388.18 237.327C1348.86 222.2 1302.05 204.687 1252.9 189.49C1218.21 178.772 1180.93 168.892 1135.58 158.396C1034.22 134.899 953.353 133.434 881.102 153.786C806.115 174.932 752.712 212.138 708.543 245.351C703.809 248.911 699.175 252.44 695.265 255.424C693.484 256.782 691.704 258.142 689.923 259.504C646.655 292.55 601.915 326.723 539.642 348.858C524.201 354.323 507.771 358.664 490.804 361.76C475.011 364.638 459.444 366.303 444.429 366.721Z" fill="#3880FF" fill-opacity="0.5"/>
<path d="M444.609 358.582C442.43 358.582 440.264 358.557 438.115 358.504C420.017 358.065 403.268 355.789 388.335 351.736C372.004 347.303 357.854 340.736 346.282 332.218C345.254 331.459 344.229 330.674 343.24 329.885C325.568 315.788 315.735 299.196 306.23 283.151C304.248 279.807 302.198 276.349 300.121 272.993C288.03 253.416 273.789 236.242 256.581 220.489C254.452 218.541 252.248 216.587 250.025 214.683C209.423 179.898 153.053 150.457 87.0122 129.541C10.1694 105.243 -71.738 93.747 -143.621 97.1739C-184.093 99.1337 -239.694 112.01 -266.13 135.648C-281.403 149.304 -283.627 164.487 -272.56 179.553L-272.816 179.609C-278.614 171.716 -280.826 163.812 -279.397 156.118C-278.084 149.041 -273.698 142.128 -266.363 135.569C-254.794 125.225 -236.22 116.006 -212.648 108.907C-190.856 102.344 -166.349 98.1245 -143.645 97.0248C-105.984 95.2307 -65.7445 97.4843 -24.0489 103.724C13.6951 109.372 51.1066 118.014 87.1496 129.411C153.228 150.341 209.629 179.799 250.255 214.603C252.479 216.509 254.685 218.463 256.815 220.413C274.031 236.176 288.28 253.36 300.376 272.947C302.454 276.305 304.504 279.764 306.485 283.108C315.988 299.143 325.812 315.723 343.463 329.803C344.452 330.593 345.471 331.376 346.499 332.132C393.521 366.745 476.851 363.029 538.575 343.993C603.4 323.825 651.576 290.304 698.166 257.887L698.644 257.554C703.156 254.412 707.822 251.164 712.466 247.957C761.472 214.124 815.336 179.355 887.251 158.59C907.441 152.772 928.713 148.5 950.472 145.892C970.711 143.467 992.05 142.402 1013.89 142.728C1051.98 143.294 1092.78 147.991 1138.63 157.086C1186.82 166.611 1223.09 175.366 1256.22 185.475C1303.42 199.907 1349.14 218.145 1389.48 234.236C1479.3 270.254 1567.63 310.829 1652.02 354.831L1651.83 354.94C1567.45 310.942 1479.13 270.372 1389.32 234.356C1348.99 218.268 1303.27 200.034 1256.08 185.606C1222.97 175.5 1186.71 166.748 1138.54 157.226C1039.15 137.511 959.34 137.986 887.378 158.721C815.509 179.472 761.667 214.227 712.681 248.047C708.036 251.254 703.37 254.504 698.858 257.644L698.38 257.977C675.162 274.131 651.155 290.835 625.231 305.756C596.096 322.523 567.794 335.073 538.706 344.121C508.275 353.506 475.126 358.582 444.609 358.582Z" fill="#3880FF" fill-opacity="0.5"/>
<path d="M1648.92 353.518C1565.63 309.238 1478.68 268.146 1390.47 231.385C1386.73 229.839 1382.99 228.286 1379.23 226.728C1341.03 210.879 1301.52 194.489 1259.27 181.722C1218.28 169.369 1176.74 161.817 1141.51 156.058C1044.27 140.063 965.514 142.478 893.662 163.654C819.902 185.457 762.749 221.656 716.827 250.744C714.071 252.49 711.32 254.239 708.564 255.989C706.53 257.282 704.494 258.574 702.458 259.865C676.31 276.444 652.526 291.267 626.247 304.792C596.225 320.243 567.288 331.559 537.777 339.387C510.121 346.725 480.577 350.607 453.097 350.608C448.09 350.608 443.158 350.48 438.31 350.219C420.613 349.269 404.229 346.598 389.615 342.281C373.669 337.571 359.799 330.879 348.387 322.392C347.367 321.632 346.351 320.845 345.367 320.055C327.903 306.032 317.689 289.673 307.812 273.853C305.685 270.446 303.484 266.921 301.258 263.5C288.59 243.985 273.982 226.948 256.603 211.415C254.44 209.482 252.201 207.546 249.947 205.659C208.763 171.18 151.945 142.121 85.6379 121.622C8.25107 97.7543 -73.8844 86.7775 -145.641 90.7121C-194.695 93.4552 -244.858 109.401 -267.628 129.489C-283.14 143.174 -285.891 158.405 -275.589 173.534L-275.847 173.587C-281.242 165.665 -283.121 157.737 -281.434 150.023C-279.881 142.921 -275.314 135.986 -267.861 129.409C-256.171 119.095 -237.658 109.876 -214.322 102.751C-192.739 96.1606 -168.358 91.8313 -145.668 90.563C-108.051 88.4992 -67.7701 90.4861 -25.9453 96.4664C11.8894 101.877 49.4796 110.296 85.7754 121.49C152.123 142 208.972 171.076 250.181 205.576C252.437 207.465 254.677 209.402 256.839 211.335C274.229 226.878 288.843 243.923 301.519 263.447C303.745 266.87 305.946 270.393 308.073 273.802C317.944 289.613 328.153 305.961 345.595 319.967C346.579 320.757 347.593 321.541 348.609 322.301C397.697 358.806 481.13 354.246 537.659 339.25C605.104 321.358 656.714 288.637 702.252 259.766C704.288 258.473 706.322 257.181 708.358 255.89C711.111 254.14 713.865 252.391 716.621 250.645C742.834 234.042 768.721 217.907 797.179 203.039C829.905 185.941 861.425 173.015 893.536 163.522C913.514 157.633 934.484 153.14 955.866 150.168C975.85 147.389 996.861 145.846 1018.32 145.581C1056.16 145.114 1096.48 148.494 1141.6 155.913C1176.84 161.675 1218.4 169.231 1259.4 181.59C1301.67 194.363 1341.19 210.757 1379.4 226.609C1383.16 228.167 1386.9 229.72 1390.64 231.266C1478.86 268.03 1565.82 309.126 1649.11 353.411L1648.92 353.518Z" fill="#3880FF" fill-opacity="0.5"/>
<path d="M1646.01 352.101C1562.25 306.69 1476.66 265.076 1391.62 228.415C1386.53 226.222 1381.32 223.961 1376.29 221.775C1340.23 206.121 1302.95 189.934 1262.45 177.839C1222.02 165.805 1180.13 159.485 1144.48 154.89C1049.61 142.543 971.901 146.896 899.944 168.59C831.31 189.359 777.539 220.588 725.539 250.789L719.828 254.105C715.319 256.724 710.655 259.431 706.058 262.087C654.005 292.115 601.897 320.258 536.849 334.653C521.064 338.146 504.856 340.566 488.67 341.851C471.289 343.23 454.405 343.249 438.486 341.909C421.196 340.452 405.183 337.393 390.893 332.815C375.342 327.833 361.751 321.02 350.5 312.566C349.486 311.801 348.478 311.013 347.502 310.224C330.253 296.284 319.67 280.166 309.437 264.578C307.153 261.1 304.79 257.503 302.404 254.01C289.148 234.555 274.177 217.655 256.633 202.345C254.44 200.432 252.168 198.511 249.879 196.639C208.114 162.466 150.849 133.789 84.2696 113.708C6.33578 90.272 -76.0305 79.8119 -147.663 84.2571C-196.27 87.3376 -246.204 103.395 -269.09 123.308C-284.861 137.028 -288.155 152.317 -278.62 167.524L-278.881 167.574C-283.871 159.617 -285.413 151.659 -283.465 143.922C-281.667 136.79 -276.911 129.827 -269.326 123.23C-257.51 112.95 -239.062 103.74 -215.973 96.5942C-194.605 89.9798 -170.356 85.5466 -147.696 84.1095C-110.122 81.7777 -69.8008 83.4964 -27.8441 89.2176C10.0841 94.3904 47.8474 102.585 84.3987 113.577C151.016 133.669 208.315 162.363 250.104 196.556C252.393 198.43 254.669 200.352 256.862 202.265C274.416 217.583 289.395 234.492 302.657 253.957C305.042 257.45 307.406 261.049 309.689 264.527C319.918 280.106 330.495 296.216 347.725 310.14C348.698 310.926 349.706 311.712 350.717 312.477C398.623 348.475 478.223 347.464 536.742 334.514C601.738 320.131 653.824 291.999 705.854 261.984C710.452 259.329 715.115 256.622 719.625 254.002L725.335 250.687C750.862 235.863 777.254 220.533 805.918 206.272C838.383 190.121 869.095 177.752 899.807 168.458C919.582 162.496 940.255 157.781 961.25 154.446C980.989 151.31 1001.67 149.288 1022.73 148.437C1060.4 146.914 1100.25 148.978 1144.55 154.743C1180.21 159.34 1222.12 165.662 1262.58 177.707C1303.1 189.806 1340.39 205.998 1376.46 221.656C1381.49 223.842 1386.69 226.102 1391.78 228.296C1476.84 264.96 1562.43 306.577 1646.2 351.992L1646.01 352.101Z" fill="#3880FF" fill-opacity="0.5"/>
<path d="M1643.09 350.683C1560.06 304.768 1475.83 262.632 1392.76 225.447C1386.52 222.653 1380.12 219.747 1373.93 216.938C1339.82 201.453 1304.55 185.44 1265.64 173.96C1225.39 162.132 1183.31 157.094 1147.46 153.725C1055.21 144.927 978.554 151.22 906.224 173.529C843.102 193.08 791.277 220.788 741.156 247.583C735.882 250.403 730.428 253.318 725.113 256.142C718.872 259.459 714.104 261.98 709.655 264.311C685.827 276.793 657.457 291.165 627.685 303.12C596.135 315.787 566.118 324.553 535.917 329.922C520.037 332.745 503.897 334.526 487.945 335.212C470.817 335.951 454.233 335.408 438.657 333.599C421.781 331.639 406.142 328.191 392.169 323.351C377.016 318.103 363.707 311.168 352.611 302.741C351.611 301.978 350.608 301.188 349.635 300.396C332.614 286.55 321.676 270.68 311.097 255.333C308.643 251.774 306.106 248.094 303.548 244.519C289.695 225.119 274.358 208.358 256.658 193.275C254.432 191.378 252.127 189.476 249.805 187.618C207.461 153.751 149.744 125.457 82.8958 105.793C4.42062 82.788 -78.1765 72.8476 -149.683 77.8005C-190.37 80.6807 -243.511 93.9486 -270.513 117.095C-286.567 130.857 -290.42 146.216 -281.651 161.51L-281.912 161.555C-286.498 153.558 -287.696 145.565 -285.476 137.799C-283.426 130.63 -278.471 123.637 -270.744 117.014C-258.801 106.777 -240.422 97.582 -217.589 90.4207C-196.435 83.7868 -172.332 79.2526 -149.716 77.6514C-112.186 75.0514 -71.8203 76.502 -29.7372 81.9641C8.28162 86.8989 46.2207 94.8705 83.0249 105.661C149.912 125.335 207.661 153.645 250.03 187.532C252.352 189.39 254.661 191.295 256.886 193.193C274.595 208.284 289.94 225.054 303.801 244.464C306.362 248.04 308.898 251.72 311.352 255.279C321.924 270.618 332.858 286.479 349.86 300.31C350.833 301.101 351.833 301.889 352.833 302.651C392.688 332.92 461.1 343.061 535.832 329.776C603.51 317.746 658.718 290.784 709.466 264.2C713.915 261.868 718.68 259.348 724.921 256.031C730.235 253.206 735.69 250.292 740.963 247.472C765.638 234.281 791.151 220.641 818.364 207.868C849.136 193.424 877.834 182.147 906.092 173.395C925.677 167.355 946.048 162.419 966.644 158.725C986.152 155.226 1006.51 152.727 1027.15 151.294C1064.73 148.688 1104.1 149.434 1147.5 153.573C1183.38 156.944 1225.49 161.985 1265.77 173.823C1304.7 185.311 1339.98 201.328 1374.1 216.817C1380.29 219.627 1386.69 222.533 1392.94 225.327C1476.01 262.516 1560.24 304.655 1643.29 350.573L1643.09 350.683Z" fill="#3880FF" fill-opacity="0.5"/>
<path d="M1640.18 349.263C1557.86 302.841 1475 260.182 1393.9 222.477C1387 219.27 1379.92 215.903 1373.07 212.648C1340.42 197.141 1306.67 181.108 1268.82 170.077C1228.54 158.39 1186.37 154.662 1150.42 152.556C1062.36 147.258 984.532 155.733 912.501 178.464C855.147 196.646 805.983 220.969 758.436 244.492C748.832 249.243 738.904 254.157 729.25 258.84C723.344 261.707 718.112 264.224 713.248 266.534C690.629 277.269 660.541 291.032 628.389 302.28C596.084 313.581 565.528 321.075 534.979 325.189C501.659 329.676 468.405 329.709 438.815 325.287C422.362 322.827 407.094 318.992 393.434 313.887C378.685 308.375 365.66 301.319 354.714 292.918C353.722 292.153 352.727 291.362 351.76 290.57C334.981 276.829 323.703 261.22 312.799 246.126C310.161 242.475 307.435 238.7 304.684 235.032C290.224 215.683 274.522 199.057 256.679 184.208C254.42 182.328 252.081 180.442 249.726 178.601C206.802 145.039 148.638 117.127 81.5202 97.883C2.50372 75.3103 -80.3242 65.888 -151.707 71.3485C-200.083 75.1295 -248.385 91.0065 -271.897 110.854C-288.258 124.666 -292.68 140.105 -284.683 155.501L-284.947 155.542C-289.127 147.496 -289.979 139.461 -287.481 131.661C-285.172 124.452 -280.006 117.423 -272.128 110.771C-260.058 100.582 -241.751 91.4087 -219.184 84.2414C-198.253 77.5939 -174.301 72.9603 -151.745 71.1979C-114.259 68.3298 -73.8499 69.5138 -31.6376 74.7152C6.47461 79.4121 44.5896 87.1608 81.6466 97.7474C148.803 117.003 207 144.931 249.952 178.514C252.307 180.354 254.645 182.242 256.907 184.123C274.758 198.982 290.468 215.615 304.937 234.973C307.688 238.641 310.414 242.418 313.052 246.069C323.95 261.155 335.223 276.757 351.985 290.484C352.953 291.276 353.945 292.064 354.937 292.829C394.107 322.902 461.387 334.944 534.913 325.043C601.942 316.015 660.151 291.532 713.067 266.421C717.928 264.111 723.163 261.595 729.066 258.729C738.717 254.045 748.648 249.133 758.25 244.382C805.807 220.854 854.98 196.525 912.361 178.336C931.773 172.21 951.847 167.053 972.026 163.007C991.325 159.139 1011.36 156.161 1031.56 154.156C1069.13 150.428 1108.02 149.857 1150.45 152.409C1186.42 154.516 1228.63 158.246 1268.94 169.945C1306.82 180.984 1340.59 197.024 1373.24 212.536C1380.1 215.791 1387.18 219.157 1394.08 222.364C1475.19 260.072 1558.05 302.734 1640.37 349.159L1640.18 349.263Z" fill="#3880FF" fill-opacity="0.5"/>
<path d="M1637.26 347.843C1555.68 300.908 1474.19 257.73 1395.05 219.506C1387.78 215.994 1380.3 212.274 1373.06 208.677C1341.61 193.04 1309.09 176.869 1272 166.194C1231.55 154.607 1189.35 152.207 1153.39 151.388C1068.65 149.315 991.911 159.785 918.781 183.399C867.494 200.038 821.776 221.097 777.56 241.462C762.358 248.465 747.997 255.079 733.391 261.537C727.45 264.165 722.039 266.527 716.845 268.755C683.333 283.118 655.452 293.503 629.098 301.436C596.037 311.388 564.946 317.609 534.047 320.453C522.06 321.556 510.117 322.106 498.392 322.106C477.606 322.106 457.493 320.383 438.977 316.969C405.468 310.792 377.828 299.393 356.825 283.09C355.836 282.317 354.849 281.526 353.893 280.737C337.369 267.115 325.775 251.783 314.563 236.955C311.722 233.198 308.787 229.314 305.827 225.538C290.749 206.234 274.678 189.747 256.706 175.134C254.414 173.27 252.043 171.401 249.655 169.577C206.151 136.321 147.536 108.791 80.149 89.9644C0.591095 67.8255 -82.465 58.92 -153.724 64.8881C-202.301 69.0412 -249.209 84.6169 -273.224 104.57C-289.918 118.439 -294.925 133.97 -287.709 149.484L-287.975 149.521C-291.743 141.42 -292.243 133.337 -289.459 125.496C-286.882 118.239 -281.498 111.171 -273.452 104.487C-261.256 94.3539 -243.029 85.2104 -220.737 78.0431C-200.031 71.385 -176.247 66.6611 -153.765 64.739C-116.323 61.6028 -75.8697 62.5186 -33.531 67.461C4.67465 71.9213 42.9628 79.4471 80.2753 89.8289C147.701 108.667 206.349 136.213 249.88 169.488C252.268 171.314 254.64 173.183 256.934 175.048C274.917 189.669 290.996 206.165 306.08 225.476C309.04 229.253 311.977 233.137 314.816 236.894C326.022 251.715 337.611 267.041 354.121 280.651C355.077 281.439 356.061 282.23 357.05 283.001C396.27 313.447 460.766 327.044 534.001 320.303C603.715 313.886 665.463 290.584 716.675 268.635C721.866 266.407 727.277 264.046 733.218 261.418C747.821 254.96 762.182 248.347 777.384 241.344C821.605 220.975 867.335 199.913 918.641 183.268C937.907 177.047 957.682 171.669 977.418 167.283C996.533 163.035 1016.24 159.578 1035.98 157.009C1073.63 152.112 1112.04 150.223 1153.4 151.235C1189.39 152.055 1231.63 154.458 1272.13 166.058C1309.24 176.741 1341.78 192.919 1373.24 208.563C1380.48 212.16 1387.96 215.879 1395.23 219.39C1474.37 257.617 1555.87 300.8 1637.46 347.738L1637.26 347.843Z" fill="#3880FF" fill-opacity="0.5"/>
<path d="M1634.35 346.426C1552.36 298.307 1474.46 255.82 1396.2 216.538C1388.73 212.79 1381.38 208.962 1373.59 204.91C1343.16 189.069 1311.7 172.691 1275.18 162.313C1234.23 150.731 1190.17 149.767 1156.36 150.222C1075.48 151.168 999.824 163.636 925.061 188.339C880.205 203.232 838.79 221.117 798.738 238.414C777.688 247.505 757.806 256.09 737.531 264.238C731.513 266.659 725.921 268.864 720.441 270.98C686.473 284.08 657.674 293.488 629.803 300.592C595.975 309.215 564.348 314.163 533.114 315.721C517.066 316.52 501.127 316.37 485.741 315.273C469.451 314.112 453.771 311.884 439.138 308.653C406.703 301.49 379.72 289.585 358.937 273.267C357.956 272.493 356.977 271.7 356.027 270.911C339.78 257.429 327.895 242.39 316.4 227.846C313.333 223.965 310.162 219.953 306.972 216.051C291.261 196.789 274.828 180.439 256.732 166.067C254.405 164.22 252 162.368 249.585 160.56C205.501 127.61 146.438 100.462 78.7819 82.0533C16.3359 65.1324 -48.0611 56.3036 -107.113 56.3036C-123.807 56.3036 -140.062 57.0086 -155.739 58.4351C-203.731 62.8879 -250.345 78.5194 -274.5 98.2586C-291.549 112.192 -297.163 127.828 -290.736 143.475L-291.005 143.508C-294.36 135.344 -294.501 127.205 -291.423 119.319C-288.57 112.009 -282.953 104.894 -274.731 98.1743C-262.409 88.1043 -244.267 78.9984 -222.261 71.8387C-201.488 65.0797 -178.501 60.3934 -155.789 58.2875C-118.391 54.8831 -77.8936 55.5324 -35.4257 60.2141C2.87064 64.4349 41.3374 71.7362 78.9028 81.9162C146.597 100.336 205.696 127.498 249.807 160.468C252.226 162.276 254.633 164.13 256.961 165.978C275.064 180.358 291.506 196.715 307.225 215.986C310.415 219.888 313.589 223.901 316.656 227.783C328.145 242.32 340.025 257.354 356.257 270.825C357.208 271.613 358.186 272.405 359.165 273.178C398.03 303.692 461.421 319.141 533.092 315.568C605.615 311.952 671.227 289.772 720.287 270.854C725.767 268.737 731.356 266.532 737.374 264.113C757.646 255.968 777.526 247.382 798.573 238.292C838.631 220.993 880.051 203.104 924.924 188.206C963.415 175.488 1001.19 166.219 1040.4 159.869C1078.22 153.744 1116.15 150.538 1156.36 150.068C1179.3 149.759 1198.02 150.296 1215.27 151.754C1237.54 153.637 1257.18 157.046 1275.32 162.176C1311.86 172.563 1343.34 188.95 1373.79 204.799C1381.57 208.851 1388.92 212.677 1396.39 216.425C1474.66 255.709 1552.56 298.199 1634.56 346.321L1634.35 346.426Z" fill="#3880FF" fill-opacity="0.5"/>
<path d="M1631.44 345.005C1550.2 296.359 1473.63 253.366 1397.34 213.565C1389.79 209.627 1382.35 205.571 1374.47 201.276C1344.95 185.185 1314.43 168.544 1278.36 158.428C1237.08 146.9 1193.06 147.361 1159.33 149.049C1083.01 152.738 1008.43 167.204 931.34 193.27C893.357 206.175 857.193 220.943 822.219 235.226C794.571 246.516 768.459 257.181 741.672 266.929C735.618 269.134 729.682 271.243 724.035 273.195C690.001 284.951 659.407 293.632 630.506 299.736C595.9 307.045 563.737 310.723 532.179 310.979C516.123 311.109 500.247 310.314 485.004 308.613C469.024 306.829 453.646 304.041 439.296 300.323C407.974 292.209 381.646 279.798 361.044 263.434C360.076 262.661 359.104 261.868 358.156 261.074C342.214 247.756 330.071 233.035 318.326 218.798C315.003 214.77 311.566 210.603 308.111 206.553C291.758 187.327 274.959 171.116 256.756 156.989C254.396 155.159 251.958 153.323 249.51 151.532C204.846 118.887 145.333 92.1226 77.4072 74.1307C-3.23062 52.8609 -86.7511 44.9917 -157.763 51.9722C-205.133 56.7097 -251.437 72.3818 -275.727 91.8966C-293.16 105.904 -299.398 121.658 -293.77 137.456L-294.04 137.485C-296.974 129.25 -296.749 121.048 -293.366 113.108C-290.225 105.737 -284.369 98.5713 -275.955 91.8108C-263.512 81.8131 -245.46 72.7524 -223.751 65.6077C-203.218 58.8502 -180.417 54.0841 -157.812 51.8231C-120.456 48.1521 -79.9168 48.5317 -37.3225 52.9543C1.06726 56.9402 39.7072 64.0185 77.5254 73.9936C145.492 91.9945 205.039 118.776 249.727 151.44C252.178 153.231 254.619 155.069 256.979 156.9C275.193 171.034 291.997 187.253 308.359 206.487C311.816 210.537 315.251 214.704 318.576 218.733C330.315 232.964 342.453 247.679 358.384 260.988C359.332 261.78 360.305 262.574 361.269 263.345C400.544 294.539 461.239 311.404 532.174 310.826C589.731 310.359 650.649 298.359 723.886 273.064C729.531 271.112 735.464 269.005 741.518 266.799C768.297 257.053 794.409 246.391 822.051 235.101C857.031 220.816 893.2 206.045 931.194 193.137C970.062 179.994 1007.23 170.046 1044.81 162.721C1082.89 155.301 1120.34 150.777 1159.31 148.894C1193.07 147.202 1237.14 146.743 1278.49 158.289C1314.6 168.418 1345.14 185.066 1374.67 201.165C1382.54 205.459 1389.99 209.514 1397.53 213.45C1473.82 253.253 1550.4 296.249 1631.64 344.898L1631.44 345.005Z" fill="#3880FF" fill-opacity="0.5"/>
<path d="M1628.52 343.586C1548.04 294.411 1472.8 250.909 1398.49 210.596C1390.95 206.503 1383.5 202.251 1375.61 197.748C1346.93 181.369 1317.27 164.434 1281.55 154.546C1239.87 143.06 1195.93 144.95 1162.31 147.88C1090.49 154.019 1019.1 170.01 937.621 198.206C907.063 208.829 877.201 220.482 848.322 231.751C813.246 245.438 780.116 258.367 745.812 269.627C739.632 271.657 733.515 273.607 727.632 275.417C692.987 286.073 661.448 293.75 631.212 298.883C614.276 301.759 597.557 303.842 581.52 305.076C564.413 306.391 547.499 306.784 531.247 306.245C498.274 305.15 467.392 300.356 439.461 291.999C409.296 282.973 383.624 270.058 363.159 253.608C362.198 252.829 361.233 252.034 360.29 251.245C344.69 238.123 332.329 223.751 320.378 209.853C316.759 205.646 313.019 201.296 309.257 197.063C292.244 177.869 275.08 161.794 256.784 147.919C254.39 146.104 251.917 144.285 249.438 142.512C204.195 110.172 144.233 83.7893 76.0383 66.2177C-5.13809 45.3833 -88.8867 38.0323 -159.78 45.5174C-235.688 53.6562 -309.657 88.822 -296.796 131.444L-297.068 131.468C-300.286 120.806 -298.401 110.303 -291.468 100.246C-285.136 91.062 -274.746 82.4185 -260.586 74.5584C-247.42 67.2495 -231.624 60.9394 -213.641 55.8028C-196.537 50.9176 -177.931 47.3084 -159.835 45.3682C-122.522 41.4291 -81.9397 41.5421 -39.2162 45.7057C-0.733032 49.455 38.0827 56.3104 76.1537 66.0821C144.387 83.6658 204.384 110.063 249.655 142.421C252.137 144.196 254.61 146.015 257.006 147.832C275.311 161.713 292.483 177.796 309.504 196.998C313.266 201.231 317.006 205.581 320.626 209.79C332.574 223.683 344.929 238.049 360.521 251.163C361.461 251.953 362.423 252.748 363.385 253.525C402.717 285.138 462.338 303.806 531.264 306.096C589.615 308.031 653.803 297.955 727.497 275.288C733.378 273.477 739.492 271.529 745.672 269.499C779.968 258.242 813.092 245.314 848.162 231.629C877.044 220.358 906.91 208.704 937.473 198.079C1018.98 169.871 1090.41 153.874 1162.26 147.731C1184.86 145.762 1203.56 145.133 1221.14 145.752C1243.6 146.543 1263.4 149.374 1281.67 154.41C1317.43 164.308 1347.11 181.255 1375.81 197.643C1383.69 202.144 1391.14 206.396 1398.68 210.487C1473 250.803 1548.24 294.307 1628.72 343.485L1628.52 343.586Z" fill="#3880FF" fill-opacity="0.5"/>
<path d="M1625.61 342.169C1545.9 292.458 1471.98 248.45 1399.64 207.627C1392.15 203.404 1384.75 198.98 1376.92 194.293C1349.01 177.601 1320.16 160.34 1284.74 150.665C1242.15 139.082 1196.16 142.862 1165.28 146.712C1081.45 157.034 1006.33 181.03 943.904 203.145C921.467 211.125 899.087 219.579 877.441 227.754C834.019 244.154 793.008 259.643 749.957 272.327C743.626 274.193 737.327 275.981 731.232 277.643C695.912 287.252 663.428 293.922 631.924 298.031C596.211 302.69 562.029 303.862 530.319 301.513C497.744 299.098 467.23 293.097 439.629 283.674C410.679 273.793 385.664 260.372 365.273 243.786C364.323 243.007 363.364 242.21 362.426 241.418C347.213 228.537 334.699 214.56 322.594 201.042C318.629 196.612 314.526 192.032 310.404 187.575C292.473 168.14 275.443 152.659 256.815 138.852C254.388 137.053 251.885 135.252 249.37 133.494C203.542 101.461 143.129 75.4614 74.6651 58.3056C-7.0499 37.908 -91.0293 31.0737 -161.802 39.0634C-237.982 47.7777 -310.439 82.466 -299.826 125.435L-300.098 125.454C-302.731 114.794 -300.453 104.301 -293.33 94.2668C-286.801 85.0735 -276.35 76.421 -262.264 68.5518C-249.128 61.2128 -233.415 54.856 -215.558 49.6546C-198.556 44.7017 -179.985 40.9885 -161.857 38.9143C-124.585 34.707 -83.9614 34.5534 -41.1116 38.4563C-2.53491 41.9692 36.4567 48.6016 74.7805 58.1685C143.286 75.3334 203.731 101.348 249.582 133.4C252.096 135.16 254.603 136.963 257.032 138.761C275.672 152.575 292.707 168.065 310.646 187.507C314.768 191.964 318.87 196.545 322.836 200.975C334.938 214.489 347.45 228.462 362.652 241.337C363.589 242.129 364.545 242.924 365.496 243.703C405.133 275.945 463.68 296.423 530.352 301.363C590.149 305.795 655.816 297.991 731.109 277.507C737.201 275.847 743.5 274.061 749.825 272.194C792.865 259.514 833.871 244.027 877.284 227.629C898.93 219.454 921.313 210.999 943.753 203.017C985.732 188.147 1020.65 177.161 1053.65 168.444C1092.49 158.183 1128.98 151.026 1165.22 146.564C1187.3 143.811 1206.56 142.564 1224.08 142.753C1246.63 142.997 1266.51 145.54 1284.86 150.529C1320.32 160.216 1349.2 177.488 1377.12 194.191C1384.95 198.876 1392.35 203.3 1399.83 207.521C1472.18 248.344 1546.1 292.355 1625.82 342.068L1625.61 342.169Z" fill="#3880FF" fill-opacity="0.5"/>
<path d="M1622.7 340.748C1543.75 290.499 1471.16 245.983 1400.78 204.655C1393.4 200.321 1386.1 195.743 1378.36 190.896C1351.19 173.868 1323.1 156.26 1287.92 146.781C1244.87 135.226 1199.01 140.538 1168.25 145.541C1092.3 157.789 1024.56 181.111 950.187 208.079C936.773 212.961 923.207 218 910.085 222.874C859.62 241.619 807.441 261.002 754.099 275.023C747.619 276.728 741.134 278.356 734.827 279.863C699.268 288.347 664.885 294.17 632.631 297.172C596.094 300.574 561.359 300.44 529.383 296.776C497.264 293.096 467.121 285.885 439.789 275.344C412.13 264.676 387.766 250.752 367.376 233.961C366.434 233.181 365.483 232.382 364.551 231.59C349.797 219.011 337.203 205.488 325.024 192.411C320.635 187.699 316.098 182.828 311.539 178.087C292.908 158.672 275.524 143.324 256.832 129.785C254.378 128.007 251.838 126.221 249.288 124.476C202.888 92.7448 142.03 67.1278 73.2916 50.3907C-8.95932 30.43 -93.1668 24.1138 -163.824 32.6067C-237.586 41.5695 -311.381 75.0407 -302.86 119.421L-303.132 119.436C-305.179 108.775 -302.508 98.2943 -295.196 88.283C-288.471 79.0792 -277.957 70.4192 -263.948 62.5409C-238.1 48.0076 -201.628 37.0429 -163.884 32.4575C-126.657 27.9837 -85.989 27.5619 -43.01 31.2042C-4.33994 34.4821 34.8248 40.8901 73.4015 50.2521C142.179 66.9982 203.072 92.6319 249.503 124.378C252.056 126.124 254.595 127.911 257.051 129.69C275.752 143.236 293.144 158.591 311.781 178.014C316.34 182.756 320.88 187.627 325.268 192.339C337.445 205.413 350.036 218.932 364.782 231.506C365.711 232.298 366.662 233.095 367.604 233.875C408.398 267.47 464.359 289.169 529.435 296.627C589.693 303.532 658.757 297.846 734.712 279.724C741.016 278.218 747.496 276.591 753.973 274.887C807.295 260.871 859.469 241.491 909.923 222.749C923.044 217.875 936.611 212.836 950.027 207.954C982.583 196.149 1020.46 182.608 1058.06 171.303C1097.39 159.478 1133.4 151.005 1168.17 145.398C1190.05 141.838 1209.3 139.992 1227.01 139.754C1249.34 139.452 1269.87 141.772 1288.03 146.647C1303.79 150.893 1319.65 157.23 1336.52 166.021C1351.42 173.784 1365.22 182.433 1378.56 190.796C1386.29 195.642 1393.6 200.22 1400.98 204.553C1471.36 245.882 1543.95 290.4 1622.9 340.65L1622.7 340.748Z" fill="#3880FF" fill-opacity="0.5"/>
<path d="M1619.78 339.328C1541.61 288.537 1470.35 243.514 1401.92 201.685C1394.68 197.256 1387.5 192.54 1379.9 187.548C1353.44 170.166 1326.08 152.192 1291.1 142.9C1258.41 134.243 1219.2 134.725 1171.22 144.373C1104.13 157.787 1044.17 180.224 980.677 203.981C972.771 206.939 964.599 209.997 956.465 213.017C953.28 214.203 950.092 215.391 946.907 216.578C886.412 239.127 823.859 262.444 758.239 277.721C751.606 279.267 744.939 280.736 738.423 282.085C702.083 289.607 666.73 294.394 633.347 296.313C595.966 298.461 560.673 297.024 528.456 292.041C496.837 287.15 467.065 278.729 439.967 267.013C413.701 255.656 389.991 241.231 369.494 224.136C368.559 223.354 367.617 222.554 366.691 221.76C352.497 209.575 339.944 196.598 327.801 184.049C322.885 178.966 317.798 173.711 312.69 168.595C293.338 149.193 275.602 133.978 256.866 120.713C254.377 118.95 251.807 117.182 249.224 115.454C202.236 84.0298 140.927 58.7939 71.9192 42.4755C-10.8648 22.9532 -95.3059 17.1537 -165.845 26.1496C-238.252 35.4604 -311.943 69.2058 -305.889 113.408L-306.164 113.42C-307.623 102.758 -304.562 92.2892 -297.06 82.3035C-290.138 73.0892 -279.563 64.4186 -265.628 56.5343C-239.89 41.9709 -203.545 30.8434 -165.908 26.0035C-128.722 21.2615 -88.0126 20.5716 -44.9072 23.9549C-6.14371 26.9947 33.1997 33.1798 72.0291 42.3369C141.076 58.6658 202.423 83.9153 249.43 115.356C252.013 117.084 254.588 118.855 257.078 120.618C275.822 133.89 293.569 149.11 312.926 168.52C318.037 173.635 323.121 178.893 328.04 183.975C340.178 196.521 352.731 209.496 366.919 221.676C367.845 222.47 368.785 223.268 369.719 224.05C411.398 258.811 466.312 282.269 528.527 291.892C589.942 301.391 660.528 298.042 738.324 281.941C744.834 280.591 751.498 279.124 758.129 277.58C823.727 262.308 886.269 238.996 946.75 216.45C949.938 215.262 953.123 214.075 956.308 212.889C964.442 209.869 972.615 206.811 980.521 203.854C1044.02 180.093 1104.01 157.65 1171.12 144.23C1192.8 139.87 1212.04 137.426 1229.95 136.752C1252.37 135.91 1272.98 137.933 1291.22 142.763C1306.89 146.925 1322.55 153.291 1339.11 162.225C1353.71 170.107 1367.13 178.924 1380.11 187.45C1387.71 192.441 1394.89 197.156 1402.13 201.583C1470.56 243.413 1541.82 288.438 1619.99 339.23L1619.78 339.328Z" fill="#3880FF" fill-opacity="0.5"/>
<path d="M1616.87 337.91C1545.52 290.58 1473.59 243.747 1403.07 198.715C1395.89 194.157 1388.78 189.26 1381.24 184.076C1356.74 167.214 1328.98 148.103 1294.28 139.018C1261.21 130.376 1221.93 131.745 1174.19 143.203C1117.42 156.781 1067.18 176.746 1013.99 197.883C997.339 204.502 980.115 211.349 962.742 217.953C932.417 229.505 899.614 241.729 865.228 252.862C828.402 264.787 794.758 273.799 762.373 280.418C755.569 281.809 748.721 283.118 742.013 284.306C704.904 290.878 668.588 294.619 634.076 295.423C595.87 296.312 560.02 293.582 527.516 287.304C467.494 275.566 415.034 251.008 371.596 214.31C370.67 213.527 369.736 212.726 368.815 211.932C355.342 200.285 343.009 187.997 331.083 176.114C325.468 170.521 319.664 164.736 313.825 159.107C293.737 139.71 275.644 124.628 256.886 111.645C254.361 109.897 251.758 108.145 249.145 106.436C201.585 75.3143 139.826 50.4625 70.5484 34.5614C-12.7715 15.4759 -97.4406 10.1961 -167.864 19.6937C-240.711 29.5739 -312.555 62.8718 -308.92 107.397L-309.195 107.403C-310.066 96.7377 -306.609 86.2806 -298.922 76.3206C-291.8 67.0942 -281.165 58.4145 -267.309 50.5243C-254.256 43.0904 -238.785 36.5905 -221.327 31.2037C-204.377 25.9752 -186.413 22.0526 -167.933 19.5461C-130.788 14.5374 -90.0347 13.5794 -46.8029 16.7021C-7.94592 19.5084 31.5706 25.469 70.6529 34.4213C139.972 50.3314 201.766 75.1984 249.354 106.335C251.967 108.046 254.575 109.799 257.1 111.547C275.867 124.538 293.968 139.625 314.064 159.029C319.904 164.659 325.707 170.444 331.322 176.038C343.248 187.92 355.578 200.206 369.046 211.849C369.964 212.644 370.901 213.444 371.825 214.227C415.23 250.897 467.642 275.435 527.607 287.161C589.374 299.091 663.485 298.055 741.927 284.161C748.63 282.973 755.478 281.665 762.277 280.277C834.684 265.48 900.933 241.313 962.582 217.828C979.955 211.224 997.177 204.379 1013.83 197.76C1067.03 176.618 1117.28 156.648 1174.08 143.064C1221.89 131.589 1261.25 130.219 1294.4 138.881C1309.94 142.95 1325.36 149.328 1341.56 158.376C1355.85 166.355 1368.87 175.317 1381.46 183.981C1388.99 189.165 1396.1 194.06 1403.28 198.616C1473.8 243.65 1545.73 290.482 1617.08 337.813L1616.87 337.91Z" fill="#3880FF" fill-opacity="0.5"/>
<path d="M1613.95 336.492C1543.7 288.9 1473.13 241.546 1404.21 195.745C1397.26 191.138 1390.36 186.155 1383.05 180.879C1359.16 163.624 1332.07 144.065 1297.47 135.134C1264 126.507 1224.65 128.764 1177.15 142.03C1127.4 155.91 1081.68 175.508 1037.47 194.462C1015.3 203.966 992.378 213.793 969.02 222.887C932.152 237.255 901.133 248.215 871.396 257.381C834.73 268.683 800.421 277.101 766.513 283.114C759.552 284.349 752.517 285.497 745.606 286.526C709.596 291.884 674.234 294.595 640.406 294.597C638.527 294.597 636.658 294.588 634.789 294.571C595.68 294.222 559.274 290.182 526.583 282.566C510.804 278.869 495.352 274.177 480.659 268.618C466.847 263.394 453.275 257.241 440.318 250.33C417.006 237.896 395.215 222.899 373.703 204.484C372.78 203.692 371.859 202.898 370.944 202.101C358.463 191.235 346.654 179.878 335.236 168.893C328.644 162.553 321.829 155.996 314.964 149.613C293.829 129.949 275.926 115.44 256.907 102.571C254.348 100.841 251.713 99.1053 249.067 97.4122C200.93 66.5997 138.723 42.1305 69.1761 26.6467C-14.6769 7.99949 -99.5769 3.2379 -169.885 13.2371C-241.366 23.4321 -313.117 56.9831 -311.949 101.383L-312.224 101.384C-312.768 80.7037 -297.816 61.0382 -268.987 44.515C-255.956 37.0465 -240.567 30.4999 -223.243 25.0529C-206.387 19.7536 -188.459 15.7286 -169.954 13.0895C-132.853 7.8127 -92.0556 6.58803 -48.6974 9.4501C-9.74698 12.0215 29.9454 17.7592 69.2778 26.5051C138.869 41.9994 201.111 66.4837 249.278 97.3143C251.925 99.0089 254.566 100.746 257.124 102.477C276.151 115.353 294.063 129.867 315.203 149.538C322.068 155.922 328.886 162.479 335.475 168.819C346.893 179.802 358.699 191.159 371.178 202.021C372.093 202.818 373.011 203.612 373.934 204.403C419.644 243.535 469.612 269.057 526.691 282.427C605.748 300.847 689.335 294.745 745.535 286.381C752.44 285.353 759.47 284.206 766.428 282.971C844.414 269.14 915.576 243.53 968.86 222.765C992.216 213.674 1015.14 203.847 1037.3 194.345C1081.52 175.387 1127.25 155.783 1177.03 141.898C1198.28 135.961 1217.51 132.316 1235.83 130.755C1258.41 128.83 1279.19 130.258 1297.58 135C1313.08 139 1328.36 145.429 1344.29 154.654C1358.33 162.782 1371.01 171.936 1383.27 180.79C1390.58 186.064 1397.47 191.046 1404.43 195.651C1473.34 241.451 1543.91 288.805 1614.17 336.397L1613.95 336.492Z" fill="#3880FF" fill-opacity="0.5"/>
<path d="M1611.04 335.071L1405.36 192.775C1398.65 188.128 1391.97 183.071 1384.91 177.719C1361.61 160.055 1335.19 140.036 1300.65 131.252C1267.25 122.759 1226.7 125.992 1180.13 140.861C1135.35 155.155 1094.51 174.164 1055.02 192.547C1029.27 204.53 1002.65 216.92 975.303 227.825C893.096 260.6 821.252 279.958 749.207 288.748C719.32 292.393 689.836 294.228 661.243 294.228C652.576 294.228 643.996 294.059 635.508 293.722C595.475 292.131 558.514 286.783 525.656 277.829C495.202 269.529 467.343 257.813 440.495 242.008C419.055 229.388 398.502 214.343 375.817 194.659C363.844 184.271 352.25 173.478 341.039 163.041C315.663 139.421 289.425 114.997 256.941 93.5014C207.114 60.5318 141.711 34.6767 67.8032 18.7304C-16.5802 0.523089 -101.711 -3.72182 -171.904 6.77898C-239.862 16.9454 -313.622 49.0036 -314.979 95.3692L-315.254 95.3662C-314.647 74.6418 -299.227 54.9793 -270.665 38.5043C-244.839 23.608 -209.791 12.2892 -171.975 6.63287C-134.915 1.08948 -94.0743 -0.403319 -50.5924 2.19816C-11.5486 4.53301 28.3197 10.0493 67.9049 18.5903C104.475 26.4806 139.208 36.8669 171.14 49.4616C203.338 62.1616 232.277 76.945 257.15 93.4019C289.648 114.905 315.894 139.335 341.275 162.961C352.487 173.397 364.081 184.188 376.051 194.575C409.148 223.295 456.079 258.696 525.779 277.691C605.714 299.474 691.367 295.645 749.146 288.597C821.156 279.813 892.967 260.463 975.141 227.699C1002.48 216.8 1029.1 204.41 1054.84 192.43C1094.34 174.043 1135.19 155.03 1179.99 140.729C1226.64 125.834 1267.28 122.598 1300.77 131.114C1316.23 135.047 1331.37 141.531 1347.05 150.942C1360.85 159.225 1373.2 168.581 1385.13 177.628C1392.2 182.98 1398.87 188.034 1405.58 192.68L1611.26 334.976L1611.04 335.071Z" fill="#3880FF" fill-opacity="0.5"/>
<path d="M1609.39 324.132C1557.01 284.512 1512.07 252.362 1467.97 222.957C1446.56 208.672 1424.69 194.612 1402.98 181.166C1396.41 177.099 1389.9 172.772 1383.01 168.192C1365.7 156.679 1347.8 144.774 1327.19 135.939C1316.13 131.187 1305.49 127.784 1294.64 125.536C1261.35 118.569 1222.3 123.176 1178.57 139.229C1155.93 147.524 1135.32 156.965 1118.14 165.105C1099.96 173.723 1082.02 183.227 1064.68 192.417C1039.74 205.628 1013.96 219.287 986.245 231.019C969.381 238.178 952.285 244.576 935.432 250.035C901.714 260.956 865.522 269.955 827.863 276.782C804.596 280.953 781.216 284.106 758.377 286.151C738.693 287.908 718.973 288.921 699.762 289.164C671.009 289.528 642.996 288.138 616.5 285.027C588.327 281.72 561.666 276.44 537.258 269.333C515.494 262.996 494.936 255.016 474.411 244.937C436.164 226.171 405.658 204.472 383.355 187.664C372.399 179.369 361.701 170.909 351.354 162.728C321.563 139.167 293.424 116.914 258.21 97.0917C229.491 81.0309 196.724 67.171 160.81 55.8944C133.211 47.2283 103.195 40.1409 71.5954 34.828C64.0685 33.5642 56.3988 32.3862 48.8061 31.3303C16.1157 26.7916 -20.6858 23.8362 -60.5733 22.5452C-100.788 21.2136 -135.58 22.366 -166.933 26.0716C-184.657 28.1504 -201.83 31.4116 -217.98 35.7635C-274.996 51.1283 -311.607 76.9216 -315.916 104.762L-316.26 104.745C-315.111 97.3237 -311.739 90.0133 -306.24 83.0148C-301.016 76.3673 -293.841 69.9562 -284.916 63.9594C-268.051 52.6316 -244.957 42.8223 -218.131 35.5933C-201.956 31.2339 -184.756 27.9681 -167.004 25.8863C-135.619 22.1777 -100.799 21.0238 -60.5513 22.3569C-20.6418 23.6479 16.1789 26.6064 48.8912 31.148C56.4922 32.2055 64.1647 33.3834 71.6971 34.6488C103.321 39.9647 133.363 47.0581 160.983 55.7317C196.921 67.0158 229.716 80.8878 258.45 96.9591C293.685 116.793 321.83 139.053 351.632 162.62C361.976 170.801 372.674 179.259 383.627 187.553C405.919 204.353 436.411 226.042 474.636 244.796C495.139 254.864 515.675 262.836 537.414 269.166C585.183 283.074 639.8 289.739 699.751 288.976C718.946 288.733 738.652 287.719 758.319 285.964C781.142 283.919 804.505 280.769 827.753 276.601C865.39 269.779 901.56 260.786 935.256 249.871C952.099 244.416 969.183 238.022 986.034 230.868C1013.73 219.143 1039.51 205.486 1064.43 192.28C1081.79 183.088 1099.72 173.581 1117.92 164.96C1135.1 156.816 1155.72 147.372 1178.37 139.071C1197.85 131.923 1216.7 126.985 1234.42 124.393C1256.18 121.208 1276.48 121.534 1294.76 125.36C1305.64 127.615 1316.32 131.027 1327.41 135.79C1348.04 144.638 1365.95 156.551 1383.28 168.071C1390.17 172.65 1396.67 176.977 1403.23 181.041C1424.96 194.488 1446.82 208.55 1468.24 222.838C1512.34 252.246 1557.29 284.399 1609.67 324.022L1609.39 324.132Z" fill="#3880FF" fill-opacity="0.5"/>
<path d="M1607.73 313.19C1559.17 272.9 1513.59 239.184 1468.4 210.119C1446.35 195.922 1423.54 182.274 1400.59 169.556C1394.5 166.182 1388.49 162.675 1382.13 158.963C1363.07 147.848 1343.36 136.355 1321.29 128.402C1310.14 124.37 1299.46 121.562 1288.63 119.818C1247.16 113.136 1205.04 125.795 1177 137.591C1157.14 145.924 1139 155.347 1120.62 165.073C1104.54 173.587 1089.4 182.746 1073.38 192.441C1049.6 206.832 1025.01 221.714 997.188 234.209C980.675 241.664 963.442 248.11 945.968 253.367C913.417 263.161 877.773 270.767 836.998 276.62C814.178 279.895 790.809 282.228 767.539 283.553C747.904 284.657 728.305 285.051 709.284 284.721C680.985 284.236 653.323 282.055 627.063 278.24C599.484 274.231 573.169 268.375 548.852 260.832C527.546 254.225 506.975 246.028 485.961 235.772C447.796 217.174 415.103 196.555 390.887 180.668C381.923 174.788 373.102 168.871 364.57 163.147C330.59 140.352 298.496 118.821 259.48 100.681C230.321 87.1238 197.584 75.6605 162.184 66.6103C135.399 59.7624 107.009 54.6318 75.3958 50.9246C68.0998 50.0705 60.6774 49.3008 53.3375 48.6365C21.0977 45.7337 -13.3102 44.6356 -54.9399 43.4998C-84.9482 42.6397 -124.231 42.0733 -161.97 45.3602C-179.843 46.8876 -197.12 49.5403 -213.325 53.2414C-270.379 66.2759 -309.082 89.046 -316.859 114.154L-317.266 114.116C-315.205 107.458 -311.028 100.928 -304.858 94.7053C-298.978 88.7763 -291.25 83.0913 -281.893 77.804C-264.111 67.7597 -240.456 59.193 -213.484 53.032C-197.249 49.3234 -179.939 46.6662 -162.036 45.1357C-124.261 41.8443 -84.9483 42.4122 -54.9207 43.2723C-13.2772 44.4081 21.1417 45.5063 53.4034 48.4105C60.7489 49.0763 68.1768 49.8461 75.481 50.7002C107.124 54.4118 135.542 59.547 162.357 66.4024C197.792 75.4616 230.557 86.934 259.747 100.505C298.79 118.658 330.898 140.196 364.888 162.999C373.418 168.722 382.239 174.639 391.203 180.518C415.413 196.398 448.093 217.009 486.235 235.599C507.225 245.844 527.774 254.033 549.055 260.632C596.871 275.462 650.787 283.489 709.297 284.493C728.303 284.821 747.882 284.428 767.498 283.324C790.746 282.001 814.096 279.671 836.893 276.397C877.635 270.55 913.25 262.95 945.772 253.165C963.225 247.914 980.436 241.477 996.93 234.03C1024.73 221.545 1049.31 206.67 1073.08 192.285C1089.11 182.586 1104.24 173.426 1120.34 164.907C1138.72 155.175 1156.87 145.75 1176.76 137.407C1194.93 129.76 1212.86 124.259 1230.04 121.053C1250.88 117.167 1270.63 116.677 1288.75 119.596C1299.62 121.348 1310.34 124.165 1321.52 128.21C1343.63 136.177 1363.36 147.681 1382.43 158.805C1388.79 162.515 1394.81 166.021 1400.89 169.393C1423.85 182.116 1446.66 195.768 1468.71 209.97C1513.92 239.043 1559.51 272.764 1608.07 313.064L1607.73 313.19Z" fill="#3880FF" fill-opacity="0.5"/>
<path d="M1606.07 302.248C1560.62 260.74 1515.73 226.406 1468.82 197.283C1446.15 183.173 1422.39 169.94 1398.21 157.948C1393.05 155.384 1387.72 152.663 1382.58 150.033C1361.34 139.167 1339.37 127.931 1315.38 120.867C1304.12 117.529 1293.41 115.315 1282.63 114.099C1241.25 109.431 1201.5 123.407 1175.45 135.952C1157.78 144.421 1141.64 154.019 1126.03 163.303L1123.1 165.041C1108.92 173.463 1095.63 182.7 1081.55 192.481C1059.13 208.055 1035.94 224.158 1008.13 237.399C991.947 245.16 974.577 251.654 956.501 256.7C924.984 265.499 889.908 271.777 846.124 276.459C823.483 278.879 800.125 280.392 776.695 280.952C757.11 281.403 737.632 281.177 718.797 280.277C661.776 277.567 608.497 268.165 560.44 252.331C539.665 245.487 519.08 237.074 497.51 226.607C461.008 208.933 428.543 190.767 398.422 173.674C394.383 171.383 390.387 169.107 386.422 166.849C345.281 143.427 306.424 121.303 260.758 104.275C230.944 93.1579 198.24 84.0927 163.558 77.3292C138.094 72.3642 110.499 68.993 79.1989 67.0227C72.1448 66.5813 64.9697 66.2183 57.8716 65.9441C40.015 65.2663 21.0757 65.1563 1.02338 65.0403C-15.0828 64.9469 -31.7357 64.8505 -49.3093 64.4574C-83.2501 63.6334 -121.717 62.7009 -157.012 64.6532C-175.223 65.6609 -192.605 67.7036 -208.675 70.7253C-265.707 81.4505 -306.504 101.2 -317.807 123.556L-318.271 123.485C-315.293 117.591 -310.313 111.841 -303.473 106.396C-296.933 101.188 -288.656 96.2264 -278.873 91.6486C-260.162 82.8936 -235.941 75.5728 -208.834 70.4752C-192.728 67.446 -175.311 65.3988 -157.065 64.3896C-121.733 62.4358 -83.2473 63.3698 -49.2928 64.1937C-31.7303 64.5854 -15.0773 64.6833 1.02338 64.7767C21.0839 64.8927 40.0287 65.0027 57.9018 65.682C65.0054 65.9577 72.1888 66.3207 79.2484 66.7621C110.587 68.7339 138.215 72.1096 163.714 77.0821C198.438 83.8532 231.178 92.929 261.024 104.058C306.732 121.101 345.608 143.235 386.765 166.668C390.731 168.926 394.729 171.201 398.766 173.493C428.881 190.583 461.335 208.745 497.826 226.413C519.374 236.867 539.937 245.273 560.687 252.109C608.681 267.922 661.891 277.311 718.838 280.018C737.651 280.916 757.11 281.142 776.673 280.692C800.078 280.131 823.414 278.62 846.03 276.203C889.771 271.525 924.805 265.254 956.281 256.468C974.319 251.432 991.656 244.95 1007.81 237.203C1035.59 223.979 1058.76 207.885 1081.16 192.32C1095.25 182.534 1108.56 173.293 1122.74 164.865L1125.67 163.127C1141.29 153.838 1157.44 144.234 1175.12 135.756C1201.26 123.171 1241.15 109.154 1282.72 113.843C1293.55 115.065 1304.31 117.287 1315.61 120.638C1339.65 127.717 1361.64 138.965 1382.9 149.844C1388.05 152.474 1393.37 155.194 1398.53 157.756C1422.72 169.755 1446.49 182.995 1469.18 197.113C1516.1 226.247 1561.01 260.594 1606.47 302.115L1606.07 302.248Z" fill="#3880FF" fill-opacity="0.5"/>
<path d="M1604.41 291.303C1562.68 249.169 1517.21 213.216 1469.26 184.448C1445.94 170.427 1421.24 157.606 1395.84 146.342C1392.17 144.715 1388.41 143.026 1384.78 141.393C1360.77 130.606 1335.94 119.45 1309.49 113.335C1298.14 110.682 1287.4 109.062 1276.64 108.382C1235.37 105.773 1197.99 121.043 1173.89 134.312C1158.93 142.51 1145.42 151.626 1132.36 160.443C1130.1 161.969 1127.84 163.492 1125.58 165.008C1113.16 173.342 1101.54 182.651 1089.25 192.505C1068.34 209.259 1046.72 226.582 1019.08 240.591C1002.84 248.818 985.819 255.177 967.033 260.037C927.742 270.2 888.476 273.962 855.25 276.302C832.776 277.884 809.429 278.577 785.851 278.357C766.326 278.154 746.967 277.306 728.313 275.839C673.004 271.499 620.423 260.731 572.033 243.835C551.899 236.806 531.302 228.174 509.063 217.448C486.598 206.638 465.663 196.237 445.416 186.177C431.656 179.34 418.658 172.882 405.965 166.687C357.985 143.266 314.036 122.674 262.046 107.872C231.592 99.2034 198.921 92.5333 164.939 88.0488C140.584 84.8343 114.549 83.2692 83.01 83.1201C76.2059 83.0929 69.2754 83.1366 62.4136 83.2511C51.9903 83.4364 41.2071 83.8235 29.7946 84.2348C7.89291 85.0226 -16.9354 85.9159 -43.6791 85.4157C-53.8633 85.2244 -64.2535 84.9548 -74.303 84.6927C-100.151 84.0193 -126.878 83.3234 -152.058 83.9455C-170.55 84.4035 -188.038 85.8375 -204.031 88.2085C-260.968 96.6516 -303.856 113.383 -318.761 132.964L-319.27 132.848C-315.367 127.72 -309.586 122.752 -302.086 118.081C-294.884 113.595 -286.057 109.358 -275.856 105.488C-256.2 98.0315 -231.415 91.9563 -204.18 87.9178C-188.148 85.5408 -170.621 84.1022 -152.088 83.6443C-126.881 83.0206 -100.143 83.7181 -74.281 84.3914C-64.2343 84.6535 -53.844 84.9232 -43.6626 85.1145C-16.9437 85.6146 7.86545 84.7228 29.7561 83.935C41.1742 83.5238 51.9601 83.1366 62.3943 82.9513C69.2644 82.8369 76.2004 82.7932 83.0127 82.8203C114.596 82.9679 140.669 84.5375 165.066 87.7566C199.089 92.2471 231.804 98.9247 262.296 107.606C285.781 114.291 309.578 122.761 335.05 133.499C357.853 143.111 380.035 153.628 406.328 166.462C419.021 172.659 432.019 179.117 445.781 185.954C466.026 196.012 486.96 206.414 509.42 217.222C531.638 227.938 552.212 236.56 572.322 243.581C620.646 260.456 673.152 271.208 728.385 275.542C747.016 277.007 766.351 277.854 785.854 278.057C809.404 278.277 832.727 277.586 855.173 276.004C888.358 273.668 927.572 269.911 966.794 259.766C985.527 254.92 1002.5 248.577 1018.7 240.371C1046.29 226.386 1067.9 209.077 1088.79 192.337C1101.09 182.476 1112.71 173.162 1125.15 164.82C1127.41 163.303 1129.67 161.78 1131.93 160.256C1145 151.433 1158.51 142.311 1173.49 134.103C1189.17 125.47 1205.26 118.828 1221.3 114.363C1240.3 109.075 1258.94 106.963 1276.69 108.086C1287.5 108.77 1298.3 110.397 1309.7 113.06C1336.21 119.193 1361.07 130.362 1385.11 141.163C1388.75 142.796 1392.5 144.484 1396.17 146.11C1421.59 157.383 1446.31 170.216 1469.65 184.248C1495.11 199.524 1520.05 216.928 1543.76 235.977C1564.72 252.814 1585.29 271.381 1604.88 291.161L1604.41 291.303Z" fill="#3880FF" fill-opacity="0.5"/>
<path d="M1602.75 280.357C1564.13 237.015 1519.36 200.429 1469.69 171.614C1445.74 157.681 1420.09 145.275 1393.47 134.737C1392.2 134.235 1390.93 133.733 1389.66 133.23C1361.98 122.258 1333.35 110.912 1303.61 105.804C1292.09 103.825 1281.31 102.799 1270.66 102.666C1229.56 102.157 1194.51 118.703 1172.35 132.671C1159.31 140.843 1147.73 149.8 1136.53 158.462C1133.77 160.604 1130.9 162.818 1128.08 164.975C1117.31 173.191 1107.31 182.532 1096.72 192.422C1077.45 210.413 1057.53 229.015 1030.03 243.783C1014.12 252.327 996.96 258.735 977.573 263.375C939.378 272.514 900.595 274.913 864.377 276.146C842.043 276.905 818.704 276.775 795.008 275.762C775.547 274.903 756.311 273.434 737.83 271.398C684.403 265.523 632.521 253.391 583.631 235.337C564.051 228.108 544.029 219.513 520.624 208.287C476.142 187.012 443.111 172.026 413.526 159.7C354.683 135.184 309.772 120.761 263.36 111.472C232.289 105.254 199.65 100.981 166.347 98.7694C143.242 97.2359 118.721 97.373 86.8444 99.2183C80.3123 99.6009 73.6292 100.051 66.979 100.559C60.697 101.046 54.3161 101.603 47.5587 102.192C22.6095 104.369 -5.67038 106.836 -38.0365 106.375C-55.0962 106.132 -72.5214 105.468 -89.3722 104.826C-108.523 104.097 -128.325 103.343 -147.1 103.24C-165.924 103.138 -183.519 103.963 -199.384 105.696C-256.13 111.888 -301.115 125.604 -319.717 142.383L-320.244 142.207C-315.413 137.847 -308.829 133.661 -300.675 129.764C-292.805 126.001 -283.434 122.49 -272.822 119.325C-252.206 113.176 -226.853 108.347 -199.505 105.363C-183.596 103.627 -165.962 102.799 -147.094 102.901C-128.303 103.004 -108.49 103.758 -89.331 104.489C-72.4857 105.131 -55.0688 105.795 -38.0228 106.038C-5.71436 106.497 22.5353 104.033 47.457 101.859C54.2172 101.268 60.6035 100.713 66.8882 100.225C73.5467 99.7169 80.2354 99.2665 86.7729 98.8824C118.699 97.0356 143.261 96.897 166.416 98.435C199.766 100.649 232.451 104.929 263.567 111.156C310.041 120.456 354.999 134.895 413.894 159.432C443.49 171.763 476.532 186.753 521.026 208.034C544.414 219.251 564.414 227.837 583.972 235.058C632.796 253.086 684.601 265.202 737.948 271.068C756.404 273.101 775.618 274.567 795.052 275.426C818.721 276.438 842.03 276.567 864.335 275.81C900.499 274.579 939.216 272.185 977.323 263.067C996.639 258.446 1013.74 252.059 1029.59 243.545C1057.03 228.808 1076.94 210.226 1096.18 192.255C1106.78 182.359 1116.79 173.01 1127.57 164.782C1130.4 162.627 1133.26 160.412 1136.03 158.27C1147.23 149.601 1158.82 140.639 1171.88 132.453C1186.34 123.337 1201.51 116.126 1216.95 111.019C1235.03 105.037 1253.11 102.117 1270.67 102.332C1281.39 102.464 1292.22 103.496 1303.8 105.485C1333.63 110.611 1362.3 121.972 1390.02 132.961C1391.29 133.464 1392.56 133.967 1393.83 134.467C1420.48 145.017 1446.16 157.439 1470.14 171.386C1519.85 200.227 1564.66 236.842 1603.3 280.214L1602.75 280.357Z" fill="#3880FF" fill-opacity="0.5"/>
<path d="M878.05 275.989C876.509 275.989 874.989 275.987 873.494 275.983C851.276 275.931 827.946 274.982 804.156 273.16C784.766 271.646 765.651 269.557 747.341 266.952C721.18 263.237 694.925 257.899 669.3 251.086C644.554 244.506 619.632 236.347 595.224 226.835C571.309 217.515 548.97 207.13 532.18 199.124C492.894 180.442 455.515 164.827 421.083 152.712C365.314 133.09 315.616 121.128 264.677 115.068C233.945 111.412 200.975 109.484 169.23 109.484C168.738 109.484 168.249 109.484 167.757 109.485C140.485 109.536 114.594 112.314 90.6803 115.309C84.4561 116.094 78.0175 116.951 71.5431 117.859C67.9955 118.362 64.4423 118.88 60.683 119.429C34.1674 123.302 4.11227 127.69 -32.4006 127.33C-54.6376 127.11 -77.3499 125.847 -99.3148 124.626C-113.497 123.836 -128.161 123.021 -142.148 122.529C-161.376 121.852 -179.071 122.069 -194.745 123.176C-251.189 127.159 -298.271 137.86 -320.692 151.803L-321.209 151.555C-309.709 144.404 -292.41 138.213 -269.794 133.152C-248.194 128.319 -222.272 124.74 -194.833 122.804C-179.117 121.696 -161.376 121.476 -142.104 122.155C-128.103 122.648 -113.431 123.464 -99.2434 124.254C-77.2922 125.475 -54.5936 126.738 -32.3869 126.956C4.03256 127.316 34.0354 122.934 60.5071 119.069C64.2691 118.519 67.8223 118.001 71.3727 117.498C77.8526 116.589 84.2967 115.731 90.5264 114.946C114.481 111.947 140.417 109.164 167.754 109.112C200.005 109.05 233.566 110.984 264.822 114.703C291.112 117.832 316.6 122.437 342.737 128.782C367.909 134.893 393.657 142.618 421.451 152.398C455.911 164.523 493.317 180.15 532.627 198.844C549.404 206.845 571.726 217.223 595.617 226.532C645.145 245.834 696.25 259.312 747.511 266.592C765.797 269.194 784.887 271.28 804.25 272.792C828.009 274.612 851.307 275.561 873.494 275.611C908.213 275.689 948.526 275.047 987.845 266.363C1007.75 261.968 1024.96 255.54 1040.48 246.714C1067.73 231.214 1085.8 211.319 1103.27 192.079C1112.26 182.182 1120.75 172.833 1129.98 164.741C1132.94 162.149 1135.92 159.478 1138.81 156.895C1148.56 148.167 1158.64 139.144 1170.25 130.803C1183.52 121.208 1197.77 113.424 1212.58 107.67C1229.76 100.998 1247.27 97.2657 1264.63 96.5758C1275.34 96.1495 1286.22 96.5848 1297.87 97.9074C1329.04 101.441 1359.93 111.709 1391.47 122.821C1418.96 132.51 1446.33 144.854 1470.61 158.522C1497.57 173.659 1522.91 191.417 1545.92 211.303C1566.41 229.019 1585.18 248.52 1601.71 269.266L1601.08 269.416C1565.59 224.865 1521.53 187.642 1470.12 158.785C1445.87 145.138 1418.55 132.811 1391.09 123.139C1359.61 112.046 1328.78 101.798 1297.73 98.2764C1286.14 96.9614 1275.33 96.5291 1264.68 96.9524C1232.78 98.2222 1199.44 110.324 1170.8 131.032C1159.21 139.358 1149.13 148.373 1139.39 157.092C1136.51 159.677 1133.52 162.349 1130.56 164.942C1121.35 173.019 1112.87 182.36 1103.89 192.247C1095.31 201.688 1086.45 211.45 1076.28 220.835C1064.74 231.474 1053.2 240.024 1040.98 246.976C1025.39 255.841 1008.1 262.297 988.103 266.714C970.469 270.609 951.516 273.184 930.161 274.588C912.076 275.77 893.912 275.989 878.05 275.989Z" fill="#3880FF" fill-opacity="0.5"/>
<path d="M922.117 276.745C908.105 276.745 894.645 276.287 882.604 275.823C860.463 274.97 837.143 273.2 813.296 270.561C793.988 268.393 774.994 265.685 756.84 262.508C707.132 253.827 658.055 239.376 606.807 218.334C584.457 209.159 563.388 199.286 543.729 189.962C504.916 171.607 466.196 156.724 428.639 145.725C373.404 129.548 321.725 120.948 266.001 118.662C234.25 117.359 200.768 117.89 169.172 120.198C142.725 122.129 117.792 126.79 94.5162 131.396C88.6931 132.555 82.4991 133.82 76.11 135.156C74.5134 135.492 72.903 135.834 71.2707 136.179C44.4638 141.861 14.1312 148.29 -24.7972 148.29C-25.454 148.29 -26.108 148.289 -26.7703 148.284C-53.1073 148.138 -79.9966 146.077 -106.004 144.083C-116.314 143.292 -126.977 142.476 -137.208 141.814C-157.191 140.525 -174.498 140.144 -190.121 140.653C-246.941 142.506 -294.903 150.001 -321.701 161.222L-322.16 160.892C-308.912 155.346 -289.756 150.53 -266.768 146.966C-244.158 143.461 -217.67 141.135 -190.167 140.239C-174.501 139.728 -157.15 140.109 -137.122 141.402C-126.881 142.063 -116.216 142.881 -105.902 143.67C-79.9197 145.662 -53.0551 147.721 -26.7675 147.867C12.9715 148.09 43.7988 141.554 70.9932 135.789C72.6227 135.444 74.2358 135.102 75.8324 134.765C82.2271 133.427 88.4238 132.162 94.2524 131.003C117.567 126.388 142.546 121.721 169.064 119.784C200.711 117.473 234.247 116.94 266.05 118.244C293.665 119.377 319.994 122.052 346.54 126.421C373.88 130.92 400.849 137.113 428.988 145.356C466.592 156.37 505.361 171.271 544.215 189.644C563.866 198.965 584.922 208.832 607.252 217.998C658.431 239.012 707.434 253.441 757.063 262.109C775.189 265.28 794.158 267.985 813.439 270.15C837.253 272.786 860.54 274.554 882.647 275.404C919.85 276.835 959.427 277.57 998.361 269.651C1018.85 265.483 1036.18 259.015 1051.36 249.876C1078.39 233.597 1095.22 211.391 1110.07 191.8C1117.54 181.942 1124.59 172.631 1132.38 164.694C1135.19 161.831 1138.02 158.871 1140.75 156.009C1149.3 147.053 1158.14 137.794 1168.61 129.146C1180.72 119.071 1194.04 110.716 1208.21 104.311C1224.48 96.9551 1241.42 92.412 1258.57 90.8107C1269.29 89.809 1280.21 89.6493 1291.94 90.3181C1324.71 92.1905 1358 101.443 1389.1 111.163C1417.81 120.138 1446.16 132.062 1471.07 145.647C1498.79 160.713 1524.33 178.649 1546.98 198.953C1567.24 217.111 1585.11 237.079 1600.12 258.307L1599.42 258.456C1567.52 213.335 1522.95 174.427 1470.54 145.939C1445.67 132.38 1417.38 120.478 1388.72 111.522C1357.7 101.824 1324.5 92.5942 1291.86 90.7293C1280.2 90.0635 1269.36 90.2232 1258.71 91.2174C1227.04 94.1744 1195.27 107.724 1169.25 129.372C1158.8 138.002 1149.97 147.252 1141.42 156.199C1138.69 159.062 1135.86 162.022 1133.05 164.889C1125.28 172.808 1118.23 182.109 1110.77 191.956C1095.9 211.578 1079.04 233.819 1051.92 250.153C1036.66 259.342 1019.23 265.846 998.625 270.038C980.746 273.675 961.461 275.781 939.661 276.472C933.766 276.668 927.896 276.745 922.117 276.745Z" fill="#3880FF" fill-opacity="0.5"/>
<path d="M949.776 278.375C949.575 278.375 949.377 278.375 949.177 278.375C929.374 278.348 909.932 277.019 891.713 275.66C869.605 274.012 846.299 271.42 822.438 267.958C803.218 265.14 784.345 261.809 766.345 258.062C718.623 248.139 671.613 232.815 618.398 209.833C599.233 201.558 580.373 192.648 562.132 184.033C559.851 182.955 557.568 181.878 555.284 180.801C516.27 162.45 476.207 148.298 436.21 138.739C381.439 125.65 326.201 120.257 267.339 122.253C235.063 123.348 201.611 126.341 170.6 130.909C146.132 134.513 124.329 140.296 98.3657 147.482C93.1032 148.944 87.4836 150.523 80.685 152.451L80.3057 152.56C67.1894 156.304 52.3227 160.548 35.6477 163.774C16.4968 167.48 -2.08258 169.264 -21.1346 169.242C-50.8434 169.202 -81.1623 166.171 -110.481 163.238C-117.664 162.52 -125.095 161.777 -132.267 161.105C-152.836 159.181 -170.248 158.21 -185.496 158.136C-241.644 157.865 -291.663 162.426 -322.727 170.648L-323.084 170.241C-307.868 166.213 -287.343 162.944 -263.73 160.787C-240.072 158.626 -213.015 157.553 -185.488 157.686C-170.195 157.759 -152.74 158.733 -132.127 160.661C-124.949 161.333 -117.519 162.075 -110.332 162.794C-81.0496 165.722 -50.7692 168.75 -21.1318 168.791C-20.9999 168.791 -20.8653 168.791 -20.7334 168.791C21.6603 168.791 53.9577 159.572 79.9265 152.159L80.3084 152.05C87.1098 150.121 92.7295 148.542 97.9947 147.079C124.002 139.882 145.843 134.089 170.388 130.473C201.452 125.897 234.959 122.899 267.289 121.803C296.094 120.827 323.263 121.571 350.356 124.08C379.551 126.784 407.743 131.443 436.539 138.326C476.614 147.903 516.746 162.078 555.823 180.459C558.106 181.536 560.39 182.614 562.671 183.693C580.904 192.305 599.758 201.212 618.906 209.48C672.053 232.434 718.994 247.737 766.637 257.643C784.612 261.386 803.458 264.711 822.65 267.526C846.478 270.983 869.751 273.571 891.823 275.216C931.358 278.165 970.064 280.211 1008.89 272.957C1029.97 269.019 1047.42 262.51 1062.25 253.056C1089.05 235.979 1103.68 212.315 1116.6 191.436C1122.64 181.661 1128.35 172.427 1134.79 164.668C1137.27 161.682 1139.76 158.594 1142.16 155.607C1149.68 146.268 1157.46 136.612 1166.99 127.507C1177.96 116.949 1190.36 108.02 1203.85 100.967C1219.22 92.929 1235.59 87.5784 1252.53 85.0658C1263.03 83.5082 1273.74 82.749 1285.26 82.749C1285.51 82.749 1285.76 82.749 1286.01 82.7505C1321.81 82.853 1358.64 91.7676 1386.74 99.5223C1416.67 107.785 1446 119.287 1471.56 132.787C1500.03 147.784 1525.77 165.897 1548.06 186.623C1568.07 205.222 1585.05 225.658 1598.54 247.368L1597.76 247.514C1577.69 215.212 1539.39 169.145 1470.98 133.114C1445.49 119.644 1416.22 108.169 1386.37 99.926C1358.35 92.1924 1321.63 83.3034 1286.01 83.2024C1274.28 83.1648 1263.4 83.921 1252.74 85.5026C1221.37 90.1588 1191.17 105.156 1167.7 127.732C1158.19 136.815 1150.43 146.46 1142.92 155.789C1140.51 158.778 1138.02 161.867 1135.54 164.854C1129.12 172.594 1123.41 181.816 1117.38 191.58C1104.44 212.497 1089.78 236.206 1062.88 253.35C1047.95 262.867 1030.38 269.42 1009.16 273.383C991.18 276.74 971.746 278.375 949.776 278.375Z" fill="#3880FF" fill-opacity="0.5"/>
<path d="M971.77 280.495C967.505 280.495 963.146 280.42 958.684 280.27C939.151 279.611 920.167 277.636 900.821 275.497C878.395 273.018 855.746 269.701 831.579 265.357C812.459 261.889 793.709 257.939 775.85 253.615C730.543 242.66 685.558 226.535 629.991 201.33C616.19 195.072 602.395 188.507 589.053 182.158C581.79 178.702 574.283 175.127 566.844 171.637C527.366 153.163 485.964 139.745 443.788 131.752C388.061 121.191 330.786 119.257 268.687 125.84C235.878 129.318 202.457 134.772 172.039 141.613C147.604 147.108 126.317 154.825 103.781 162.995L102.223 163.56C98.7026 164.841 95.144 166.139 91.5414 167.453C89.4666 168.21 87.3781 168.972 85.2704 169.741C72.1293 174.557 57.9359 179.58 41.6593 183.447C22.7612 187.936 4.06918 190.144 -15.4912 190.199C-48.0552 190.286 -81.2705 186.137 -113.389 182.121C-117.973 181.548 -122.716 180.956 -127.319 180.394C-148.899 177.758 -165.912 176.241 -180.867 175.617C-236.053 173.317 -288.133 174.938 -323.758 180.065L-323.986 179.592C-288.268 174.451 -236.08 172.824 -180.798 175.129C-165.802 175.754 -148.745 177.276 -127.124 179.916C-122.518 180.48 -117.775 181.072 -113.189 181.645C-81.4628 185.612 -48.668 189.71 -16.5354 189.71C-16.1892 189.71 -15.8429 189.71 -15.4939 189.709C26.0671 189.594 55.6522 180.005 84.7784 169.334C86.8862 168.566 88.9747 167.804 91.0494 167.046C94.6521 165.731 98.208 164.434 101.731 163.152L103.289 162.587C125.864 154.403 147.186 146.672 171.701 141.159C202.174 134.305 235.653 128.842 268.519 125.357C330.775 118.758 388.203 120.698 444.082 131.288C486.363 139.302 527.86 152.751 567.426 171.265C574.865 174.757 582.376 178.33 589.639 181.787C602.975 188.135 616.767 194.698 630.559 200.952C686.061 226.128 730.983 242.231 776.21 253.167C794.044 257.484 812.767 261.43 831.86 264.891C855.99 269.229 878.606 272.542 901 275.017C934.993 278.775 977.299 283.454 1019.43 276.248C1041.09 272.543 1058.66 265.994 1073.14 256.224C1099.68 238.328 1111.98 213.158 1122.84 190.953C1127.55 181.307 1132.01 172.195 1137.21 164.633C1139.23 161.686 1141.26 158.639 1143.23 155.691C1149.81 145.805 1156.62 135.583 1165.36 125.861C1175.23 114.811 1186.71 105.308 1199.48 97.6134C1213.96 88.8947 1229.77 82.7382 1246.48 79.3142C1257.2 77.1165 1268.19 75.7623 1280.08 75.1733C1295.99 74.3839 1312.93 75.2275 1331.87 77.7461C1347.89 79.8791 1365.06 83.1901 1384.38 87.8703C1415.52 95.4187 1445.83 106.501 1472.03 119.918C1501.27 134.844 1527.21 153.136 1549.14 174.282C1568.89 193.324 1584.98 214.229 1596.96 236.42L1596.1 236.558C1570.8 189.71 1526.53 148.414 1471.42 120.277C1445.29 106.896 1415.07 95.845 1384.01 88.3192C1342.4 78.2357 1309.4 74.2122 1280.15 75.6613C1268.35 76.2458 1257.44 77.591 1246.79 79.7722C1207.04 87.917 1181 109.449 1166.16 126.076C1157.44 135.774 1150.64 145.984 1144.06 155.858C1142.1 158.808 1140.07 161.856 1138.04 164.804C1132.86 172.344 1128.41 181.445 1123.7 191.08C1112.82 213.333 1100.49 238.556 1073.84 256.532C1059.24 266.379 1041.53 272.982 1019.69 276.716C1004.89 279.247 989.112 280.495 971.77 280.495Z" fill="#3880FF" fill-opacity="0.5"/>
<path d="M990.823 282.927C961.763 282.927 933.824 278.834 909.922 275.333C887.435 272.04 864.797 267.925 840.713 262.754C821.699 258.641 803.071 254.071 785.346 249.168C732.213 234.487 684.845 213.414 641.575 192.829C632.74 188.626 623.815 184.294 615.186 180.104C603.205 174.287 590.814 168.272 578.398 162.476C538.329 143.819 495.59 131.131 451.368 124.764C394.163 116.529 334.847 118.052 270.032 129.422C236.66 135.275 203.272 143.191 173.475 152.314C150.494 159.348 131.049 168.23 110.463 177.632C109.004 178.298 107.542 178.967 106.072 179.636L105.275 180C100.271 182.289 95.0963 184.654 89.8503 187.028C77.2809 192.741 63.4391 198.651 47.4292 203.165C28.8443 208.406 10.1083 211.019 -9.85602 211.155C-44.8987 211.394 -80.6147 205.994 -115.152 200.772C-117.573 200.406 -119.983 200.041 -122.382 199.681C-145.157 196.256 -161.772 194.225 -176.248 193.095C-230.049 188.898 -284.196 187.579 -324.806 189.475L-324.889 188.95C-284.213 187.049 -229.986 188.37 -176.114 192.572C-161.596 193.705 -144.946 195.74 -122.129 199.172C-119.73 199.532 -117.32 199.896 -114.896 200.264C-80.4251 205.476 -44.7778 210.863 -9.86975 210.628C33.4857 210.332 64.019 198.081 89.2347 186.621C94.4807 184.247 99.6552 181.882 104.659 179.595L105.456 179.231C106.926 178.56 108.388 177.893 109.848 177.227C130.469 167.808 149.947 158.911 173.005 151.853C202.857 142.714 236.309 134.784 269.738 128.92C300.467 123.53 329.329 120.418 357.972 119.406C389.923 118.278 421.426 119.909 451.61 124.255C495.971 130.642 538.838 143.366 579.019 162.073C591.443 167.873 603.837 173.889 615.821 179.708C624.45 183.897 633.37 188.228 642.202 192.429C685.428 212.993 732.738 234.042 785.775 248.696C803.475 253.592 822.076 258.156 841.062 262.262C865.11 267.426 887.712 271.536 910.166 274.824C944.643 279.873 987.551 286.158 1029.95 279.545C1052.19 276.074 1069.88 269.484 1084.02 259.397C1110.28 240.66 1120.11 213.942 1128.78 190.367C1132.26 180.895 1135.55 171.949 1139.61 164.602C1141.11 161.885 1142.61 159.077 1144.07 156.361C1149.77 145.738 1155.66 134.753 1163.72 124.219C1172.49 112.669 1183.05 102.589 1195.09 94.2603C1208.69 84.8621 1223.93 77.8997 1240.41 73.566C1251.11 70.7521 1262.14 68.8014 1274.12 67.6008C1290.27 65.9845 1308.19 66.0387 1327.38 67.762C1344.18 69.2713 1362.56 72.1168 1381.99 76.2217C1414.35 83.056 1445.65 93.7165 1472.49 107.051C1502.48 121.908 1528.63 140.376 1550.2 161.944C1569.69 181.428 1584.89 202.804 1595.37 225.474L1594.43 225.604C1572.23 177.566 1528.7 135.602 1471.85 107.442C1445.09 94.1518 1413.9 83.526 1381.65 76.7142C1339.84 67.8855 1304.73 65.0731 1274.3 68.1205C1262.4 69.312 1251.45 71.2492 1240.82 74.042C1201.62 84.353 1177.74 107.129 1164.61 124.422C1156.57 134.929 1150.68 145.9 1144.99 156.509C1143.54 159.225 1142.03 162.034 1140.53 164.755C1136.48 172.077 1133.2 181.011 1129.72 190.471C1125.55 201.812 1120.82 214.666 1113.96 226.717C1106.1 240.524 1096.55 251.319 1084.78 259.718C1077.98 264.575 1070.16 268.708 1061.54 272.004C1052.26 275.548 1041.72 278.257 1030.21 280.052C1017.04 282.109 1003.82 282.927 990.823 282.927Z" fill="#3880FF" fill-opacity="0.5"/>
<path d="M1008 285.594C998.392 285.594 988.326 285.082 977.694 284.059C956.754 282.045 936.71 278.39 919.024 275.168C896.732 271.106 873.456 266.052 849.848 260.148C830.955 255.397 812.448 250.206 794.844 244.717C744.316 228.98 700.785 208.056 653.161 184.325C648.929 182.216 644.631 180.065 640.477 177.983C624.112 169.79 607.193 161.318 589.954 153.313C549.22 134.439 505.145 122.483 458.951 117.777C400.682 111.84 337.571 116.962 271.379 133.001C237.414 141.232 204.056 151.608 174.913 163.01C152.97 171.594 134.907 181.715 115.784 192.432C113.841 193.521 111.89 194.613 109.928 195.71C105.045 198.442 99.7849 201.375 94.4345 204.311C83.2143 210.488 69.5402 217.528 53.2032 222.88C34.9152 228.872 16.1325 231.892 -4.21384 232.111C-41.4605 232.513 -79.3749 225.752 -116.042 219.215L-117.438 218.966C-135.39 215.767 -154.382 212.534 -171.623 210.571C-224.176 204.589 -278.947 200.436 -325.842 198.877L-325.779 198.314C-278.834 199.875 -224.014 204.031 -171.414 210.018C-154.124 211.987 -135.099 215.224 -117.119 218.428L-115.723 218.677C-79.1358 225.199 -41.2983 231.943 -4.23306 231.544C38.5728 231.083 68.136 217.99 93.7062 203.909C99.0566 200.974 104.311 198.041 109.194 195.31C111.156 194.215 113.107 193.122 115.05 192.034C134.207 181.3 152.302 171.16 174.317 162.547C203.514 151.123 236.936 140.728 270.964 132.482C302.02 124.958 332.58 119.773 361.792 117.073C395.169 113.99 427.923 114.038 459.143 117.218C505.513 121.942 549.751 133.94 590.622 152.879C607.874 160.892 624.802 169.366 641.174 177.564C645.329 179.644 649.627 181.795 653.859 183.904C701.436 207.613 744.921 228.515 795.358 244.225C812.937 249.705 831.417 254.888 850.282 259.633C873.857 265.528 897.095 270.574 919.354 274.63C954.245 280.99 997.669 288.903 1040.49 282.84C1063.33 279.606 1081.13 272.976 1094.91 262.571C1120.88 242.965 1128.4 213.415 1134.44 189.671C1136.79 180.422 1139.01 171.686 1142.03 164.576C1142.97 162.335 1143.93 160.025 1144.86 157.792C1149.67 146.187 1154.64 134.185 1162.11 122.581C1173.63 104.521 1195.52 80.3619 1234.36 67.8245C1245.08 64.3629 1256.15 61.8142 1268.19 60.0336C1299.68 55.3082 1337.18 56.8372 1379.63 64.5753C1413.21 70.6956 1445.48 80.9343 1472.97 94.1857C1503.72 108.972 1530.07 127.618 1551.28 149.609C1561.02 159.696 1569.61 170.469 1576.85 181.63C1583.76 192.29 1589.45 203.36 1593.79 214.533L1592.78 214.65C1573.69 165.42 1530.9 122.788 1472.29 94.609C1444.9 81.4073 1412.75 71.2078 1379.3 65.1101C1337.05 57.4066 1299.75 55.8821 1268.46 60.5774C1256.51 62.3444 1245.53 64.8736 1234.88 68.3096C1196.3 80.7596 1174.54 104.795 1163.08 122.766C1155.63 134.341 1150.67 146.325 1145.86 157.915C1144.94 160.149 1143.98 162.46 1143.03 164.703C1140.03 171.789 1137.81 180.512 1135.46 189.747C1132.42 201.696 1128.98 215.238 1123.09 228.019C1116.33 242.706 1107.38 254.117 1095.75 262.902C1089.11 267.914 1081.34 272.14 1072.67 275.463C1063.32 279.044 1052.58 281.71 1040.74 283.385C1030.35 284.859 1019.5 285.594 1008 285.594Z" fill="#3880FF" fill-opacity="0.5"/>
<path d="M1023.83 288.413C1012.31 288.413 1000.17 287.595 987.198 285.955C966.182 283.299 945.962 278.892 928.122 275.002C905.662 270.107 882.4 264.233 858.982 257.544C840.213 252.158 821.828 246.347 804.34 240.269C756.217 223.556 714.942 202.015 671.242 179.212C669.08 178.084 666.917 176.954 664.749 175.824C644.427 165.231 623.416 154.277 601.512 144.154C560.069 125.04 514.658 113.815 466.54 110.79C406.1 106.99 340.892 115.668 272.725 136.58C238.628 147.041 204.401 160.226 176.349 173.706C155.168 183.884 138.179 195.337 120.194 207.463C118.064 208.899 115.929 210.339 113.777 211.782C109.479 214.67 104.365 218.094 99.0119 221.596C89.0971 228.099 75.5879 236.363 58.9734 242.58C40.9766 249.314 22.1526 252.747 1.42435 253.071C-15.6133 253.305 -34.4153 251.863 -56.0587 248.662C-74.6408 245.915 -92.6155 242.324 -112.506 238.256C-130.662 234.498 -149.824 230.616 -167.015 228.052C-217.939 220.457 -271.729 213.807 -326.887 208.281L-326.689 207.689C-271.498 213.216 -217.678 219.873 -166.727 227.471C-149.488 230.042 -130.299 233.93 -112.121 237.691C-78.782 244.511 -37.2897 253.001 1.39413 252.469C45.6207 251.776 74.0435 237.035 98.1683 221.207C103.519 217.708 108.63 214.286 112.925 211.4C115.077 209.956 117.212 208.516 119.339 207.082C137.355 194.937 154.374 183.464 175.624 173.253C203.733 159.745 238.026 146.534 272.189 136.055C340.563 115.079 405.996 106.378 466.666 110.192C489.928 111.655 512.778 115.052 534.575 120.288C557.964 125.905 580.723 133.782 602.221 143.695C624.15 153.828 645.175 164.788 665.507 175.389C667.676 176.52 669.841 177.648 672.004 178.776C715.661 201.56 756.901 223.08 804.931 239.761C822.394 245.83 840.751 251.634 859.493 257.01C882.878 263.69 906.105 269.555 928.531 274.443C963.777 282.126 1007.64 291.687 1051.02 286.142C1074.51 283.138 1092.43 276.468 1105.79 265.752C1131.54 245.283 1136.12 214.016 1139.8 188.893C1141.12 179.908 1142.37 171.421 1144.43 164.558C1144.86 163.142 1145.28 161.718 1145.71 160.287C1149.56 147.361 1153.55 133.994 1160.47 120.949C1170.36 102.186 1190.15 76.7435 1228.3 62.0897C1238.94 58.0015 1250.04 54.8562 1262.24 52.4731C1279.2 49.1305 1298.1 47.5594 1318.41 47.8004C1336.95 48.0203 1356.75 49.7481 1377.25 52.9341C1412.04 58.3374 1445.3 68.1543 1473.44 81.3228C1504.95 96.0369 1531.5 114.863 1552.35 137.276C1561.92 147.56 1570.21 158.555 1576.98 169.955C1583.46 180.873 1588.59 192.192 1592.2 203.597L1591.11 203.699C1575.38 154.003 1532.23 109.565 1472.73 81.7808C1444.7 68.6695 1411.59 58.8932 1376.95 53.511C1334.24 46.874 1294.7 46.7113 1262.6 53.038C1250.5 55.403 1239.48 58.5242 1228.92 62.5808C1191.04 77.1337 1171.37 102.445 1161.53 121.115C1154.62 134.125 1150.64 147.473 1146.79 160.382C1146.37 161.813 1145.94 163.238 1145.51 164.654C1143.46 171.492 1142.21 179.968 1140.9 188.94C1137.2 214.135 1132.6 245.493 1106.7 266.092C1100.26 271.258 1092.55 275.581 1083.81 278.938C1074.4 282.551 1063.45 285.172 1051.27 286.729C1042.47 287.85 1033.37 288.413 1023.83 288.413Z" fill="#3880FF" fill-opacity="0.5"/>
<path d="M1038.7 291.343C1025.58 291.343 1011.68 290.18 996.703 287.845C975.51 284.542 955.163 279.383 937.216 274.832C914.534 269.081 891.283 262.385 868.109 254.935C849.475 248.924 831.214 242.491 813.83 235.816C771.024 219.385 734.44 199.255 695.707 177.943C689.375 174.459 682.827 170.857 676.33 167.316C653.494 154.873 633.994 144.614 613.063 134.99C570.881 115.622 524.137 105.128 474.126 103.796C411.284 102.122 343.971 114.354 274.062 140.15C239.333 152.966 205.136 168.678 177.774 184.392C157.161 196.23 141.047 209.117 123.987 222.76C121.874 224.451 119.753 226.147 117.617 227.844C113.814 230.874 108.78 234.865 103.583 238.868C81.7145 255.751 53.1433 273.133 7.05634 274.022C5.61911 274.047 4.17642 274.059 2.73645 274.059C-33.2516 274.059 -69.9926 266.252 -107.58 257.535L-109.927 256.986C-128.545 252.63 -146.132 248.516 -162.411 245.521C-223.761 234.236 -283.093 224.71 -327.93 217.672L-327.608 217.056C-282.761 224.097 -223.412 233.624 -162.04 244.914C-145.717 247.916 -128.11 252.036 -109.468 256.397L-107.124 256.946C-68.1596 265.982 -30.1078 274.043 7.01511 273.383C52.591 272.503 80.923 255.255 102.63 238.499C107.823 234.499 112.852 230.511 116.655 227.483C118.791 225.784 120.909 224.089 123.023 222.399C140.11 208.735 156.249 195.827 176.928 183.951C204.345 168.203 238.61 152.46 273.408 139.619C305.705 127.7 338.014 118.549 369.435 112.417C405.486 105.381 440.729 102.266 474.181 103.156C524.45 104.493 571.43 115.039 613.81 134.497C634.772 144.136 654.291 154.407 677.149 166.86C683.648 170.401 690.197 174.004 696.531 177.488C735.226 198.779 771.775 218.889 814.498 235.287C831.857 241.954 850.09 248.377 868.697 254.379C891.838 261.82 915.053 268.505 937.703 274.248C973.256 283.263 1017.51 294.482 1061.54 289.432C1085.62 286.67 1103.65 279.961 1116.67 268.921C1142.09 247.52 1143.61 214.493 1144.84 187.956C1145.24 179.298 1145.62 171.118 1146.83 164.528L1146.86 164.377C1149.58 149.619 1152.39 134.36 1158.84 119.304C1164.42 106.172 1172.19 94.3647 1181.94 84.2089C1192.93 72.7591 1206.48 63.3835 1222.22 56.3413C1232.75 51.6294 1243.89 47.8861 1256.28 44.899C1289.74 36.7813 1330.75 35.528 1374.87 41.2778C1392.62 43.5915 1410.13 47.0968 1426.92 51.6942C1443.81 56.3187 1459.62 61.957 1473.9 68.4494C1506.18 83.0927 1532.93 102.097 1553.42 124.935C1571.84 145.462 1584.7 168.878 1590.61 192.65L1589.45 192.736C1576.81 141.857 1534.42 96.7357 1473.16 68.942C1444.51 55.924 1410.43 46.5726 1374.6 41.9044C1330.73 36.1878 1289.98 37.4275 1256.76 45.4895C1244.47 48.454 1233.42 52.1672 1222.97 56.8414C1193.58 69.9904 1171.8 91.6412 1159.98 119.453C1153.55 134.47 1150.74 149.708 1148.03 164.445L1148 164.596C1146.79 171.162 1146.41 179.329 1146.01 187.976C1144.78 214.594 1143.24 247.721 1117.65 269.272C1111.37 274.596 1103.72 279.012 1094.92 282.398C1085.44 286.05 1074.29 288.627 1061.78 290.063C1054.34 290.915 1046.66 291.343 1038.7 291.343Z" fill="#3880FF" fill-opacity="0.5"/>
<path d="M7.91058 295.034C-8.18179 295.034 -25.7059 293.316 -45.4834 289.806C-65.1344 286.319 -84.5684 281.504 -102.645 276.823C-105.918 275.97 -109.166 275.119 -112.392 274.274C-128.452 270.067 -143.621 266.093 -157.798 262.997C-214.327 250.659 -268.21 239.569 -320.321 228.847L-328.955 227.069L-328.521 226.435L-319.887 228.212C-267.773 238.938 -213.882 250.027 -157.341 262.369C-143.126 265.472 -127.938 269.45 -111.859 273.664C-108.636 274.509 -105.387 275.36 -102.117 276.211C-65.0108 285.822 -25.5877 295.135 12.6482 294.305C59.6502 293.233 87.8174 273.162 107.103 255.798C112.044 251.358 116.803 246.932 120.398 243.573C122.382 241.721 124.352 239.872 126.317 238.026C142.613 222.729 158.005 208.28 178.246 194.657C204.965 176.677 239.197 158.399 274.641 143.192C307.524 129.084 340.706 117.937 373.271 110.062C410.622 101.028 447.104 96.3401 481.704 96.1277C533.768 95.7029 582.125 105.521 625.412 125.307C649.408 136.289 670.922 148.168 688.806 158.34C698.537 163.876 708.267 169.55 717.679 175.038C750.994 194.466 785.443 214.553 824.077 230.823C841.335 238.093 859.45 245.136 877.914 251.757C900.763 259.932 923.968 267.436 946.886 274.061C982.709 284.416 1027.29 297.303 1072.08 292.73C1096.73 290.213 1114.88 283.464 1127.55 272.099C1152.63 249.728 1150.94 214.892 1149.58 186.901C1149.18 178.623 1148.79 170.804 1149.25 164.509C1150.28 150.317 1151.84 133.824 1157.21 117.67C1161.75 103.982 1168.59 91.5981 1177.55 80.8638C1187.69 68.7211 1200.68 58.5411 1216.17 50.6057C1226.43 45.347 1237.92 40.8837 1250.34 37.3377C1268.05 32.2613 1287.93 29.0693 1309.42 27.8522C1329.54 26.7119 1350.76 27.3114 1372.49 29.6327C1390.81 31.591 1408.87 34.8115 1426.16 39.2071C1443.56 43.6297 1459.78 49.14 1474.38 55.5842C1491.2 63.0045 1506.67 71.7669 1520.35 81.6291C1533.32 90.973 1544.81 101.394 1554.5 112.601C1572.65 133.568 1584.58 157.468 1589.02 181.713L1587.79 181.781C1578.25 129.716 1536.63 83.9127 1473.6 56.1129C1444.73 43.3661 1408.74 34.1985 1372.25 30.2985C1327.13 25.4767 1285.17 28.1188 1250.91 37.9387C1238.59 41.4561 1227.19 45.8848 1217.01 51.1013C1187.84 66.0533 1168.13 88.4905 1158.43 117.792C1153.06 133.903 1151.51 150.367 1150.49 164.536C1150.03 170.808 1150.41 178.616 1150.81 186.883C1151.48 200.691 1152.25 216.344 1149.7 231.475C1146.74 249.033 1139.84 262.437 1128.61 272.453C1122.5 277.933 1114.91 282.444 1106.05 285.861C1096.49 289.551 1085.14 292.086 1072.31 293.395C1065.84 294.057 1059.37 294.357 1052.94 294.357C1014.45 294.357 977.153 283.574 946.312 274.659C923.36 268.024 900.12 260.509 877.24 252.322C858.749 245.692 840.609 238.638 823.327 231.358C784.613 215.054 750.128 194.946 716.781 175.501C707.372 170.014 697.644 164.341 687.918 158.809C670.059 148.648 648.575 136.786 624.623 125.826C581.57 106.145 533.496 96.3838 481.724 96.8026C400.418 97.3027 324.65 122.593 275.405 143.723C240.033 158.899 205.869 177.138 179.208 195.082C159.027 208.664 143.657 223.091 127.386 238.364C125.421 240.209 123.448 242.059 121.464 243.912C117.867 247.272 113.105 251.701 108.161 256.146C100.065 263.436 87.3557 274.046 70.5214 282C62.346 285.862 53.6458 288.897 44.6626 291.023C34.646 293.392 23.8903 294.724 12.7004 294.979C11.1148 295.016 9.51816 295.034 7.91058 295.034Z" fill="#3880FF" fill-opacity="0.5"/>
<path d="M13.0776 316.006C-3.034 316.006 -20.5224 314.154 -40.1954 310.376C-60.5637 306.466 -80.7012 300.968 -97.7114 296.104C-102.938 294.606 -108.154 293.088 -113.199 291.619C-127.302 287.515 -140.624 283.636 -153.186 280.469C-198.294 269.096 -243.109 257.993 -286.451 247.254C-300.787 243.702 -315.61 240.03 -329.977 236.463L-329.438 235.81C-315.071 239.378 -300.249 243.05 -285.912 246.602C-242.57 257.341 -197.75 268.446 -152.639 279.82C-140.045 282.996 -126.706 286.877 -112.586 290.988C-107.544 292.457 -102.328 293.974 -97.1069 295.471C-61.8278 305.555 -20.9071 316.229 18.2769 315.224C66.3864 313.962 93.4077 292.046 111.578 273.094C116.235 268.239 120.739 263.365 124.142 259.661C125.889 257.76 127.626 255.86 129.36 253.965C144.947 236.921 159.668 220.822 179.569 205.363C205.453 185.256 239.657 164.445 275.876 146.765C326.316 122.249 404.274 92.3452 489.227 89.102C543.253 86.9841 592.978 96.0734 637.015 116.12C656.801 125.131 676.367 135.525 700.461 149.825C712.638 157.051 724.721 164.54 736.405 171.781C766.807 190.621 798.238 210.103 833.658 226.364C850.816 234.244 868.807 241.907 887.131 249.14C909.319 257.891 932.515 266.215 956.071 273.882C992.254 285.588 1037.29 300.159 1082.61 296.035C1107.47 293.82 1126.25 286.838 1138.44 275.284C1163.17 251.901 1157.86 213.646 1153.99 185.714C1152.9 177.875 1151.87 170.471 1151.67 164.498C1151.22 151.224 1151.26 133.722 1155.59 116.045C1163.07 85.413 1181.41 61.4679 1210.11 44.8785C1220.17 39.0338 1231.7 33.9559 1244.39 29.7848C1262.44 23.8437 1282.81 19.8474 1304.93 17.9087C1325.76 16.083 1347.69 16.1116 1370.11 17.9946C1389.02 19.6184 1407.62 22.5618 1425.39 26.7404C1443.33 30.9613 1459.97 36.3389 1474.85 42.7244C1492.05 50.1025 1507.76 58.8951 1521.55 68.8596C1534.62 78.303 1546.06 88.8716 1555.58 100.275C1573.44 121.683 1584.46 146.065 1587.44 170.784L1586.14 170.831C1579.72 117.578 1538.86 71.0905 1474.05 43.2893C1444.66 30.6765 1407.68 21.9442 1369.91 18.7025C1323.36 14.7935 1280.19 18.8381 1245.07 30.3994C1232.48 34.5358 1221.04 39.5731 1211.06 45.371C1182.56 61.8506 1164.33 85.66 1156.89 116.141C1152.56 133.77 1152.53 151.238 1152.98 164.486C1153.18 170.438 1154.21 177.832 1155.29 185.661C1157.29 200.099 1159.56 216.466 1158.27 232.444C1156.75 251.049 1150.64 265.18 1139.57 275.645C1133.61 281.289 1126.09 285.898 1117.18 289.345C1107.54 293.082 1095.98 295.571 1082.83 296.742C1062.44 298.597 1040.5 296.931 1015.74 291.648C994.219 287.055 973.6 280.385 955.411 274.501C931.819 266.823 908.593 258.487 886.373 249.725C868.021 242.481 850.005 234.807 832.822 226.917C797.329 210.623 765.861 191.12 735.43 172.26C723.751 165.021 711.67 157.536 699.505 150.316C675.451 136.042 655.921 125.667 636.182 116.677C592.406 96.7453 542.997 87.7102 489.315 89.8145C404.728 93.0457 327.028 122.858 276.739 147.3C240.591 164.944 206.458 185.711 180.63 205.775C160.784 221.191 146.084 237.267 130.522 254.286C128.788 256.182 127.052 258.082 125.304 259.983C121.899 263.69 117.392 268.569 112.729 273.429C94.3997 292.549 67.1064 314.661 18.3346 315.94C16.6006 315.983 14.8446 316.006 13.0776 316.006Z" fill="#3880FF" fill-opacity="0.5"/>
<path d="M18.3472 336.977C-25.6761 336.977 -71.8675 322.156 -112.816 309.016C-125.399 304.979 -137.284 301.165 -148.578 297.94L-331 245.854L-330.365 245.187L-147.944 297.272C-136.619 300.505 -124.72 304.324 -112.12 308.367C-69.5894 322.014 -21.3809 337.483 23.9037 336.142C73.0739 334.689 98.9767 310.927 116.05 290.391C121.634 283.675 127.026 276.84 132.241 270.23C146.506 252.154 161.255 233.462 180.884 216.065C196.471 202.252 215.833 187.765 236.878 174.173C259.964 159.262 284.682 145.581 310.34 133.512C338.631 120.206 367.398 109.199 395.837 100.799C427.293 91.5073 458.283 85.4412 487.95 82.7675C547.382 77.4124 601.435 85.5392 648.605 106.925C687.805 124.695 721.122 146.67 753.343 167.922C781.389 186.42 810.389 205.546 843.228 221.896C881.159 240.78 922.211 258.207 965.248 273.69C1001.51 286.737 1046.64 302.975 1093.15 299.326C1132.43 296.244 1155.14 281.837 1162.57 255.28C1168.9 232.69 1162.88 205.894 1158.05 184.364C1156.4 177.026 1154.84 170.095 1154.08 164.475C1149.87 133.492 1152.55 107.916 1162.29 86.2863C1168.37 72.7909 1177.34 60.7611 1188.95 50.5315C1201.92 39.1043 1218.57 29.5781 1238.44 22.218C1255.63 15.8507 1275 11.2261 1296.02 8.47253C1316.03 5.85148 1337.09 4.97327 1358.63 5.86202C1400.99 7.60939 1442.43 16.1293 1475.31 29.8507C1492.88 37.1852 1508.84 46.0094 1522.74 56.0764C1535.9 65.6176 1547.31 76.3353 1556.65 87.9343C1574.22 109.784 1584.32 134.649 1585.84 159.84L1584.47 159.866C1581.23 106.221 1540.11 57.8418 1474.47 30.4518C1404.77 1.36404 1305.83 -1.83696 1239.2 22.8432C1173.21 47.2913 1145.81 93.6012 1155.45 164.419C1156.21 170.022 1157.76 176.943 1159.41 184.272C1164.25 205.849 1170.29 232.702 1163.93 255.394C1160.47 267.754 1153.51 277.687 1143.25 284.919C1137.48 288.984 1130.52 292.307 1122.57 294.793C1114.11 297.438 1104.28 299.214 1093.34 300.073C1088.87 300.424 1084.32 300.6 1079.69 300.6C1062.84 300.6 1044.89 298.264 1025.22 293.531C1003.06 288.198 981.673 280.504 964.489 274.322C921.395 258.815 880.285 241.366 842.299 222.455C809.386 206.07 780.356 186.921 752.279 168.404C720.1 147.179 686.824 125.232 647.723 107.506C600.869 86.2667 547.187 78.1927 488.165 83.5116C368.774 94.27 245.79 159.971 182.044 216.462C162.467 233.811 147.738 252.478 133.492 270.53C128.273 277.143 122.879 283.982 117.29 290.705C105.954 304.339 94.7585 314.101 82.0572 321.425C74.1292 325.996 65.5279 329.599 56.4924 332.134C46.4456 334.952 35.5031 336.555 23.9669 336.897C22.1037 336.95 20.2268 336.977 18.3472 336.977Z" fill="#3880FF" fill-opacity="0.5"/>
</g>
</svg>
