<svg width="263" height="21" viewBox="0 0 263 21" fill="none" xmlns="http://www.w3.org/2000/svg">
<path d="M245.852 11.0604C245.494 11.0775 245.133 11.0893 244.782 11.115C244.555 11.131 244.457 11.084 244.305 11.0593C244.255 11.0508 244.201 11.0336 244.154 11.0358C243.8 11.0529 243.445 11.0722 243.091 11.0914C242.983 11.1332 242.914 11.1888 242.748 11.2092C242.586 11.2284 242.394 11.2284 242.213 11.2381C241.975 11.2498 241.736 11.2616 241.498 11.2723C241.379 11.2777 241.281 11.298 241.241 11.3365C241.234 11.343 241.314 11.359 241.357 11.3686C241.501 11.4007 241.642 11.4371 241.801 11.4618C241.953 11.4853 242.141 11.4468 242.304 11.4767C242.669 11.5442 242.672 11.5431 242.951 11.5303C243.189 11.5185 243.427 11.5056 243.666 11.4971C243.713 11.4949 243.767 11.511 243.818 11.5196C243.969 11.5431 244.067 11.5966 244.291 11.5763C244.461 11.5602 244.649 11.557 244.826 11.5485C244.974 11.5795 245.111 11.6148 245.27 11.6394C245.418 11.663 245.462 11.6812 245.382 11.7122C245.31 11.7411 245.209 11.7529 245.075 11.755C244.956 11.7561 244.837 11.7657 244.717 11.7711C244.656 11.7743 244.598 11.7764 244.54 11.7796C244.313 11.7914 244.313 11.7914 243.897 11.7229C243.735 11.6962 243.55 11.7336 243.395 11.7079C243.29 11.6908 243.2 11.6651 243.099 11.6469C243.055 11.6394 242.987 11.6384 242.932 11.6405C242.752 11.648 242.571 11.6533 242.398 11.6673C242.275 11.6769 242.203 11.7069 242.217 11.7368C242.221 11.7486 242.307 11.7657 242.358 11.7668C242.473 11.7689 242.596 11.754 242.708 11.7614C242.817 11.7689 242.929 11.7903 243.008 11.8139C243.171 11.8631 243.355 11.8192 243.51 11.8321C243.673 11.846 243.807 11.8888 243.962 11.9145C244.002 11.9209 244.078 11.9102 244.139 11.907C244.316 11.8995 244.493 11.8931 244.67 11.8856C244.819 11.9166 244.978 11.9445 245.111 11.9798C245.353 12.044 245.614 12.0686 245.928 12.0376C246.105 12.0204 246.278 12.0269 246.419 12.0686C246.564 12.1114 246.73 12.1072 246.914 12.0986C247.084 12.09 247.258 12.0665 247.431 12.0964C247.807 12.1628 247.81 12.166 248.255 12.1403C248.389 12.1328 248.49 12.1307 248.591 12.1553C248.685 12.1778 248.786 12.1971 248.884 12.2185C249.061 12.211 249.241 12.2035 249.418 12.1949C249.646 12.1831 249.772 12.1981 249.827 12.2581C249.859 12.2945 249.874 12.3276 249.953 12.3522C250.047 12.3822 250.148 12.3811 250.286 12.3726C250.416 12.3651 250.51 12.3533 250.564 12.3148C250.585 12.2987 250.629 12.2837 250.669 12.2709C250.701 12.2613 250.752 12.2463 250.781 12.2484C250.835 12.2527 250.907 12.2645 250.925 12.2784C251.102 12.4079 251.102 12.409 251.283 12.4464C251.482 12.4882 251.688 12.5256 251.868 12.5727C252.031 12.6145 252.193 12.5963 252.37 12.5963C252.504 12.5963 252.591 12.6241 252.58 12.6519C252.573 12.668 252.522 12.6915 252.479 12.6937C252.125 12.7151 251.767 12.7333 251.409 12.7483C251.366 12.7504 251.312 12.7311 251.261 12.7215C251.16 12.7022 251.07 12.6723 250.961 12.6658C250.853 12.6594 250.726 12.6755 250.607 12.6808C250.488 12.6862 250.361 12.7001 250.253 12.6915C250.145 12.683 250.058 12.6519 249.957 12.6316C249.91 12.622 249.845 12.6081 249.805 12.6113C249.541 12.637 249.346 12.6016 249.158 12.5545C249.118 12.5449 249.05 12.5385 248.999 12.5406C248.58 12.5588 248.165 12.5802 247.745 12.6006C247.576 12.6091 247.438 12.5717 247.402 12.5085C247.384 12.4732 247.348 12.4379 247.348 12.4025C247.348 12.3383 247.149 12.303 247.005 12.3105C246.766 12.3212 246.524 12.3298 246.289 12.3458C246.098 12.3587 245.935 12.3458 245.805 12.3073C245.653 12.2634 245.48 12.272 245.306 12.2837C245.176 12.2923 245.14 12.3276 245.147 12.4165C245.155 12.4882 245.093 12.5106 244.858 12.5224C244.562 12.5374 244.262 12.5524 243.962 12.5642C243.915 12.5663 243.861 12.5481 243.814 12.5385C243.713 12.5192 243.623 12.4882 243.514 12.4817C243.406 12.4743 243.279 12.4903 243.16 12.4967C243.041 12.5021 242.914 12.5171 242.806 12.5096C242.698 12.5021 242.607 12.47 242.51 12.4496C242.463 12.44 242.405 12.4261 242.358 12.4282C242.119 12.4368 241.881 12.4496 241.642 12.4614C241.375 12.4743 241.375 12.4743 240.996 12.4079C240.822 12.3779 240.649 12.4015 240.479 12.41C240.298 12.4186 240.128 12.4229 239.987 12.3801C239.894 12.3522 239.789 12.3351 239.677 12.3405C239.377 12.3533 239.081 12.3694 238.781 12.3822C238.73 12.3844 238.661 12.379 238.622 12.3694C238.43 12.3244 238.242 12.2891 237.975 12.3116C237.744 12.3308 237.494 12.3319 237.263 12.3501C237.137 12.3597 237.079 12.394 237.104 12.4207C237.118 12.4347 237.194 12.4507 237.245 12.4507C237.361 12.4518 237.487 12.4357 237.596 12.4421C237.82 12.455 237.932 12.5449 238.224 12.5203C238.398 12.5053 238.578 12.4999 238.759 12.4957C238.806 12.4946 238.857 12.5149 238.907 12.5256C239.052 12.5545 239.178 12.592 239.388 12.5727C239.561 12.5577 239.745 12.5535 239.922 12.5449C240.204 12.531 240.204 12.5321 240.569 12.5973C240.743 12.6284 240.916 12.6038 241.086 12.5963C241.212 12.5909 241.332 12.5802 241.433 12.5952C241.588 12.6177 241.7 12.669 241.892 12.6658C242.072 12.6626 242.249 12.6476 242.43 12.6423C242.542 12.6391 242.647 12.6562 242.737 12.6851C242.831 12.714 242.932 12.7268 243.055 12.7204C243.232 12.7119 243.413 12.7012 243.594 12.6958C243.644 12.6947 243.702 12.7044 243.749 12.7129C243.85 12.7322 243.948 12.7547 244.045 12.775C244.222 12.7686 244.403 12.7665 244.576 12.7536C244.71 12.744 244.804 12.7483 244.913 12.7697C245.05 12.7986 245.162 12.8499 245.386 12.8253C245.498 12.8135 245.628 12.8168 245.74 12.8061C245.877 12.7921 245.971 12.7975 246.069 12.8296C246.253 12.8906 246.484 12.8917 246.723 12.8681C246.983 12.8424 247.178 12.8724 247.373 12.9195C247.579 12.9687 247.579 12.9677 247.738 13.0865C247.785 13.1207 247.919 13.1368 248.031 13.1304C248.219 13.1197 248.381 13.125 248.519 13.1657C248.663 13.2096 248.837 13.2042 249.014 13.1924C249.248 13.1764 249.483 13.1625 249.675 13.2245C249.769 13.2545 249.87 13.262 249.997 13.2545C250.354 13.2352 250.716 13.2235 251.066 13.1999C251.279 13.1849 251.402 13.2192 251.547 13.2481C251.742 13.2877 251.955 13.323 251.955 13.4076C251.955 13.4215 252.005 13.4375 252.049 13.4482C252.143 13.4707 252.244 13.49 252.342 13.5114C252.486 13.5435 252.627 13.5702 252.826 13.5531C252.999 13.5392 253.183 13.5349 253.36 13.5253C253.538 13.5157 253.7 13.5103 253.859 13.551C254.043 13.597 254.238 13.6409 254.448 13.6751C254.596 13.6997 254.791 13.658 254.95 13.6912C255.048 13.7115 255.142 13.7351 255.247 13.7522C255.29 13.7597 255.359 13.7543 255.417 13.7522C255.536 13.7479 255.659 13.7447 255.774 13.734C255.908 13.7222 256.009 13.7244 256.11 13.749C256.204 13.7715 256.298 13.8025 256.407 13.8089C256.569 13.8186 256.75 13.7757 256.912 13.825C256.996 13.8496 257.1 13.8731 257.209 13.8806C257.317 13.8881 257.444 13.8721 257.559 13.8731C257.61 13.8731 257.671 13.8903 257.7 13.9042C257.718 13.9117 257.693 13.932 257.668 13.9427C257.635 13.9555 257.588 13.9727 257.541 13.9748C257.183 13.9941 256.826 14.0101 256.468 14.0283C256.255 14.039 256.255 14.039 255.825 13.9716C255.724 13.9556 255.612 13.9588 255.485 13.9662C255.315 13.9759 255.142 13.9941 254.965 13.9748C254.734 13.902 254.448 13.8956 254.145 13.9234C254.018 13.9352 253.902 13.9352 253.809 13.9149C253.61 13.8742 253.4 13.8368 253.223 13.7886C253.086 13.7511 253.021 13.7479 252.963 13.7993C252.945 13.8153 252.927 13.8325 252.93 13.8474C252.952 13.901 252.992 13.9534 253.014 14.0069C253.021 14.0219 252.992 14.039 252.974 14.0551C252.916 14.1 252.84 14.0968 252.714 14.0594C252.587 14.0219 252.435 13.9973 252.233 14.0144C252.06 14.0294 251.872 14.0273 251.698 14.0433C251.431 14.0669 251.243 14.0326 251.052 13.9866C251.012 13.977 250.943 13.9716 250.893 13.9737C250.354 13.9984 249.819 14.0262 249.281 14.0508C249.165 14.0562 249.061 14.0401 248.97 14.0112C248.876 13.9823 248.772 13.9673 248.656 13.9727C248.179 13.9952 247.702 14.0155 247.225 14.0433C247.03 14.0551 246.875 14.0412 246.741 14.0037C246.64 13.9759 246.546 13.9673 246.419 13.9705C246.282 13.9737 246.184 13.9845 246.116 14.0155C246.051 14.0455 246.098 14.0636 246.242 14.0872C246.398 14.1129 246.542 14.1461 246.69 14.176C246.809 14.1718 246.929 14.1632 247.044 14.1642C247.095 14.1642 247.142 14.1835 247.193 14.1942C247.337 14.2253 247.471 14.2563 247.677 14.2392C247.85 14.2242 248.034 14.221 248.211 14.2113C248.457 14.1996 248.457 14.1996 248.855 14.267C248.956 14.2841 249.064 14.2831 249.194 14.2734C249.306 14.2659 249.422 14.2809 249.501 14.313C249.534 14.3259 249.523 14.3473 249.454 14.4179C249.454 14.4704 249.53 14.4468 249.556 14.4126C249.595 14.3633 249.519 14.3473 249.375 14.374C249.274 14.3933 249.223 14.4211 249.249 14.4436C249.263 14.4554 249.332 14.4704 249.454 14.4179C249.772 14.3537 250.015 14.3462 250.246 14.3291C250.383 14.3194 250.47 14.3237 250.578 14.3516C250.708 14.3847 250.838 14.4201 251.052 14.4029C251.283 14.3837 251.529 14.3815 251.763 14.3655C251.98 14.3505 252.092 14.3976 252.23 14.4254C252.396 14.4586 252.58 14.4211 252.732 14.4404C252.891 14.4597 253.003 14.5067 253.187 14.5153C253.454 14.4864 253.624 14.5399 253.827 14.5753C253.986 14.602 254.173 14.5785 254.343 14.5667C254.535 14.5538 254.694 14.5656 254.827 14.6042C254.979 14.648 255.149 14.6384 255.323 14.6288C255.727 14.6074 255.742 14.6041 255.977 14.663C256.146 14.7058 256.309 14.6866 256.479 14.6812C256.627 14.7101 256.771 14.7411 256.927 14.7668C256.967 14.7732 257.042 14.7626 257.104 14.7593C257.281 14.7508 257.462 14.7422 257.639 14.7337C257.758 14.7283 257.884 14.7122 257.993 14.7187C258.101 14.7262 258.192 14.7572 258.289 14.7775C258.387 14.7979 258.488 14.8182 258.582 14.8396C258.726 14.8717 258.864 14.8985 259.066 14.8824C259.239 14.8685 259.42 14.8642 259.601 14.8546C259.828 14.8428 259.821 14.846 260.244 14.9103C260.472 14.9456 260.706 14.9028 260.938 14.8985C261.053 14.8963 261.165 14.9081 261.245 14.9392C261.277 14.952 261.267 14.9734 261.277 14.9916C260.681 15.0205 260.081 15.0451 259.492 15.0804C259.265 15.0943 259.145 15.0558 259.023 15.0237C258.82 14.9723 258.553 15.0472 258.361 14.9809C258.246 14.9413 258.079 14.9188 257.881 14.9381C257.765 14.9488 257.642 14.9477 257.523 14.9573C257.22 14.9809 256.941 14.982 256.699 14.9081C256.616 14.8824 256.497 14.8685 256.41 14.8439C256.309 14.8171 256.211 14.8021 256.092 14.8075C255.554 14.8332 255.019 14.8589 254.484 14.8867C254.437 14.8888 254.39 14.9049 254.351 14.9167C254.249 14.9466 254.282 14.9702 254.444 14.9895C254.499 14.9959 254.542 15.0098 254.593 15.0205C254.69 15.0408 254.78 15.0729 254.889 15.0804C254.997 15.0879 255.124 15.0729 255.243 15.0676C255.362 15.0622 255.489 15.0462 255.597 15.0526C255.706 15.0601 255.796 15.0911 255.897 15.1104C255.944 15.12 256.002 15.1361 256.049 15.135C256.287 15.1286 256.522 15.1168 256.761 15.1072C256.909 15.1361 257.035 15.1778 257.212 15.1875C257.324 15.1939 257.444 15.1821 257.559 15.1842C257.61 15.1853 257.675 15.2014 257.7 15.2153C257.715 15.2238 257.668 15.2453 257.631 15.256C257.494 15.2966 257.306 15.2891 257.136 15.302C256.952 15.3159 256.786 15.3116 256.645 15.2699C256.551 15.242 256.446 15.2271 256.331 15.2324C256.031 15.2463 255.734 15.2624 255.435 15.2742C255.384 15.2763 255.323 15.2667 255.276 15.2592C254.896 15.1939 254.896 15.1917 254.629 15.2057C254.235 15.226 254.235 15.226 253.971 15.1693C253.921 15.1586 253.866 15.1382 253.823 15.1393C253.404 15.1564 252.988 15.1735 252.573 15.1982C252.435 15.2057 252.342 15.2057 252.24 15.1778C252.154 15.1543 252.052 15.1275 251.944 15.1211C251.832 15.1147 251.709 15.1307 251.59 15.1361C251.471 15.1414 251.344 15.1553 251.239 15.1468C251.131 15.1382 251.037 15.1083 250.943 15.0869C250.846 15.0644 250.741 15.0654 250.607 15.074C250.195 15.0986 250.192 15.0954 249.783 15.0291C249.736 15.0216 249.675 15.013 249.624 15.0151C249.324 15.028 249.028 15.044 248.728 15.0569C248.613 15.0622 248.501 15.0483 248.421 15.0173C248.389 15.0044 248.399 14.983 248.378 14.9413C248.352 14.9317 248.381 14.9488 248.389 14.9648C248.443 14.9627 248.508 14.9648 248.548 14.9563C248.649 14.9359 248.699 14.9092 248.674 14.8867C248.66 14.8749 248.591 14.8599 248.548 14.8599C248.468 14.8599 248.399 14.8835 248.378 14.9413C248.15 14.9766 247.908 14.9841 247.673 15.0012C247.536 15.0119 247.449 15.0066 247.341 14.9788C247.211 14.9445 247.077 14.9113 246.864 14.9284C246.632 14.9477 246.387 14.9509 246.148 14.9659C245.874 14.983 245.754 14.8867 245.523 14.8888C245.285 14.891 245.046 14.9092 244.808 14.922C244.598 14.9327 244.598 14.9327 244.165 14.8632C244.006 14.8375 243.818 14.8749 243.662 14.8482C243.558 14.831 243.467 14.8054 243.366 14.7872C243.323 14.7797 243.254 14.7797 243.2 14.7818C242.9 14.7947 242.596 14.8032 242.307 14.8268C241.979 14.8546 241.729 14.8246 241.494 14.7615C241.198 14.7733 240.898 14.7797 240.605 14.8C240.392 14.815 240.269 14.7797 240.125 14.7508C240.074 14.7411 240.031 14.7251 239.977 14.7208C239.923 14.7165 239.857 14.7251 239.8 14.7283C239.561 14.7401 239.315 14.7454 239.084 14.7647C238.799 14.7893 238.69 14.7015 238.47 14.6908C238.322 14.7433 238.242 14.815 237.95 14.8203C237.711 14.8246 237.473 14.8418 237.234 14.8535C237.115 14.8589 236.996 14.8653 236.876 14.8707C236.685 14.8803 236.595 14.922 236.634 14.9862C236.656 15.0216 236.674 15.0569 236.692 15.0922C236.728 15.1553 236.638 15.2089 236.486 15.2164C236.067 15.2367 235.652 15.2581 235.232 15.2763C235.12 15.2816 235.012 15.2634 234.922 15.2345C234.828 15.2056 234.723 15.1928 234.607 15.1982C234.188 15.2185 233.773 15.2399 233.353 15.2581C233.306 15.2602 233.245 15.2495 233.198 15.241C233.097 15.2217 232.999 15.1992 232.902 15.1789C232.663 15.1885 232.428 15.1949 232.194 15.2078C231.814 15.2271 231.814 15.2281 231.536 15.1693C231.485 15.1586 231.435 15.1382 231.388 15.1393C231.207 15.1436 231.03 15.1543 230.849 15.1639C230.318 15.1917 230.318 15.1917 230.163 15.1596C230.022 15.1297 229.895 15.0933 229.682 15.1104C229.451 15.1297 229.205 15.1361 228.967 15.1468C228.79 15.1543 228.613 15.1628 228.436 15.165C228.389 15.1661 228.338 15.1457 228.288 15.135C228.143 15.1018 228.002 15.0751 227.803 15.0933C227.688 15.104 227.565 15.1061 227.446 15.1115C227.135 15.1265 227.135 15.1264 226.625 15.0622C226.575 15.0558 226.513 15.0483 226.463 15.0515C226.044 15.0708 225.628 15.0922 225.209 15.1104C225.158 15.1125 225.097 15.1061 225.046 15.1008C224.475 15.0387 224.475 15.0387 223.868 15.0687C223.637 15.0794 223.63 15.0836 223.388 15.0269C223.279 15.0023 223.189 14.9905 223.063 14.998C222.586 15.0237 222.105 15.0408 221.632 15.0708C221.419 15.0836 221.296 15.0515 221.151 15.0226C221.101 15.013 221.046 14.9916 221.003 14.9927C220.526 15.013 220.049 15.0376 219.572 15.058C219.529 15.0601 219.475 15.0387 219.424 15.0291C219.326 15.0098 219.232 14.9809 219.124 14.9745C219.012 14.968 218.889 14.9841 218.766 14.9895C218.466 15.0034 218.466 15.0023 218.12 14.9392C218.073 14.9306 218.011 14.9188 217.964 14.921C217.487 14.9424 217.007 14.9606 216.533 14.9916C216.262 15.0087 216.078 14.9777 215.887 14.9327C215.847 14.9231 215.778 14.9188 215.728 14.921C215.189 14.9456 214.654 14.9734 214.116 14.998C214.004 15.0034 213.896 14.9852 213.805 14.9573C213.661 14.9135 213.491 14.9188 213.31 14.9284C212.895 14.9509 212.891 14.9499 212.645 14.8985C212.595 14.8878 212.551 14.8739 212.497 14.8685C212.447 14.8632 212.382 14.8664 212.327 14.8685C212.089 14.8792 211.85 14.891 211.612 14.9028C211.374 14.9145 211.131 14.921 210.896 14.9392C210.607 14.9616 210.47 14.8921 210.268 14.8599C209.971 14.8739 209.668 14.8824 209.375 14.9049C209.151 14.922 209.047 14.8749 208.898 14.8503C208.848 14.8418 208.794 14.8236 208.747 14.8257C208.208 14.8492 207.67 14.8749 207.135 14.9038C207.005 14.9102 206.918 14.9017 206.81 14.876C206.568 14.8182 206.557 14.8203 206.152 14.8418C205.975 14.8514 205.805 14.86 205.654 14.8161C205.52 14.7765 205.357 14.7668 205.166 14.7797C204.931 14.7957 204.689 14.8043 204.45 14.815C204.212 14.8268 203.973 14.8428 203.735 14.8482C203.543 14.8535 203.428 14.8032 203.276 14.7775C203.229 14.77 203.164 14.769 203.11 14.7711C202.871 14.7807 202.626 14.7882 202.394 14.8064C202.113 14.8289 201.957 14.77 201.758 14.7358C201.715 14.7283 201.643 14.7326 201.589 14.7358C201.169 14.7551 200.754 14.7765 200.335 14.7968C200.187 14.7679 200.035 14.7401 199.887 14.7112C199.648 14.7219 199.41 14.7337 199.171 14.7444C198.991 14.7529 198.806 14.7561 198.636 14.7722C198.416 14.7936 198.308 14.7433 198.159 14.7187C198.109 14.7101 198.055 14.6919 198.008 14.6941C197.708 14.7058 197.408 14.7187 197.112 14.7369C196.83 14.7551 196.718 14.6587 196.487 14.6598C196.248 14.6609 196.002 14.6748 195.771 14.6941C195.504 14.7165 195.316 14.6823 195.124 14.6363C195.085 14.6266 195.016 14.6213 194.965 14.6234C194.665 14.6363 194.369 14.6523 194.069 14.6652C194.019 14.6673 193.957 14.6619 193.907 14.6555C193.336 14.5924 193.336 14.5913 193.086 14.6042C192.909 14.6127 192.729 14.6234 192.548 14.6288C192.497 14.6309 192.436 14.6213 192.389 14.6127C192.013 14.5474 192.013 14.5464 191.742 14.5592C191.504 14.571 191.265 14.5827 191.027 14.5945C190.879 14.5656 190.727 14.5378 190.579 14.5089C190.282 14.5228 189.979 14.5335 189.686 14.5528C189.549 14.5613 189.459 14.5581 189.354 14.5314C189.224 14.4993 189.094 14.4618 188.877 14.48C188.646 14.4993 188.4 14.5014 188.165 14.5175C187.883 14.5367 187.768 14.4393 187.54 14.4404C187.301 14.4415 187.056 14.4554 186.824 14.4746C186.557 14.4971 186.369 14.4629 186.178 14.4169C186.138 14.4072 186.069 14.4019 186.019 14.404C185.361 14.435 184.707 14.4661 184.049 14.4993C183.645 14.5196 183.645 14.5207 182.875 14.4618C182.821 14.4575 182.763 14.4532 182.709 14.4554C182.47 14.465 182.225 14.4725 181.993 14.4907C181.712 14.5132 181.556 14.4554 181.357 14.4201C181.314 14.4126 181.245 14.4168 181.188 14.419C181.007 14.4265 180.83 14.4361 180.649 14.4447C180.411 14.4565 180.172 14.4682 179.934 14.48C179.786 14.4522 179.634 14.4233 179.486 14.3954C179.189 14.4094 178.886 14.4168 178.593 14.4393C178.369 14.4564 178.264 14.4115 178.116 14.3858C178.066 14.3772 178.012 14.3591 177.965 14.3601C177.426 14.3837 176.888 14.4083 176.353 14.4383C176.133 14.4511 176.031 14.4029 175.883 14.3783C175.833 14.3708 175.775 14.3569 175.728 14.3591C175.37 14.374 175.012 14.3922 174.655 14.4104C174.452 14.4211 174.452 14.4211 174.012 14.3548C173.961 14.3473 173.903 14.3398 173.853 14.3419C172.718 14.3954 171.587 14.4522 170.452 14.5057C170.337 14.511 170.232 14.495 170.142 14.4661C170.048 14.4372 169.943 14.4222 169.827 14.4276C169.35 14.45 168.87 14.4704 168.396 14.4982C168.201 14.51 168.046 14.496 167.912 14.4586C167.811 14.4308 167.717 14.4201 167.591 14.4265C167.352 14.4393 167.114 14.45 166.875 14.4618C166.637 14.4736 166.398 14.4853 166.16 14.4971C165.921 14.5089 165.679 14.5153 165.444 14.5335C165.155 14.556 165.014 14.4896 164.816 14.4565C164.458 14.4725 164.1 14.4886 163.746 14.5057C163.269 14.5282 162.792 14.5528 162.315 14.5742C162.272 14.5763 162.218 14.5571 162.167 14.5474C162.019 14.5207 161.91 14.4832 161.69 14.495C160.621 14.5517 159.544 14.5999 158.471 14.6555C158.247 14.6673 158.149 14.6213 157.997 14.5967C157.947 14.5892 157.889 14.5742 157.842 14.5763C157.246 14.6031 156.65 14.633 156.053 14.6619C155.811 14.6737 155.811 14.6737 155.407 14.6074C155.36 14.5999 155.298 14.5902 155.247 14.5924C154.471 14.6288 153.697 14.6673 152.92 14.7048C152.805 14.7101 152.7 14.6951 152.606 14.6662C152.516 14.6373 152.407 14.6213 152.295 14.6266C151.58 14.6609 150.861 14.6941 150.149 14.7315C149.958 14.7422 149.799 14.7326 149.661 14.6941C149.564 14.6662 149.466 14.6544 149.343 14.6609C148.27 14.7133 147.197 14.7636 146.124 14.8193C145.918 14.83 145.773 14.8096 145.643 14.7743C145.538 14.7465 145.448 14.7411 145.318 14.7454C145.181 14.7508 145.098 14.7625 145.022 14.7947C144.924 14.8364 144.863 14.8888 144.632 14.8921C144.393 14.8953 144.151 14.9081 143.916 14.9263C143.692 14.9445 143.587 14.8963 143.446 14.8674C143.342 14.8471 143.244 14.8439 143.11 14.8535C142.987 14.8621 142.912 14.8803 142.839 14.9145C142.68 14.9873 142.666 14.9873 142.471 14.9413C142.366 14.9167 142.272 14.8974 142.156 14.9017C141.679 14.9231 141.202 14.9466 140.725 14.9713C140.451 14.9852 140.447 14.9873 140.241 14.9338C140.14 14.907 140.043 14.8942 139.923 14.9006C138.612 14.9648 137.3 15.0269 135.988 15.0943C135.786 15.105 135.649 15.0826 135.504 15.0505C135.457 15.0398 135.41 15.0248 135.356 15.0205C135.302 15.0162 135.24 15.0205 135.183 15.0226C134.229 15.0687 133.271 15.1125 132.321 15.1639C132.104 15.1757 131.988 15.1414 131.84 15.1136C131.79 15.104 131.746 15.089 131.692 15.0847C131.638 15.0815 131.573 15.089 131.515 15.0922C130.561 15.1382 129.604 15.1821 128.653 15.2335C128.426 15.2453 128.328 15.2003 128.18 15.1768C128.129 15.1682 128.075 15.1521 128.028 15.1543C127.728 15.166 127.432 15.1821 127.132 15.196C126.417 15.2313 125.701 15.2645 124.986 15.3009C124.711 15.3148 124.592 15.2196 124.361 15.2238C124.061 15.2292 123.764 15.2506 123.465 15.2656C123.226 15.2774 122.988 15.2881 122.749 15.3009C122.514 15.3127 122.514 15.3127 121.929 15.2506C121.878 15.2453 121.817 15.2378 121.766 15.2399C120.932 15.2795 120.093 15.3191 119.262 15.3619C119.071 15.3715 118.912 15.3662 118.774 15.3266C118.677 15.2988 118.576 15.2849 118.456 15.2913C117.203 15.3523 115.952 15.4133 114.699 15.4732C114.652 15.4754 114.59 15.4647 114.543 15.4561C114.442 15.4368 114.344 15.4144 114.247 15.394C114.175 15.4186 114.081 15.4411 114.034 15.4689C113.969 15.5064 113.882 15.5171 113.745 15.5235C113.607 15.53 113.521 15.5278 113.412 15.5C113.282 15.4657 113.148 15.439 112.935 15.4497C111.624 15.5171 110.312 15.5781 109 15.6445C108.784 15.6552 108.682 15.6081 108.531 15.5835C108.48 15.576 108.422 15.5642 108.375 15.5663C107.837 15.591 107.302 15.6177 106.764 15.6434C105.271 15.7162 103.779 15.7858 102.29 15.8628C102.019 15.8767 101.835 15.85 101.644 15.8039C101.604 15.7943 101.535 15.789 101.485 15.7911C99.3961 15.8917 97.3076 15.9934 95.2227 16.0951C95.1107 16.1004 95.0023 16.0833 94.9119 16.0555C94.818 16.0266 94.7132 16.0127 94.5976 16.018C93.6437 16.064 92.6898 16.1101 91.7359 16.1572C91.4974 16.1689 91.4937 16.17 91.248 16.1186C91.1974 16.1079 91.1433 16.0876 91.1035 16.0897C91.0204 16.0951 90.9409 16.1218 90.8831 16.1582C90.8253 16.1967 90.7349 16.2074 90.6012 16.2149C90.4639 16.2224 90.3736 16.2192 90.2688 16.1935C90.1351 16.1614 90.0123 16.1304 89.7955 16.1411C87.0529 16.2781 84.3104 16.4097 81.5679 16.5457C81.3475 16.5564 81.2463 16.5114 81.0945 16.4868C81.0439 16.4793 80.9934 16.4686 80.9392 16.4665C80.8814 16.4643 80.8199 16.4707 80.7621 16.474C76.2888 16.6912 71.8155 16.9096 67.3422 17.1268C67.0748 17.1397 67.0784 17.1397 66.7857 17.2381C66.7496 17.2499 66.7026 17.266 66.652 17.2681C65.2826 17.3366 63.9095 17.403 62.5365 17.4693C61.9403 17.4982 61.3441 17.5282 60.7479 17.556C60.5347 17.5657 60.5347 17.5657 60.0252 17.6812C59.9818 17.6909 59.9312 17.7037 59.8806 17.7059C57.4958 17.8225 55.111 17.9392 52.7226 18.0537C52.5347 18.0623 52.3829 18.0815 52.2962 18.1329C52.2348 18.1693 52.1553 18.1907 52.0361 18.1971C50.3667 18.2785 48.6974 18.3609 47.0244 18.4401C46.8257 18.4497 46.7064 18.4797 46.6088 18.5246C46.5763 18.5396 46.5474 18.5567 46.5004 18.5674C46.4571 18.5771 46.392 18.5803 46.3378 18.5835C44.9069 18.6531 43.4761 18.7248 42.0416 18.7911C41.8284 18.8008 41.7417 18.8404 41.6369 18.8821C41.6007 18.896 41.5754 18.9153 41.5285 18.9249C41.4815 18.9335 41.4128 18.9335 41.355 18.9356C40.1626 18.9934 38.9703 19.0523 37.7779 19.1101C37.5466 19.1047 37.496 19.1668 37.384 19.2043C37.3442 19.2171 37.3154 19.2342 37.2684 19.2428C37.2178 19.2514 37.1527 19.2503 37.0913 19.2524C36.1373 19.2985 35.1834 19.3477 34.2259 19.3905C34.0055 19.4001 33.9621 19.4547 33.8429 19.4922C33.8031 19.504 33.7634 19.5222 33.7165 19.5254C33.1203 19.5564 32.5241 19.5853 31.9279 19.6131C31.7291 19.6228 31.7291 19.6217 31.3786 19.7277C31.3389 19.7394 31.2919 19.7523 31.2413 19.7555C30.3488 19.8004 29.4527 19.8432 28.5566 19.8871C28.441 19.8925 28.3615 19.9182 28.3037 19.9546C28.2459 19.9909 28.1628 20.0145 28.0472 20.0198C27.3317 20.0552 26.6162 20.0915 25.9008 20.1237C25.702 20.1322 25.572 20.159 25.4853 20.2071C25.4202 20.2435 25.3407 20.2617 25.2143 20.2681C24.4988 20.3024 23.7834 20.3399 23.0643 20.3698C22.8548 20.3784 22.7463 20.4148 22.6596 20.4597C22.591 20.4961 22.5114 20.509 22.3778 20.5154C21.0661 20.5775 19.7509 20.6395 18.4429 20.708C18.2225 20.7198 18.1104 20.6823 17.9659 20.6556C17.7599 20.6181 17.5685 20.5775 17.5685 20.494C17.5685 20.4811 17.507 20.4662 17.4637 20.4554C17.1421 20.3752 17.1421 20.3752 17.0915 20.2896C17.0626 20.2371 17.0301 20.1836 17.0048 20.1301C16.9578 20.0423 16.8421 20.0198 16.5097 20.0359C16.3905 20.0413 16.2712 20.0487 16.152 20.053C15.9749 20.0605 15.8413 20.0252 15.8087 19.961C15.7907 19.9257 15.769 19.8903 15.7509 19.855C15.9316 19.8465 15.928 19.8454 16.2459 19.7159C16.3796 19.6613 16.3797 19.6613 16.1231 19.6067C16.0256 19.5864 15.9316 19.5639 15.8268 19.5446C15.7798 19.5361 15.7184 19.5307 15.6678 19.5329C15.3679 19.5457 15.0717 19.5607 14.7754 19.5757C14.2984 19.5992 14.2983 19.5992 13.8142 19.49C13.7744 19.4815 13.713 19.4654 13.7202 19.4569C13.76 19.4173 13.8575 19.4001 13.9804 19.3959C14.161 19.3894 14.3381 19.3787 14.5151 19.3702C14.6344 19.3648 14.7536 19.3584 14.8728 19.3531C14.9849 19.3124 15.1005 19.2728 15.2053 19.231C15.3715 19.1668 15.3715 19.1647 15.1438 19.1197C14.9993 19.0898 14.8439 19.063 14.6958 19.0352C14.5187 19.0437 14.3381 19.0534 14.161 19.0609C13.937 19.0705 13.8467 19.0501 13.7888 18.9806C13.7383 18.9196 13.7997 18.8671 13.9731 18.8543C14.1502 18.8414 14.3165 18.8329 14.4068 18.7783C14.4935 18.7259 14.6453 18.7055 14.8331 18.7012C14.9524 18.698 15.0716 18.6905 15.1909 18.6841C15.3462 18.6756 15.4294 18.621 15.3968 18.56C15.3788 18.5204 15.3426 18.4872 15.2017 18.4786C14.5766 18.4412 14.5693 18.4422 14.2586 18.3694C14.2297 18.363 14.2081 18.3438 14.2189 18.3341C14.237 18.3181 14.2767 18.2945 14.3201 18.2913C14.7356 18.2678 15.1511 18.2464 15.5667 18.2303C15.704 18.225 15.8052 18.2175 15.8521 18.1779C15.9172 18.1233 15.8883 18.073 15.7618 18.0355C15.7221 18.0237 15.657 18.0088 15.6136 18.0098C15.1366 18.0291 14.6633 18.0537 14.1863 18.073C14.143 18.0751 14.0635 18.0569 14.0455 18.043C14.0093 18.0173 14.0635 17.9831 14.19 17.9713C14.3562 17.9552 14.526 17.9542 14.638 17.9007C14.7934 17.8247 14.9849 17.7551 15.1583 17.6823C15.1872 17.6695 15.2343 17.6448 15.2234 17.6427C15.1331 17.6192 15.0283 17.601 14.9343 17.5785C14.7753 17.541 14.7753 17.4886 14.8114 17.4383C14.8404 17.3976 14.9488 17.3816 15.0824 17.3816C15.1403 17.3816 15.2125 17.3816 15.2595 17.3719C15.3823 17.3484 15.4221 17.3184 15.3607 17.2959C15.3245 17.2831 15.2595 17.2649 15.2162 17.267C14.4429 17.3024 13.666 17.3366 12.8964 17.3805C12.6687 17.3933 12.564 17.3527 12.4267 17.3238C12.3219 17.3013 12.2243 17.2927 12.0942 17.3088C11.9714 17.3238 11.8522 17.3152 11.7763 17.2799C11.7148 17.251 11.8232 17.2264 12.1159 17.1985C12.1701 17.1932 12.2315 17.19 12.2713 17.1793C12.6904 17.0637 12.6904 17.0626 12.9795 17.0476C13.2613 17.0337 13.2614 17.0326 13.4095 16.9706C13.4782 16.9417 13.554 16.9128 13.619 16.8828C13.6443 16.871 13.6877 16.8496 13.6733 16.8432C13.5938 16.81 13.4853 16.8025 13.3589 16.81C13.077 16.8282 12.7447 16.8132 12.5965 16.9149C12.5387 16.9534 12.4484 16.9642 12.3183 16.9706C11.0102 17.0326 9.70218 17.099 8.39054 17.1589C8.17735 17.1686 8.07984 17.2082 7.99674 17.2521C7.92447 17.2885 7.84496 17.2992 7.70765 17.3056C7.57035 17.312 7.46189 17.3152 7.3824 17.2799C7.33543 17.2585 7.37518 17.2285 7.48358 17.1985C7.63896 17.1557 7.61004 17.1022 7.55945 17.0519C7.52332 17.0187 7.41131 16.9952 7.29207 16.9973C7.11501 17.0016 6.94523 17.0134 6.79708 16.9706C6.71036 16.946 6.60194 16.9288 6.50438 16.9074C6.31649 16.8635 6.12859 16.8186 5.86481 16.8475C5.68415 16.8368 5.55768 16.7983 5.41315 16.7683C5.17105 16.7191 5.14937 16.7116 5.32281 16.6591C5.51793 16.6002 5.36615 16.5232 5.47455 16.4654C5.59017 16.4033 5.74921 16.3487 5.89013 16.2909C5.92627 16.276 5.9588 16.262 5.99493 16.2471C5.91183 16.2256 5.83596 16.1989 5.7384 16.1839C5.61193 16.1646 5.54689 16.1411 5.55412 16.0747C5.52882 16.0651 5.53959 16.0897 5.5685 16.0961C5.60102 16.1026 5.68057 16.0972 5.72032 16.0897C5.82149 16.0694 5.87202 16.0426 5.84673 16.0202C5.83228 16.0084 5.76368 15.9934 5.72032 15.9934C5.64082 15.9934 5.57218 16.0169 5.5505 16.0747C5.14581 16.1186 4.72659 16.14 4.30744 16.1572C4.26408 16.1593 4.20992 16.1379 4.15933 16.1272C3.99312 16.0908 3.99309 16.0919 3.50529 16.0812C3.45471 16.0801 3.38609 16.0651 3.3608 16.0501C3.25601 15.9848 3.25965 15.9131 3.20906 15.8435C3.30301 15.7986 3.39688 15.7547 3.49444 15.7108C3.68956 15.622 3.94255 15.5439 4.09431 15.4465C4.06179 15.394 4.01843 15.3416 4.17741 15.2988C4.62908 15.2453 4.6255 15.2453 4.74835 15.1939C5.09884 15.0483 5.4457 14.9017 5.81065 14.7583C5.90821 14.7208 5.90822 14.7005 5.73478 14.6844C5.68058 14.6801 5.62269 14.6791 5.56488 14.6812C5.38421 14.6887 5.20355 14.708 5.0265 14.7037C4.84944 14.7005 4.71936 14.6534 4.57483 14.6245C4.42668 14.5945 4.27854 14.5635 4.13039 14.5324C3.96057 14.5356 3.79077 14.5656 3.62095 14.5175C3.49087 14.48 3.32828 14.4532 3.18013 14.4222C3.29214 14.3409 3.50175 14.2788 3.66435 14.2071C3.81249 14.1418 3.81603 14.1429 4.21349 14.0925C4.40139 14.069 4.46643 13.9481 4.30744 13.9127C4.11594 13.8699 3.91363 13.8303 3.71851 13.7896C3.54869 13.7929 3.37528 13.8218 3.21268 13.7736C3.08621 13.7372 2.94165 13.7126 2.73208 13.7265C2.37797 13.75 2.01665 13.7618 1.65893 13.7811C1.53607 13.7875 1.40234 13.7832 1.34814 13.7468C1.31201 13.7212 1.4168 13.6858 1.53604 13.6783C1.71671 13.6676 1.87929 13.6548 1.96962 13.6013C2.05634 13.5478 2.21531 13.5317 2.40321 13.5242C2.45379 13.5221 2.51165 13.5092 2.53694 13.4964C2.66702 13.4343 2.81157 13.3808 3.0898 13.3829C3.20542 13.3615 3.26681 13.3348 3.23068 13.3091C3.209 13.2952 3.13316 13.277 3.0898 13.2791C2.78989 13.2898 2.48999 13.3005 2.19731 13.3198C2.06 13.3284 1.95516 13.3305 1.86844 13.2984C1.80701 13.277 1.83953 13.2481 1.95516 13.217C2.05633 13.1903 2.08527 13.1592 2.07804 13.1229C2.05998 13.0383 1.95155 13.0137 1.60467 13.019C1.35535 13.0233 1.29392 13.0094 1.23972 12.9366C1.22527 12.9195 1.1892 12.896 1.21449 12.8842C1.36987 12.8114 1.47105 12.7215 1.76373 12.6873C1.87935 12.6744 2.00216 12.6744 2.07443 12.6466C2.14669 12.6188 2.21176 12.5866 2.28764 12.5599C2.38159 12.5278 2.44657 12.4978 2.40321 12.4775C2.33094 12.4411 2.21535 12.4379 2.08166 12.4507C1.96603 12.4614 1.84318 12.4625 1.72394 12.4689C1.51076 12.4807 1.33735 12.4529 1.31206 12.4058C1.24341 12.2816 1.17112 12.1585 1.10969 12.0344C1.10247 12.0194 1.12048 12.0001 1.14939 11.9873C1.25056 11.9423 1.35901 11.8995 1.46379 11.8556C1.58665 11.8053 1.7818 11.815 1.94801 11.8053C2.18288 11.7914 2.1828 11.7925 2.49716 11.6897C2.62001 11.6491 2.83321 11.6651 2.95968 11.6287C2.99942 11.617 3.06085 11.5977 3.05001 11.587C3.03556 11.5731 2.96333 11.5624 2.90913 11.5559C2.85854 11.5495 2.79713 11.5463 2.74293 11.5495C2.0853 11.5806 1.4313 11.6137 0.773677 11.6437C0.661663 11.6491 0.538806 11.6255 0.499059 11.5923C0.459313 11.5613 0.470117 11.5238 0.462891 11.4885C0.567677 11.4446 0.686872 11.404 0.777205 11.3569C0.845859 11.3205 0.925366 11.3044 1.06267 11.3023C1.24334 11.2991 1.42041 11.2862 1.62276 11.2766C1.99855 11.1203 2.36708 10.9566 2.77178 10.8003C2.93438 10.7372 2.89469 10.6729 2.92721 10.6055C2.95973 10.5434 3.20181 10.5531 3.36441 10.5349C3.49449 10.5199 3.5378 10.4856 3.48721 10.4621C3.4583 10.4482 3.3933 10.4321 3.34271 10.4321C3.22347 10.4321 3.10423 10.4418 2.98499 10.4471C2.86575 10.4525 2.72845 10.4493 2.63089 10.4675C2.53695 10.4846 2.47549 10.521 2.41406 10.552C2.3454 10.5863 2.25514 10.598 2.11783 10.6002C1.94077 10.6023 1.76373 10.6119 1.58668 10.6194C1.39156 10.5777 1.18917 10.537 1.00127 10.4931C0.965141 10.4846 0.957876 10.46 0.961489 10.4439C0.968716 10.4022 0.91453 10.3765 0.79529 10.3561C0.694116 10.339 0.611002 10.3144 0.517055 10.293C0.589322 10.2641 0.668844 10.2363 0.726657 10.2052C0.853124 10.1399 1.01213 10.0929 1.28674 10.095C1.39514 10.0533 1.48184 10.0019 1.62276 9.97298C1.75645 9.94516 1.9841 9.97297 2.08528 9.90983C2.13586 9.87879 2.21179 9.84347 2.30935 9.83063C2.46472 9.81029 2.66706 9.821 2.7574 9.76107C2.8116 9.72682 2.89106 9.69577 2.99584 9.68721C3.11509 9.67758 3.23791 9.67545 3.32463 9.65511C3.3716 9.64441 3.42219 9.62728 3.42219 9.6123C3.42219 9.60266 3.34998 9.58767 3.2994 9.58125C3.25242 9.57376 3.19093 9.56841 3.13673 9.57055C2.95606 9.57697 2.77901 9.58875 2.59834 9.59517C2.54776 9.59731 2.48996 9.58982 2.43576 9.5834C2.27677 9.56627 2.28759 9.54487 2.41406 9.50634C2.54053 9.46888 2.63091 9.4207 2.7357 9.37682C2.85132 9.36933 2.99583 9.37254 3.07533 9.35221C3.20902 9.31903 3.30294 9.27086 3.41134 9.22912C3.53058 9.2227 3.65343 9.22056 3.76544 9.20879C3.81242 9.20451 3.83411 9.18096 3.87386 9.16705C3.94613 9.14029 4.0076 9.10176 4.10516 9.08892C4.26415 9.06965 4.45927 9.07714 4.55322 9.01828C4.60742 8.98403 4.69049 8.94764 4.79166 8.9455C5.0735 8.94122 5.19275 8.88234 5.33728 8.82669C5.44568 8.78495 5.67694 8.80636 5.79618 8.76462C5.87568 8.73786 5.93352 8.70467 6.01302 8.67899C6.04554 8.66829 6.11417 8.66294 6.16837 8.65973C6.46466 8.64368 6.76456 8.6319 7.06085 8.61477C7.10782 8.61156 7.15122 8.59552 7.18735 8.58267C7.26323 8.55484 7.31015 8.51631 7.4041 8.49811C7.49805 8.47992 7.63172 8.47992 7.74735 8.47457C8.11952 8.45852 8.14846 8.46279 8.31829 8.37181C8.45559 8.29796 8.79168 8.35041 8.90369 8.26907C8.96873 8.22198 9.08792 8.18345 9.3011 8.1781C9.60101 8.17061 9.8973 8.15027 10.1972 8.13635C10.4646 8.12351 10.461 8.12351 10.7501 8.02397C10.8801 7.97902 11.0717 7.98544 11.2415 7.97688C11.4222 7.96832 11.5884 7.95548 11.6751 7.90197C11.7618 7.84952 11.9208 7.83239 12.1051 7.82489C12.2749 7.8174 12.4664 7.82276 12.6001 7.77995C12.9253 7.6772 12.9217 7.67612 13.1494 7.66542C13.5071 7.6483 13.8648 7.63117 14.2225 7.61298C14.461 7.60121 14.7103 7.59907 14.9343 7.57552C15.0969 7.5584 15.1692 7.49846 15.274 7.45672C15.5703 7.44067 15.8665 7.4246 16.1628 7.40962C16.5784 7.38821 16.9975 7.36895 17.4166 7.34862C17.5973 7.30795 17.6227 7.21804 17.9262 7.21376C18.1069 7.21162 18.2839 7.19771 18.4646 7.18915C18.7645 7.17416 19.0608 7.15489 19.3607 7.1474C19.5883 7.14205 19.628 7.08425 19.7472 7.04786C19.787 7.03502 19.8231 7.01683 19.8701 7.01362C20.3399 6.98365 20.824 6.97723 21.2829 6.93334C21.3299 6.92906 21.3732 6.90658 21.3841 6.89053C21.3913 6.88197 21.3299 6.86592 21.2901 6.85843C21.2432 6.84987 21.1818 6.8413 21.1312 6.84344C19.6389 6.91515 18.1466 6.98794 16.6543 7.05964C16.4447 7.07035 16.4447 7.06927 15.9352 7.187C15.8919 7.19664 15.8412 7.20734 15.787 7.21055C15.5485 7.22339 15.3065 7.23089 15.0716 7.24695C14.8801 7.25979 14.7212 7.24693 14.5838 7.2084C14.4863 7.18058 14.3851 7.17202 14.2622 7.17416C14.1249 7.17737 14.0346 7.18915 13.9551 7.21805C13.8503 7.25765 13.7961 7.30902 13.5757 7.31972C12.5604 7.36574 11.545 7.41711 10.5332 7.46635C10.3923 7.45136 10.3237 7.42889 10.3598 7.40213C10.3815 7.38608 10.4248 7.36467 10.4682 7.36253C10.8837 7.34006 11.3029 7.3208 11.7184 7.29939C11.7762 7.29618 11.8557 7.29831 11.8882 7.2876C12.0472 7.23944 12.1051 7.16131 12.405 7.15596C12.5784 7.15275 12.7555 7.1367 12.9217 7.12172C12.9686 7.11744 13.012 7.09496 13.0229 7.0789C13.0265 7.07034 12.9687 7.05428 12.9253 7.04679C12.7663 7.01575 12.5821 7.05322 12.4231 7.03182C12.3689 7.02432 12.2929 7.01362 12.2821 7.00077C12.2749 6.989 12.3363 6.96973 12.3797 6.95796C12.4194 6.94726 12.4736 6.93763 12.5278 6.93442C13.0048 6.9098 13.4818 6.88411 13.9587 6.86484C14.1539 6.85735 14.2911 6.83059 14.3779 6.78136C14.4429 6.74497 14.5224 6.72571 14.6452 6.72036C15.4799 6.68076 16.3146 6.63687 17.1529 6.60048C17.3625 6.59192 17.4709 6.55661 17.5576 6.51058C17.6263 6.47419 17.7058 6.46135 17.8395 6.45493C19.0355 6.39927 20.2242 6.3372 21.4203 6.28368C21.6407 6.27405 21.7057 6.22802 21.8178 6.18842C21.8575 6.17451 21.8827 6.15738 21.9333 6.14882C21.9839 6.14026 22.0489 6.14132 22.1104 6.13918C23.0643 6.09316 24.0183 6.04393 24.9758 6.00112C25.1998 5.99149 25.2431 5.93797 25.3588 5.90051C25.3985 5.88873 25.4347 5.86947 25.4816 5.86626C26.1971 5.82987 26.9125 5.79562 27.6279 5.7603C28.1049 5.73676 28.5819 5.71321 29.0588 5.69073C29.2937 5.68003 29.2937 5.67895 29.6117 5.57728C29.6478 5.5655 29.6984 5.55159 29.7454 5.54838C31.1185 5.47988 32.4879 5.4146 33.861 5.34717C33.9766 5.34182 34.0597 5.31719 34.1175 5.2808C34.1753 5.24441 34.2585 5.2198 34.3705 5.21444C35.4437 5.16093 36.5168 5.10849 37.5936 5.05819C37.7887 5.04962 37.926 5.02393 38.0127 4.97577C38.0777 4.93938 38.1572 4.92012 38.2801 4.91477C39.3532 4.8634 40.4264 4.8088 41.5032 4.75957C41.7092 4.74994 41.8103 4.71355 41.9115 4.67074C41.9476 4.65575 41.9765 4.63114 42.0199 4.629C42.5547 4.59903 43.0858 4.56799 43.6242 4.54765C43.8482 4.53909 43.9241 4.49413 44.0145 4.45132C44.0867 4.41707 44.1699 4.4053 44.3072 4.40102C44.6071 4.39139 44.9034 4.3732 45.196 4.35501C45.2394 4.3518 45.2936 4.32825 45.2972 4.31326C45.3045 4.28544 45.2213 4.26617 45.084 4.25654C43.6531 4.3261 42.2187 4.39567 40.7878 4.46524C40.5529 4.47701 40.5529 4.47702 40.2349 4.5787C40.1988 4.59047 40.1482 4.60438 40.0976 4.60759C38.7245 4.67502 37.3551 4.74138 35.982 4.80881C35.8664 4.81416 35.7833 4.83878 35.7255 4.87517C35.6677 4.91156 35.5845 4.93618 35.4725 4.94153C34.1609 5.00574 32.8492 5.07104 31.534 5.13204C31.3389 5.1406 31.2016 5.16521 31.1149 5.21444C31.0498 5.25083 30.9703 5.27011 30.8475 5.27546C29.5937 5.33539 28.3434 5.39854 27.0859 5.45633C26.9595 5.46168 26.8656 5.43064 26.8728 5.40175C26.8764 5.38676 26.9306 5.36216 26.9739 5.36002C27.6279 5.3247 28.2784 5.2883 28.936 5.26154C29.1564 5.25298 29.2214 5.20589 29.3334 5.16629C29.3696 5.15237 29.3985 5.13418 29.4455 5.12669C29.4961 5.11812 29.5611 5.1192 29.6225 5.11706C31.1726 5.04107 32.7228 4.96401 34.2765 4.8923C34.5006 4.88159 34.5439 4.82914 34.6595 4.79168C34.6992 4.77884 34.7354 4.75958 34.7824 4.75744C35.2593 4.73175 35.7363 4.70927 36.2132 4.6868C37.0479 4.64612 37.8826 4.60545 38.7209 4.56478C38.963 4.55301 38.963 4.553 39.2737 4.45239C39.3099 4.44062 39.3605 4.42565 39.4075 4.42351C41.6152 4.31541 43.823 4.20731 46.0308 4.10028C46.1464 4.09492 46.2295 4.07031 46.2873 4.03392C46.3451 3.9986 46.4282 3.97291 46.5402 3.96649C49.5248 3.82093 52.5058 3.67536 55.4904 3.53194C55.6856 3.52231 55.8228 3.49983 55.9096 3.44953C55.971 3.41314 56.0541 3.39388 56.1769 3.38746C59.4579 3.22798 62.7388 3.06851 66.0233 2.90797C68.231 2.80094 70.4388 2.69177 72.6466 2.58688C72.8489 2.57724 72.9573 2.54406 73.0585 2.50018C73.091 2.48519 73.1235 2.46058 73.1669 2.45843C73.6402 2.43168 74.1135 2.40706 74.5869 2.38245C74.735 2.41135 74.8832 2.43918 75.0313 2.46808C75.1433 2.42741 75.2518 2.38566 75.3638 2.34499C76.0793 2.31395 76.7838 2.26579 77.5065 2.2508C77.5535 2.24973 77.604 2.27007 77.6546 2.28077C77.9907 2.3482 78.1822 2.34285 78.3954 2.25295C78.4712 2.22084 78.5363 2.19194 78.6519 2.18659C79.0096 2.16732 79.371 2.15448 79.7251 2.132C79.9166 2.12023 80.0756 2.13093 80.2129 2.16946C80.3104 2.19729 80.4117 2.20907 80.5309 2.20265C81.1885 2.17054 81.8425 2.13949 82.5002 2.10524C82.5471 2.1031 82.5904 2.0849 82.6266 2.07206C82.7024 2.04423 82.7675 2.01427 82.8398 1.98537C82.9373 2.00357 83.0458 2.01748 83.1253 2.04103C83.2264 2.06886 83.3204 2.06885 83.4577 2.06136C86.0809 1.93185 88.7078 1.80556 91.3311 1.67498C91.5552 1.66428 91.6527 1.70924 91.8045 1.73278C91.8551 1.74135 91.9057 1.75204 91.9599 1.75419C92.0177 1.75633 92.0791 1.74991 92.1369 1.7467C94.1062 1.65037 96.0755 1.55511 98.0447 1.45878C98.3049 1.44594 98.3049 1.44594 98.6916 1.5123C98.7385 1.52086 98.7999 1.53049 98.8505 1.52728C99.7466 1.48554 100.643 1.44059 101.535 1.39778C101.651 1.39243 101.748 1.40955 101.853 1.43417C102.059 1.48233 102.074 1.48234 102.225 1.4117C102.298 1.37852 102.373 1.35817 102.493 1.34854C102.623 1.33784 102.728 1.34106 102.829 1.36032C102.973 1.38708 103.078 1.43203 103.299 1.42025C104.252 1.36995 105.21 1.32821 106.16 1.27684C106.377 1.26506 106.493 1.30145 106.637 1.32821C106.688 1.33784 106.735 1.35283 106.789 1.35604C106.843 1.35925 106.908 1.35175 106.966 1.34854C108.158 1.29074 109.354 1.23403 110.543 1.17195C110.767 1.16018 110.865 1.20619 111.017 1.22974C111.067 1.2383 111.125 1.25329 111.172 1.25115C111.887 1.21797 112.607 1.18264 113.322 1.14732C113.578 1.13448 113.578 1.13555 113.969 1.20084C114.016 1.2094 114.077 1.21796 114.128 1.21582C114.962 1.17622 115.801 1.13555 116.635 1.09488C116.892 1.08204 116.892 1.08204 117.633 1.13769C117.687 1.14198 117.745 1.14841 117.799 1.14626C118.753 1.10024 119.71 1.05528 120.664 1.00605C120.856 0.996417 121.015 1.00498 121.152 1.04351C121.25 1.07134 121.351 1.08311 121.47 1.07669C122.543 1.02425 123.62 0.973947 124.69 0.918292C124.895 0.907589 125.029 0.931126 125.174 0.962164C125.221 0.972867 125.268 0.987854 125.322 0.992136C125.376 0.996417 125.437 0.992132 125.495 0.988922C126.568 0.936477 127.645 0.887246 128.715 0.83052C128.932 0.818747 129.047 0.855135 129.192 0.881892C129.242 0.891525 129.296 0.910791 129.34 0.909721C129.759 0.891526 130.178 0.875477 130.594 0.84872C130.818 0.833736 130.915 0.88296 131.067 0.906507C131.118 0.913999 131.175 0.930061 131.222 0.927921C132.118 0.886179 133.015 0.8423 133.907 0.797348C134.034 0.790926 134.128 0.80055 134.229 0.828377C134.362 0.865838 134.518 0.880822 134.713 0.869049C135.128 0.844432 135.548 0.827312 135.967 0.806977C136.212 0.795203 136.212 0.795207 136.964 0.850862C137.018 0.855144 137.076 0.861561 137.13 0.85942C137.846 0.825171 138.565 0.791994 139.277 0.754533C139.468 0.74383 139.627 0.75346 139.764 0.791991C139.862 0.819819 139.959 0.831598 140.082 0.825176C140.74 0.793068 141.394 0.760956 142.052 0.728847C142.29 0.717074 142.529 0.696733 142.767 0.696733C142.94 0.697803 143.067 0.749176 143.222 0.774863C143.266 0.782355 143.338 0.773802 143.396 0.771662C144.23 0.73099 145.069 0.693526 145.9 0.647504C146.117 0.635731 146.232 0.672118 146.377 0.698876C146.427 0.708508 146.482 0.727775 146.525 0.726705C146.825 0.714931 147.121 0.698875 147.421 0.684961C147.779 0.667837 148.14 0.654993 148.494 0.631447C148.783 0.612181 148.892 0.705294 149.123 0.708505C149.3 0.711716 149.481 0.693524 149.658 0.684961C150.015 0.667837 150.373 0.648574 150.731 0.633589C150.857 0.628238 150.955 0.611106 150.995 0.572575C151.002 0.565083 150.94 0.549036 150.901 0.539403C150.42 0.430233 150.42 0.430228 149.936 0.453774C149.636 0.468758 149.34 0.483745 149.04 0.496588C148.989 0.498729 148.931 0.490167 148.881 0.483745C148.736 0.46555 148.751 0.444147 148.874 0.405616C148.996 0.367085 149.09 0.319997 149.195 0.276115C149.343 0.303942 149.488 0.33176 149.636 0.359588C149.755 0.354236 149.874 0.347824 149.994 0.342472C150.59 0.314645 151.186 0.285745 151.782 0.260057C151.826 0.257917 151.88 0.279326 151.93 0.290029C152.075 0.321067 152.205 0.347817 152.415 0.336044C152.949 0.305006 153.488 0.28253 154.023 0.255772C154.257 0.243999 154.257 0.244 154.669 0.310358C154.716 0.31785 154.778 0.326413 154.828 0.324273C155.367 0.299656 155.901 0.272902 156.44 0.247214C156.555 0.241863 156.668 0.255776 156.751 0.286815C156.783 0.299658 156.776 0.32106 156.913 0.496588C157.34 0.638938 157.632 0.623961 157.929 0.611117C158.055 0.605766 158.167 0.600409 158.25 0.579003C158.294 0.56723 158.348 0.550103 158.348 0.536189C158.348 0.525486 158.268 0.508358 158.218 0.506217C157.86 0.484812 157.52 0.52977 157.17 0.539403C157.007 0.543684 156.866 0.506223 156.837 0.445216C156.83 0.428092 156.819 0.409898 156.808 0.392773C156.798 0.375648 156.79 0.357454 156.78 0.34033C156.639 0.334978 156.556 0.35424 156.494 0.39063C156.444 0.420599 156.371 0.454848 156.274 0.470902C156.176 0.488027 156.042 0.484822 155.923 0.490174C155.808 0.495525 155.681 0.509437 155.573 0.501945C155.464 0.493383 155.378 0.462339 155.276 0.443074C155.229 0.433441 155.172 0.419532 155.125 0.421673C154.709 0.439868 154.297 0.458056 153.885 0.481603C153.669 0.494446 153.56 0.449501 153.423 0.421673C153.314 0.400267 153.206 0.405612 153.188 0.454845C153.141 0.572578 153.307 0.621809 153.676 0.599333C153.979 0.580067 154.254 0.576866 154.492 0.649646C154.525 0.659279 154.601 0.663559 154.648 0.661418C154.944 0.648575 155.237 0.632519 155.533 0.619675C155.587 0.617534 155.645 0.621809 155.696 0.62609C156.433 0.683886 156.433 0.684962 156.682 0.672118C156.801 0.665697 156.917 0.660345 156.906 0.49766C157.134 0.323202 157.495 0.311431 157.846 0.285744C158.073 0.269689 158.171 0.316784 158.319 0.341401C158.369 0.349963 158.424 0.367085 158.471 0.364944C159.247 0.329625 160.021 0.292159 160.794 0.252558C160.924 0.246136 161.018 0.252559 161.119 0.280387C161.249 0.315707 161.394 0.338187 161.6 0.325344C162.012 0.299657 162.431 0.283606 162.85 0.2622C163.063 0.251497 163.063 0.251486 163.493 0.317845C163.54 0.325337 163.601 0.333899 163.652 0.331759C164.071 0.313564 164.487 0.291094 164.902 0.271829C165.018 0.266478 165.123 0.28146 165.213 0.310358C165.303 0.339256 165.412 0.354239 165.524 0.348887C165.943 0.329622 166.359 0.308223 166.774 0.288958C166.825 0.286817 166.886 0.294308 166.933 0.301801C167.374 0.368159 167.374 0.368148 167.576 0.357445C167.872 0.34139 168.176 0.333907 168.469 0.312501C168.754 0.291095 168.902 0.353167 169.097 0.387416C169.632 0.3628 170.171 0.342469 170.702 0.312501C170.919 0.299657 171.034 0.334974 171.179 0.362802C171.229 0.372434 171.28 0.392772 171.327 0.391702C171.507 0.38742 171.685 0.375649 171.862 0.367087C172.039 0.358525 172.219 0.349963 172.396 0.341401C172.599 0.37244 172.732 0.445219 173.022 0.420602C173.195 0.405618 173.379 0.402407 173.556 0.393844C173.733 0.385282 173.914 0.376721 174.091 0.368158C174.21 0.362807 174.333 0.359591 174.449 0.349959C174.662 0.333904 174.767 0.386355 174.919 0.409901C174.969 0.417393 175.027 0.430229 175.074 0.428088C175.432 0.413104 175.793 0.400261 176.143 0.375645C176.414 0.356379 176.599 0.388492 176.79 0.433445C176.83 0.443077 176.899 0.448428 176.949 0.446288C177.368 0.428093 177.784 0.40561 178.199 0.386345C178.311 0.380994 178.42 0.398118 178.51 0.425945C178.604 0.454843 178.709 0.468768 178.824 0.463416C179.24 0.444151 179.659 0.422739 180.075 0.403473C180.125 0.401333 180.187 0.409897 180.234 0.418459C180.638 0.484817 180.638 0.485889 180.877 0.473045C180.935 0.469834 180.996 0.467685 181.054 0.464474C181.35 0.44949 181.657 0.444146 181.946 0.418459C182.279 0.389561 182.521 0.425953 182.756 0.48696C183.052 0.474116 183.356 0.466622 183.645 0.445216C183.862 0.429162 183.977 0.469831 184.122 0.496588C184.172 0.506221 184.226 0.525486 184.27 0.523346C184.689 0.505151 185.108 0.489102 185.52 0.462345C185.744 0.447361 185.842 0.495515 185.993 0.520132C186.044 0.528694 186.098 0.543686 186.145 0.541546C186.384 0.532983 186.622 0.520133 186.861 0.50836C187.139 0.494446 187.139 0.495516 187.507 0.560804C187.681 0.591842 187.854 0.567224 188.024 0.559732C188.205 0.55117 188.375 0.54475 188.519 0.588632C188.609 0.61646 188.718 0.633585 188.83 0.629304C189.068 0.619671 189.31 0.610043 189.545 0.593989C189.733 0.581145 189.896 0.589703 190.033 0.629304C190.131 0.657132 190.232 0.671054 190.351 0.664632C190.886 0.638945 191.424 0.612178 191.959 0.587561C192.006 0.58542 192.071 0.595057 192.114 0.604689C192.216 0.623955 192.313 0.645356 192.411 0.666762C192.646 0.657129 192.888 0.652859 193.119 0.637875C193.365 0.622891 193.589 0.617538 193.78 0.676404C193.82 0.689247 193.878 0.707432 193.925 0.706362C194.105 0.702081 194.282 0.691381 194.459 0.682819C194.636 0.674256 194.817 0.665695 194.994 0.657133C195.2 0.68389 195.33 0.76095 195.619 0.736334C195.793 0.721349 195.977 0.718139 196.154 0.709576C196.331 0.701014 196.512 0.691382 196.689 0.68389C196.747 0.68175 196.812 0.676395 196.862 0.680676C196.917 0.684957 196.963 0.699945 197.01 0.710648C197.155 0.741686 197.289 0.772728 197.495 0.754533C197.668 0.739549 197.852 0.736337 198.029 0.726705C198.272 0.714931 198.272 0.714933 198.673 0.782362C198.835 0.81019 199.019 0.773801 199.175 0.797348C199.28 0.813402 199.37 0.840154 199.471 0.858349C199.515 0.865841 199.583 0.869047 199.634 0.866906C199.872 0.857274 200.114 0.847646 200.349 0.831591C200.541 0.818748 200.7 0.83159 200.833 0.87012C200.931 0.897948 201.028 0.909728 201.151 0.903306C201.748 0.873338 202.344 0.847642 202.936 0.814463C203.139 0.80269 203.301 0.820889 203.413 0.85942C203.605 0.925778 203.876 0.847648 204.075 0.901163C204.197 0.934342 204.32 0.972875 204.544 0.956821C204.956 0.928993 205.375 0.914 205.791 0.894735C205.939 0.923633 206.087 0.952537 206.239 0.981435C206.477 0.969662 206.716 0.957881 206.954 0.947179C207.131 0.938616 207.312 0.928985 207.489 0.921493C207.547 0.919352 207.608 0.91507 207.663 0.920421C207.717 0.925773 207.76 0.93969 207.811 0.950393C208.06 1.00284 208.06 1.00391 208.472 0.982507C208.649 0.972874 208.819 0.966452 208.967 1.00926C209.104 1.04886 209.267 1.05635 209.455 1.04458C209.809 1.02317 210.167 1.00712 210.528 0.992136C210.64 0.986784 210.745 1.00498 210.839 1.03281C210.98 1.07669 211.153 1.07241 211.33 1.06064C211.565 1.04565 211.796 1.03067 211.995 1.09061C212.035 1.10345 212.096 1.12164 212.14 1.12057C212.436 1.112 212.736 1.10559 213.025 1.08525C213.314 1.06492 213.455 1.13127 213.654 1.16338C213.95 1.14947 214.25 1.13555 214.546 1.12164C214.604 1.11843 214.672 1.1088 214.723 1.11415C214.936 1.13663 215.059 1.2169 215.352 1.19228C215.522 1.17837 215.706 1.17409 215.883 1.17088C215.93 1.16981 215.991 1.188 216.024 1.20191C216.042 1.2094 216.024 1.22974 216.002 1.24044C215.937 1.27041 215.858 1.29824 215.8 1.32928C215.793 1.33356 215.861 1.35282 215.901 1.36138C215.999 1.38065 216.111 1.37744 216.241 1.36888C216.353 1.36139 216.468 1.37637 216.548 1.40848C216.58 1.42133 216.569 1.44273 216.501 1.51337C216.501 1.56581 216.577 1.54226 216.602 1.50801C216.642 1.45878 216.566 1.44273 216.421 1.46948C216.32 1.48875 216.27 1.51658 216.295 1.53905C216.309 1.55083 216.378 1.56581 216.501 1.51337C216.819 1.44915 217.057 1.43738 217.296 1.42561C217.357 1.4224 217.429 1.41169 217.473 1.41811C217.628 1.4438 217.773 1.47484 217.924 1.50374C218.098 1.49732 218.261 1.48126 218.43 1.523C218.669 1.58186 218.68 1.57651 218.911 1.56474C219.03 1.55832 219.149 1.55298 219.269 1.54763C219.388 1.54227 219.482 1.55832 219.587 1.58294C219.8 1.63324 219.818 1.63324 219.959 1.56474C220.042 1.523 220.1 1.50909 220.204 1.52835C220.551 1.59364 220.555 1.59792 220.851 1.57866C221.097 1.5626 221.328 1.55832 221.509 1.61933C221.632 1.66214 221.671 1.65251 221.769 1.60756C222.029 1.48875 222.148 1.49089 222.636 1.57651C222.864 1.61718 223.099 1.57331 223.33 1.56795C223.525 1.56367 223.662 1.58936 223.677 1.65678C223.688 1.69853 223.72 1.7285 223.85 1.74241C223.901 1.74776 223.962 1.75525 224.013 1.75311C224.313 1.74027 224.609 1.72528 224.909 1.7103C225.061 1.70281 225.144 1.65251 225.115 1.58615C225.082 1.51552 225.14 1.48982 225.357 1.46948C225.487 1.45771 225.592 1.45986 225.697 1.47913C225.812 1.50053 225.78 1.5198 225.679 1.55833C225.437 1.65251 225.466 1.7103 225.776 1.77559C225.885 1.79806 225.971 1.81841 225.997 1.85159C226.011 1.86871 225.997 1.89119 226.029 1.90403C226.206 1.97574 226.452 2.02177 226.727 2.05602C226.99 2.02712 227.171 2.07527 227.373 2.1138C227.532 2.14377 227.72 2.11809 227.89 2.10739C228.082 2.09561 228.241 2.10417 228.378 2.14377C228.475 2.1716 228.577 2.18444 228.696 2.17909C228.934 2.16732 229.176 2.15983 229.411 2.1427C229.614 2.12772 229.765 2.14913 229.892 2.18552C230.051 2.23154 230.228 2.2005 230.394 2.20692C230.618 2.21441 230.73 2.30966 231.023 2.28398C231.196 2.26899 231.377 2.26364 231.558 2.25936C231.605 2.25829 231.662 2.27649 231.702 2.28933C231.894 2.3482 232.118 2.34499 232.363 2.32786C232.533 2.31609 232.699 2.30539 232.866 2.34606C233.14 2.41456 233.444 2.4745 233.733 2.53765C233.773 2.58688 233.744 2.64467 233.95 2.67356C234.058 2.68855 234.159 2.71103 234.242 2.73565C234.343 2.76455 234.437 2.77204 234.567 2.76455C234.802 2.74957 235.048 2.74634 235.279 2.72708C235.493 2.70995 235.626 2.74529 235.756 2.77846C235.861 2.80522 235.959 2.81806 236.085 2.79879C236.215 2.7806 236.309 2.79237 236.414 2.82127C236.562 2.86087 236.573 2.85659 237.064 2.86837C237.115 2.86944 237.176 2.88548 237.205 2.8994C237.22 2.90689 237.187 2.92831 237.162 2.93901C237.129 2.95185 237.079 2.96683 237.032 2.97004C236.497 2.99787 235.959 3.02248 235.424 3.05031C235.37 3.05352 235.312 3.06102 235.272 3.07172C235.229 3.0835 235.175 3.09954 235.175 3.11453C235.175 3.12523 235.247 3.13808 235.297 3.14557C235.456 3.17019 235.644 3.13273 235.8 3.16055C235.904 3.17875 235.991 3.20443 236.096 3.22156C236.139 3.22905 236.208 3.22798 236.262 3.22584C236.443 3.21835 236.62 3.20765 236.801 3.20123C236.851 3.20016 236.909 3.21086 236.956 3.21943C237.303 3.28364 237.303 3.28364 237.603 3.26973C237.722 3.26437 237.848 3.24832 237.96 3.25474C238.069 3.26116 238.163 3.29006 238.26 3.30826C238.463 3.34679 238.654 3.38425 238.669 3.46773C238.676 3.49984 238.795 3.52766 238.914 3.5298C239.03 3.53194 239.153 3.52018 239.272 3.51376C239.554 3.50091 239.554 3.50091 239.919 3.5662C240.02 3.5844 240.128 3.58653 240.258 3.57583C240.309 3.57155 240.371 3.57583 240.425 3.58119C240.602 3.59724 240.602 3.61757 240.486 3.6561C240.324 3.71283 240.338 3.71818 240.793 3.76634C240.967 3.78454 241.1 3.81879 241.245 3.84876C241.48 3.89692 241.476 3.89691 241.321 3.96006C241.285 3.97398 241.252 3.98896 241.216 4.00395C241.111 4.04569 241.028 4.09064 240.811 4.09492C240.573 4.0992 240.334 4.11633 240.096 4.12811C239.865 4.13988 239.803 4.16556 239.825 4.23834C239.85 4.3261 239.897 4.33573 240.313 4.33466C240.432 4.33466 240.537 4.34322 240.627 4.37212C240.584 4.40637 240.504 4.43313 240.389 4.43955C240.092 4.45561 239.792 4.46952 239.496 4.48344C239.258 4.49521 239.019 4.50698 238.781 4.51875C238.633 4.52624 238.539 4.5819 238.578 4.64398C238.6 4.6793 238.618 4.71462 238.636 4.74994C238.676 4.82058 238.752 4.83878 238.994 4.83557C239.055 4.8345 239.113 4.82593 239.171 4.82807C239.406 4.83556 239.518 4.92439 239.8 4.9062C240.034 4.89121 240.28 4.88801 240.511 4.86874C240.725 4.85162 240.844 4.89016 240.992 4.91905C241.043 4.92869 241.097 4.94901 241.14 4.94794C241.44 4.93617 241.74 4.9244 242.033 4.90407C242.17 4.89551 242.253 4.90193 242.361 4.92761C242.622 4.98969 242.629 4.98648 243.016 4.96721C243.297 4.95223 243.301 4.95437 243.662 5.01966C243.763 5.03785 243.872 5.03785 244.002 5.02928C244.172 5.01858 244.349 5.00146 244.526 5.01751C244.58 5.02179 244.649 5.03464 244.667 5.04856C244.678 5.05819 244.627 5.08174 244.584 5.08923C244.266 5.14488 243.894 5.13525 243.547 5.15773C243.438 5.16415 243.33 5.14381 243.239 5.11491C243.146 5.08602 243.044 5.07425 242.922 5.0796C242.683 5.09137 242.441 5.09886 242.206 5.11599C242.004 5.13097 241.863 5.10635 241.722 5.07317C241.675 5.06247 241.621 5.04213 241.574 5.0432C241.039 5.06461 240.501 5.08602 239.969 5.11599C239.756 5.12883 239.633 5.09458 239.489 5.06568C239.438 5.05605 239.388 5.03571 239.341 5.03678C239.16 5.04107 238.983 5.05284 238.802 5.0614C238.145 5.09351 237.491 5.12562 236.833 5.15559C236.79 5.15773 236.736 5.13525 236.685 5.12561C236.587 5.10635 236.486 5.08815 236.385 5.06996C236.204 5.07852 236.027 5.08922 235.847 5.09564C235.717 5.09992 235.601 5.11491 235.583 5.15559C235.572 5.18234 235.691 5.20696 235.818 5.20481C235.941 5.20267 236.063 5.18983 236.165 5.20374C236.667 5.27224 236.667 5.27331 236.981 5.2594C237.256 5.24656 237.227 5.23585 237.469 5.29472C237.574 5.3204 237.668 5.33539 237.787 5.32897C238.083 5.31399 238.383 5.299 238.683 5.28616C238.73 5.28402 238.791 5.29472 238.838 5.30329C239.193 5.3675 239.193 5.36964 239.485 5.35359C239.868 5.33432 239.883 5.32897 240.139 5.39426C240.316 5.43921 240.479 5.40817 240.649 5.40603C240.844 5.44777 241.057 5.48524 241.234 5.53233C241.444 5.58799 241.664 5.57834 241.903 5.56229C242.08 5.55052 242.253 5.54624 242.398 5.59012C242.535 5.63079 242.701 5.63508 242.889 5.62438C243.059 5.61474 243.232 5.5944 243.409 5.61795C243.456 5.62437 243.529 5.64043 243.525 5.65006C243.521 5.66505 243.474 5.68645 243.427 5.69288C243.095 5.73676 242.73 5.73568 242.38 5.75602C242.333 5.75923 242.271 5.74745 242.224 5.73889C242.123 5.71963 242.025 5.69715 241.928 5.67682C241.751 5.68324 241.57 5.68538 241.397 5.69822C241.263 5.70785 241.162 5.70679 241.064 5.6811C240.974 5.65756 240.876 5.62865 240.768 5.62116C240.66 5.61367 240.533 5.62973 240.414 5.63615C240.295 5.64257 240.157 5.63935 240.063 5.65648C239.969 5.6736 239.912 5.71107 239.85 5.74103C239.782 5.77421 239.688 5.78492 239.55 5.78813C239.424 5.79134 239.323 5.78706 239.229 5.75709C239.189 5.74425 239.135 5.73461 239.081 5.72605C239.03 5.71856 238.972 5.70678 238.925 5.70892C238.387 5.73354 237.852 5.7603 237.314 5.78599C237.046 5.79883 237.05 5.79882 236.493 5.73568C236.443 5.73033 236.381 5.72284 236.331 5.72498C236.031 5.73782 235.735 5.75281 235.435 5.76779C235.131 5.78278 235.135 5.78063 234.618 5.71321C234.524 5.70036 234.387 5.71749 234.275 5.71535C234.04 5.71 233.924 5.62009 233.65 5.63722C233.415 5.6522 233.169 5.65541 232.934 5.67468C232.721 5.6918 232.598 5.65434 232.454 5.62545C232.403 5.61581 232.349 5.59441 232.306 5.59655C231.767 5.62009 231.232 5.64685 230.517 5.65006C230.34 5.65006 230.419 5.67254 230.535 5.68003C230.701 5.69181 230.755 5.66933 230.665 5.62652C230.6 5.59655 230.506 5.58156 230.43 5.58905C230.39 5.59333 230.34 5.61367 230.517 5.65006C230.705 5.69073 230.694 5.7132 230.727 5.72605C230.806 5.75709 230.918 5.76993 231.034 5.76565C231.214 5.75816 231.391 5.74746 231.572 5.74103C231.623 5.73889 231.684 5.74639 231.731 5.75495C232.129 5.82131 232.132 5.82559 232.555 5.79991C232.689 5.79241 232.786 5.79241 232.891 5.81275C233.035 5.84058 233.14 5.88766 233.361 5.87268C233.653 5.85234 233.953 5.84058 234.253 5.82881C234.3 5.82666 234.351 5.84593 234.405 5.85449C234.553 5.88018 234.661 5.92834 234.882 5.90801C235.052 5.89195 235.236 5.88766 235.417 5.88445C235.464 5.88338 235.536 5.90051 235.558 5.91442C235.601 5.93904 235.547 5.96794 235.424 5.98828C235.373 5.99684 235.305 5.9947 235.247 5.99791C235.008 6.00968 234.77 6.02252 234.531 6.03215C234.405 6.0375 234.286 6.05356 234.271 6.09316C234.26 6.11992 234.39 6.14346 234.513 6.14132C234.694 6.13811 234.875 6.12955 235.048 6.11564C235.355 6.09209 235.623 6.09851 235.872 6.16594C236.049 6.21303 236.038 6.19591 236.226 6.33505C236.273 6.37037 236.414 6.37358 236.537 6.37144C236.833 6.36609 236.97 6.38215 236.945 6.41533C236.913 6.456 236.808 6.46883 236.674 6.47418C236.436 6.48275 236.197 6.49667 235.959 6.50844C235.901 6.51165 235.836 6.51807 235.782 6.51593C235.727 6.51379 235.677 6.50094 235.63 6.49131C235.529 6.47098 235.442 6.43993 235.334 6.43244C235.225 6.42495 235.099 6.441 234.979 6.44743C234.86 6.45278 234.734 6.46883 234.625 6.46134C234.517 6.45385 234.427 6.42175 234.329 6.40248C234.282 6.39285 234.224 6.37786 234.177 6.37893C233.939 6.38749 233.7 6.40141 233.462 6.41211C233.169 6.42602 233.169 6.42603 232.815 6.35967C232.714 6.3404 232.609 6.34148 232.475 6.35004C232.186 6.36716 232.183 6.36394 231.655 6.30187C231.605 6.29545 231.543 6.28796 231.493 6.29117C230.954 6.31578 230.419 6.34254 229.885 6.36823C229.426 6.3907 229.426 6.39071 229.173 6.49774C228.985 6.57694 228.981 6.57694 229.166 6.61333C229.314 6.6433 229.447 6.68717 229.61 6.70323C229.762 6.71821 229.95 6.67005 230.116 6.71929C230.199 6.7439 230.307 6.77066 230.412 6.77494C230.578 6.78029 230.755 6.74925 230.914 6.79634C230.994 6.81989 231.113 6.84452 231.214 6.84559C231.391 6.84773 231.572 6.83059 231.749 6.8231C231.803 6.82096 231.865 6.82096 231.915 6.82631C231.97 6.83274 232.016 6.84558 232.063 6.85629C232.208 6.89268 232.363 6.9098 232.551 6.8916C232.858 6.86163 233.133 6.87662 233.372 6.94512C233.404 6.95475 233.484 6.95582 233.534 6.95154C233.664 6.94084 233.776 6.93977 233.874 6.9601C233.913 6.96866 233.971 6.98364 233.964 6.99327C233.953 7.00933 233.91 7.03074 233.863 7.03609C233.523 7.07248 233.158 7.07677 232.808 7.09603C232.761 7.09817 232.703 7.08425 232.656 7.07462C232.555 7.05535 232.468 7.02325 232.36 7.01576C232.251 7.00827 232.125 7.02218 232.006 7.02753C231.886 7.03288 231.76 7.04894 231.652 7.04252C231.543 7.03502 231.442 7.00826 231.355 6.98472C231.254 6.95796 231.157 6.95476 231.023 6.96546C230.849 6.97937 230.669 6.98151 230.492 6.989C230.394 6.96867 230.297 6.94618 230.195 6.92692C230.148 6.91728 230.091 6.90552 230.04 6.90659C229.802 6.91515 229.563 6.92799 229.325 6.93976C229.086 6.95153 229.086 6.95154 228.681 6.88519C228.634 6.87769 228.573 6.86913 228.522 6.87127C228.222 6.88412 227.926 6.90016 227.626 6.913C227.511 6.91835 227.406 6.90337 227.312 6.87447C227.222 6.84557 227.113 6.82952 227.001 6.83487C226.524 6.85735 226.047 6.87876 225.57 6.90552C225.379 6.91622 225.216 6.90659 225.086 6.86806C224.934 6.82418 224.765 6.83488 224.587 6.84344C224.186 6.86485 224.183 6.86377 223.926 6.80919C223.876 6.79848 223.825 6.77814 223.778 6.77921C223.363 6.79527 222.943 6.81026 222.532 6.83594C222.315 6.84986 222.199 6.8124 222.055 6.78457C222.004 6.77494 221.95 6.7546 221.906 6.75674C221.607 6.76852 221.307 6.77922 221.014 6.80063C220.721 6.82203 220.609 6.7225 220.389 6.72357C220.089 6.72464 219.793 6.74926 219.496 6.76424C219.258 6.77602 219.019 6.78778 218.781 6.79956C218.542 6.81133 218.304 6.82096 218.065 6.83487C217.939 6.84236 217.845 6.83273 217.74 6.80597C217.607 6.77065 217.448 6.74284 217.303 6.71073C217.083 6.6647 217.083 6.6647 216.815 6.67754C216.757 6.68075 216.696 6.68289 216.638 6.6861C216.201 6.70965 216.201 6.70751 215.644 6.64008C215.619 6.63687 215.554 6.64865 215.529 6.65721C215.453 6.68504 215.384 6.715 215.316 6.7439C215.218 6.72678 215.099 6.71714 215.034 6.69253C214.85 6.62296 214.56 6.71821 214.373 6.64971C214.304 6.62403 214.185 6.60155 214.076 6.59513C213.964 6.58871 213.838 6.60369 213.722 6.61011C213.422 6.62617 213.422 6.6251 213.166 6.72036C213.036 6.76745 212.848 6.75888 212.678 6.76959C212.501 6.78136 212.331 6.78778 212.183 6.7439C212.049 6.7043 211.887 6.69467 211.695 6.70751C211.46 6.72357 211.218 6.7332 210.98 6.74283C210.929 6.74497 210.868 6.73962 210.817 6.7332C210.264 6.67005 210.264 6.66898 209.997 6.6829C209.878 6.68932 209.755 6.69145 209.639 6.70109C209.444 6.71821 209.296 6.69573 209.155 6.66149C209.108 6.65078 209.054 6.63046 209.007 6.63153C208.768 6.63688 208.533 6.64651 208.299 6.65614C208.118 6.66363 207.937 6.66791 207.764 6.6829C207.475 6.70752 207.334 6.63794 207.135 6.60583C206.839 6.61974 206.539 6.62938 206.243 6.64864C206.105 6.6572 206.015 6.654 205.91 6.62831C205.776 6.5962 205.654 6.55981 205.437 6.57587C205.148 6.59728 204.844 6.60477 204.548 6.61761C204.349 6.58443 204.205 6.517 203.919 6.54161C203.746 6.5566 203.561 6.55981 203.384 6.56837C203.146 6.58014 202.907 6.59085 202.669 6.6037C202.412 6.61654 202.416 6.61333 202.022 6.55018C201.795 6.51272 201.56 6.55446 201.328 6.56088C201.148 6.56624 201.057 6.61547 201.101 6.67861C201.144 6.74176 201.047 6.79099 200.88 6.79956C200.465 6.81989 200.046 6.84129 199.63 6.85949C199.58 6.86163 199.518 6.85414 199.471 6.84664C199.027 6.77922 199.027 6.7803 198.828 6.78993C198.532 6.80598 198.228 6.81454 197.935 6.83487C197.733 6.84879 197.585 6.82632 197.455 6.78993C197.354 6.7621 197.26 6.75568 197.13 6.7621C195.699 6.83381 194.268 6.90017 192.841 6.97402C192.627 6.98472 192.505 6.95368 192.36 6.92479C192.31 6.91515 192.263 6.89481 192.212 6.89481C192.093 6.89481 191.973 6.90445 191.854 6.91087C191.319 6.93656 190.785 6.96759 190.246 6.98686C190.019 6.99542 189.957 7.04466 189.86 7.08533C189.784 7.11637 189.697 7.12921 189.563 7.13349C189.433 7.13777 189.339 7.13242 189.238 7.10459C189.108 7.0682 188.96 7.04572 188.758 7.0607C188.523 7.07783 188.284 7.08533 188.042 7.0971C187.919 7.10245 187.825 7.12172 187.786 7.16025C187.778 7.16667 187.854 7.18273 187.898 7.19236C188.042 7.22447 188.179 7.26193 188.342 7.2844C188.508 7.30688 188.689 7.28118 188.862 7.27476C188.924 7.27262 188.982 7.2662 189.039 7.26728C189.094 7.26835 189.159 7.2737 189.198 7.28333C189.386 7.3315 189.585 7.36467 189.845 7.33578C190.069 7.34969 190.185 7.43852 190.47 7.41498C190.644 7.40106 190.824 7.39464 191.005 7.38929C191.052 7.38822 191.103 7.40749 191.153 7.41712C191.298 7.44388 191.413 7.48669 191.63 7.46849C191.861 7.44923 192.107 7.44602 192.342 7.43103C192.472 7.42247 192.566 7.42996 192.667 7.45779C192.797 7.49311 192.945 7.51986 193.148 7.50273C193.321 7.48775 193.506 7.48454 193.683 7.47491C193.914 7.46313 193.914 7.46421 194.326 7.53056C194.373 7.53806 194.434 7.54662 194.485 7.54448C194.785 7.53163 195.081 7.51558 195.381 7.50273C195.496 7.49738 195.609 7.5113 195.688 7.54234C195.721 7.55518 195.71 7.5766 195.72 7.59479C195.124 7.62369 194.528 7.6483 193.936 7.68362C193.711 7.69754 193.61 7.65365 193.462 7.62904C193.412 7.62047 193.357 7.60228 193.31 7.60442C192.891 7.62262 192.476 7.64188 192.06 7.66542C191.93 7.67291 191.833 7.66863 191.735 7.63759C191.486 7.55518 191.182 7.60013 190.9 7.61191C190.684 7.62047 190.615 7.65365 190.64 7.72429C190.673 7.80778 190.803 7.83346 191.135 7.81848C191.254 7.81313 191.374 7.80563 191.493 7.80135C191.609 7.79707 191.713 7.81098 191.807 7.83988C191.898 7.86878 192.006 7.88376 192.118 7.87948C192.356 7.86985 192.599 7.86022 192.83 7.84417C193.021 7.83132 193.18 7.84202 193.314 7.88162C193.462 7.92551 193.636 7.91587 193.809 7.90624C194.214 7.88483 194.217 7.88591 194.47 7.93942C194.521 7.95013 194.571 7.97047 194.618 7.9694C195.034 7.95334 195.453 7.93942 195.861 7.91374C196.075 7.90089 196.197 7.93514 196.338 7.96297C196.389 7.9726 196.44 7.99401 196.487 7.99187C196.786 7.98009 197.086 7.96832 197.379 7.94798C197.516 7.93835 197.599 7.94477 197.711 7.97045C197.979 8.0336 197.986 8.03146 198.365 8.01113C198.481 8.0047 198.608 7.99293 198.716 8.0015C198.824 8.01006 198.911 8.0411 199.012 8.06037C199.059 8.06893 199.117 8.08069 199.168 8.07855C199.406 8.06999 199.645 8.05716 199.883 8.04538C200.107 8.03361 200.107 8.03468 200.526 8.10104C200.696 8.12887 200.873 8.10532 201.043 8.09675C201.227 8.08712 201.393 8.08713 201.534 8.12887C201.675 8.17061 201.845 8.16846 202.026 8.1599C202.196 8.15134 202.369 8.1278 202.542 8.1567C202.94 8.22305 202.94 8.22411 203.186 8.21127C203.543 8.19307 203.897 8.17595 204.259 8.1599C204.306 8.15776 204.367 8.17061 204.414 8.17917C204.515 8.19843 204.602 8.23054 204.71 8.23803C204.819 8.24659 204.945 8.23375 205.061 8.22733C205.433 8.20699 205.458 8.1995 205.708 8.27014C205.917 8.32794 206.178 8.24445 206.373 8.31081C206.485 8.34827 206.636 8.37824 206.846 8.36004C207.019 8.34506 207.2 8.34078 207.381 8.33221C207.666 8.3183 207.666 8.31938 208.028 8.3836C208.074 8.39216 208.136 8.40285 208.183 8.40071C208.421 8.39215 208.664 8.38466 208.895 8.3654C209.166 8.34292 209.339 8.3836 209.541 8.4232C209.7 8.45424 209.888 8.42854 210.058 8.41784C210.243 8.40714 210.409 8.41034 210.546 8.45209C210.691 8.4949 210.86 8.48955 211.041 8.48099C211.211 8.47349 211.384 8.44888 211.558 8.47884C211.93 8.5452 211.93 8.5452 212.201 8.53236C212.439 8.52059 212.678 8.50775 212.916 8.49919C212.963 8.49705 213.021 8.51095 213.068 8.52059C213.169 8.53985 213.256 8.57197 213.364 8.57946C213.473 8.58695 213.599 8.57304 213.719 8.56769C213.838 8.56234 213.964 8.54628 214.073 8.5527C214.181 8.55912 214.282 8.58588 214.369 8.60943C214.47 8.63726 214.564 8.64046 214.701 8.62976C214.875 8.61584 215.055 8.61264 215.232 8.60514C215.33 8.62548 215.431 8.64581 215.525 8.66829C215.623 8.69183 215.728 8.68969 215.861 8.6822C216.306 8.65652 216.309 8.65973 216.681 8.72609C216.851 8.75606 217.028 8.73144 217.198 8.72394C217.379 8.71538 217.549 8.7111 217.69 8.75392C217.827 8.79459 217.997 8.79993 218.177 8.78709C218.293 8.77853 218.416 8.77318 218.535 8.76997C218.589 8.7689 218.654 8.77318 218.694 8.78174C218.886 8.8267 219.074 8.86737 219.337 8.83847C219.569 8.84704 219.684 8.9348 219.962 8.91768C220.197 8.90269 220.443 8.89947 220.674 8.8802C220.887 8.86308 221.039 8.89306 221.148 8.93052C221.343 8.99688 221.617 8.90697 221.812 8.97226C221.924 9.00972 222.069 9.03969 222.286 9.02363C222.524 9.00651 222.6 9.02898 222.669 9.09641C222.709 9.13494 222.701 9.16598 222.629 9.19595C222.557 9.22699 222.477 9.22164 222.362 9.18632C222.228 9.14672 222.069 9.13922 221.877 9.14778C221.69 9.15634 221.574 9.1007 221.419 9.07929C221.263 9.05681 221.079 9.09427 220.916 9.06538C220.533 8.99795 220.533 8.99795 220.273 9.01079C220.096 9.01935 219.912 9.02363 219.738 9.03862C219.532 9.05681 219.399 9.02363 219.258 8.99366C219.207 8.98296 219.157 8.96262 219.113 8.96369C218.698 8.97974 218.279 8.99473 217.867 9.02149C217.65 9.0354 217.534 8.99688 217.39 8.97012C217.339 8.96049 217.285 8.94122 217.242 8.94336C216.884 8.95834 216.53 8.97761 216.172 8.9958C216.103 9.0247 216.027 9.05252 215.962 9.08356C215.894 9.11567 215.8 9.12959 215.663 9.12852C215.435 9.12852 215.211 9.17347 214.983 9.11675C214.748 9.05895 214.73 9.06216 214.503 9.07608C214.214 9.09427 213.906 9.08999 213.635 9.13173C213.588 9.13923 213.538 9.15955 213.538 9.17453C213.534 9.18417 213.61 9.19809 213.657 9.20665C213.816 9.23234 214 9.19488 214.159 9.22163C214.264 9.23876 214.351 9.26444 214.456 9.28264C214.499 9.29013 214.564 9.28906 214.622 9.28799C214.683 9.28692 214.741 9.27944 214.799 9.28051C214.853 9.28158 214.911 9.28799 214.954 9.29762C215.153 9.33829 215.363 9.37576 215.54 9.42392C215.713 9.47101 215.876 9.43891 216.049 9.43676C216.743 9.51169 216.743 9.51276 217.209 9.48921C217.325 9.48386 217.444 9.47744 217.563 9.47851C217.614 9.47851 217.661 9.49776 217.711 9.50847C217.856 9.54058 217.993 9.56948 218.196 9.55235C218.369 9.53737 218.553 9.53416 218.73 9.52452C218.969 9.51275 218.969 9.51275 219.373 9.58018C219.475 9.59731 219.583 9.59517 219.713 9.58661C219.825 9.57912 219.941 9.59517 220.02 9.62621C220.053 9.63905 220.042 9.66046 220.053 9.67865C219.695 9.69578 219.334 9.70755 218.987 9.73324C218.763 9.74929 218.662 9.70327 218.513 9.67865C218.463 9.67009 218.409 9.6519 218.362 9.65404C218.008 9.67009 217.654 9.68828 217.299 9.70968C217.256 9.71182 217.202 9.73644 217.198 9.75143C217.191 9.77925 217.281 9.80601 217.411 9.80494C217.585 9.80387 217.755 9.78567 217.91 9.82956C218.04 9.86809 218.203 9.88522 218.394 9.8681C218.51 9.85846 218.633 9.85846 218.748 9.8499C219.055 9.82421 219.334 9.82956 219.565 9.90234C219.742 9.92161 219.915 9.90342 220.085 9.89378C220.212 9.88629 220.335 9.87879 220.425 9.89913C220.616 9.94194 220.804 9.98475 221.068 9.95586C221.354 9.98582 221.57 10.049 221.809 10.1003C221.921 10.125 222.008 10.1389 222.138 10.1228C222.192 10.1164 222.257 10.1164 222.315 10.1132C222.434 10.1078 222.56 10.0918 222.669 10.0982C222.777 10.1057 222.868 10.1367 222.965 10.156C223.012 10.1656 223.066 10.1817 223.113 10.1806C223.294 10.1753 223.471 10.1646 223.648 10.156C223.825 10.1485 224.002 10.141 224.179 10.1335C224.327 10.1614 224.479 10.1892 224.627 10.217C224.866 10.2052 225.104 10.1935 225.339 10.1828C225.603 10.1699 225.603 10.171 225.982 10.2373C226.152 10.2673 226.333 10.248 226.495 10.2341C226.766 10.2117 226.947 10.2523 227.139 10.2951C227.178 10.3037 227.251 10.3091 227.297 10.3048C227.485 10.2898 227.648 10.3016 227.785 10.3412C227.883 10.369 227.98 10.3818 228.1 10.3765C228.515 10.3562 228.931 10.3347 229.346 10.3165C229.397 10.3144 229.455 10.324 229.502 10.3326C229.87 10.3979 229.874 10.4011 230.145 10.384C230.387 10.369 230.611 10.3626 230.802 10.4214C230.842 10.4343 230.904 10.4525 230.947 10.4514C231.243 10.4407 231.543 10.4289 231.836 10.4107C231.97 10.4022 232.063 10.4054 232.168 10.43C232.302 10.461 232.421 10.4985 232.642 10.4846C233.252 10.445 233.256 10.4514 233.979 10.5252C234.029 10.5306 234.098 10.522 234.156 10.5178C234.278 10.5071 234.369 10.522 234.477 10.5467C234.719 10.6023 234.726 10.5991 234.958 10.5873C235.135 10.5777 235.319 10.5756 235.493 10.5595C235.76 10.536 235.937 10.5777 236.136 10.6173C236.295 10.6483 236.479 10.6227 236.649 10.613C236.833 10.6023 236.999 10.6055 237.137 10.6462C237.231 10.674 237.332 10.689 237.451 10.6837C237.866 10.6644 238.282 10.643 238.698 10.6237C238.748 10.6216 238.81 10.6301 238.857 10.6376C239.268 10.704 239.268 10.7072 239.677 10.6826C239.807 10.6751 239.915 10.673 240.013 10.6954C240.107 10.7168 240.208 10.7372 240.306 10.7575C240.483 10.75 240.663 10.7479 240.837 10.735C240.97 10.7254 241.064 10.7297 241.169 10.7522C241.306 10.7811 241.422 10.8314 241.639 10.8067C241.751 10.795 241.881 10.7982 241.993 10.7875C242.127 10.7736 242.217 10.7821 242.322 10.8099C242.452 10.8431 242.585 10.8774 242.795 10.8602C243.026 10.841 243.272 10.8378 243.507 10.8228C243.637 10.8142 243.727 10.8228 243.832 10.8506C243.962 10.8859 244.11 10.9084 244.313 10.8945C244.725 10.8677 244.728 10.8731 245.129 10.9405C245.23 10.9576 245.339 10.9555 245.469 10.9469C245.581 10.9395 245.697 10.9555 245.776 10.9866C245.852 11.0208 245.845 11.0422 245.852 11.0604ZM213.654 1.40741C213.534 1.41276 213.415 1.41918 213.242 1.32607C213.231 1.31001 213.238 1.29075 213.213 1.27684C213.155 1.24794 213.065 1.22761 212.956 1.22439C212.761 1.22011 212.526 1.2565 212.53 1.28432C212.533 1.30787 212.595 1.3282 212.714 1.34747C212.765 1.35496 212.804 1.36781 212.851 1.37637C212.989 1.40098 213.097 1.44916 213.296 1.42454C213.26 1.35818 213.278 1.39136 213.296 1.42454C213.278 1.46521 213.332 1.49411 213.462 1.50588C213.498 1.50909 213.552 1.50695 213.581 1.50053C213.693 1.47698 213.711 1.44488 213.628 1.36032C213.614 1.37424 213.625 1.39885 213.657 1.40527C213.69 1.41169 213.769 1.40635 213.809 1.39885C213.91 1.37852 213.961 1.35176 213.935 1.32928C213.921 1.31751 213.852 1.30252 213.809 1.30252C213.733 1.30252 213.664 1.32607 213.654 1.40741ZM242.871 13.8196C242.607 13.84 242.304 13.8325 242.04 13.8742C241.993 13.8817 241.946 13.901 241.942 13.9159C241.939 13.9256 242.011 13.9395 242.054 13.947C242.152 13.9641 242.26 13.9588 242.387 13.9534C242.578 13.9459 242.69 13.9951 242.838 14.0198C242.885 14.0273 242.947 14.0326 242.997 14.0305C243.29 14.0176 243.579 14.0037 243.872 13.9887C243.922 13.9855 243.977 13.978 244.02 13.9684C244.165 13.9374 244.15 13.917 244.009 13.8935C243.854 13.8678 243.731 13.825 243.572 13.8046C243.344 13.7757 243.113 13.8143 242.871 13.8196ZM222.351 14.6009C222.174 14.6095 222 14.6181 221.823 14.6266C221.765 14.6298 221.704 14.6309 221.65 14.6352C221.538 14.6427 221.455 14.6651 221.4 14.7005C221.484 14.7283 221.585 14.7444 221.697 14.7411C221.874 14.7347 222.047 14.7208 222.224 14.7176C222.416 14.7133 222.528 14.7615 222.676 14.7861C222.723 14.7936 222.781 14.7947 222.835 14.7957C223.102 14.8 223.265 14.7444 223.214 14.6662C223.178 14.6052 223.041 14.5688 222.875 14.5763C222.701 14.5838 222.524 14.5924 222.351 14.6009ZM244.107 12.2377C244.15 12.2195 244.197 12.2067 244.219 12.1906C244.284 12.136 244.258 12.0954 244.139 12.0526C243.995 12.0001 243.818 12.0354 243.655 12.0408C243.615 12.0419 243.572 12.0643 243.55 12.0782C243.536 12.0879 243.536 12.1082 243.558 12.1136C243.735 12.1564 243.922 12.196 244.107 12.2377ZM212.761 9.07608C212.588 9.08464 212.411 9.09106 212.237 9.10283C212.194 9.10604 212.154 9.12638 212.129 9.14029C212.082 9.16598 212.132 9.2013 212.28 9.20451C212.45 9.20879 212.627 9.1906 212.804 9.18203C213.028 9.17133 213.162 9.13173 213.079 9.09748C212.999 9.0643 212.891 9.05788 212.761 9.07608ZM22.5584 6.78886C22.6741 6.78351 22.7933 6.77922 22.9089 6.77173C23.0173 6.76424 23.1005 6.74069 23.1547 6.70537C23.0643 6.67754 22.9631 6.66256 22.8511 6.66577C22.6741 6.67219 22.5006 6.68075 22.3272 6.69146C22.2188 6.69788 22.1141 6.72142 22.0888 6.75781C22.0635 6.78564 22.3055 6.8017 22.5584 6.78886ZM197.48 6.62403C197.527 6.63366 197.574 6.65293 197.621 6.65293C197.737 6.65293 197.856 6.6465 197.964 6.6358C198.011 6.63152 198.047 6.61225 198.069 6.59727C198.084 6.58764 198.08 6.57052 198.058 6.56195C197.954 6.51058 197.534 6.52877 197.466 6.58764C197.459 6.59834 197.477 6.61225 197.48 6.62403ZM186.08 0.763091C186.091 0.780216 186.095 0.797338 186.109 0.814463C186.138 0.846572 186.217 0.870123 186.333 0.886177C186.423 0.85942 186.47 0.829457 186.467 0.797348C186.463 0.780223 186.452 0.763087 186.438 0.745963C186.409 0.713854 186.329 0.690316 186.214 0.674261C186.124 0.699948 186.08 0.729912 186.08 0.763091ZM252.457 14.7872C252.425 14.8011 252.392 14.815 252.356 14.8278C252.453 14.8589 252.544 14.8685 252.613 14.8514C252.656 14.8407 252.681 14.8246 252.714 14.8107C252.616 14.7797 252.529 14.7711 252.457 14.7872ZM250.21 14.9327C250.257 14.9424 250.3 14.9552 250.351 14.9616C250.434 14.9723 250.51 14.9541 250.567 14.9156C250.52 14.906 250.477 14.8931 250.426 14.8867C250.343 14.876 250.267 14.8942 250.21 14.9327ZM251.633 14.7369C251.608 14.7626 251.659 14.784 251.792 14.8022C251.825 14.7882 251.868 14.7754 251.89 14.7604C251.926 14.7358 251.865 14.7133 251.734 14.6962C251.698 14.709 251.666 14.723 251.633 14.7369ZM244.006 13.5831C243.98 13.6088 244.031 13.6302 244.165 13.6484C244.197 13.6345 244.24 13.6216 244.262 13.6066C244.298 13.582 244.237 13.5595 244.107 13.5424C244.071 13.5553 244.038 13.5692 244.006 13.5831ZM233.614 6.00968C233.581 6.02359 233.549 6.03751 233.512 6.05035C233.61 6.08139 233.7 6.09102 233.769 6.07389C233.812 6.06319 233.838 6.04714 233.87 6.03322C233.773 6.00218 233.686 5.99362 233.614 6.00968ZM223.659 1.99179C223.746 1.99928 223.818 1.9843 223.879 1.9447C223.832 1.93507 223.789 1.92222 223.738 1.9158C223.655 1.9051 223.579 1.9233 223.522 1.96183C223.569 1.97253 223.615 1.98215 223.659 1.99179ZM218.373 1.74027C218.34 1.75418 218.308 1.7681 218.271 1.78094C218.369 1.81198 218.459 1.82161 218.528 1.80449C218.571 1.79378 218.597 1.77773 218.629 1.76381C218.532 1.73278 218.445 1.72529 218.373 1.74027ZM182.525 0.76202C182.492 0.775933 182.46 0.789848 182.423 0.802691C182.521 0.83373 182.611 0.843359 182.68 0.826235C182.723 0.815532 182.749 0.799477 182.781 0.785563C182.684 0.754524 182.597 0.747035 182.525 0.76202ZM4.02921 9.46994C3.98224 9.46031 3.93531 9.45068 3.89195 9.43998C3.78716 9.46888 3.75465 9.49563 3.81246 9.51597C3.8486 9.52881 3.90275 9.5363 3.94973 9.54594C4.05813 9.51704 4.08341 9.49134 4.02921 9.46994Z" fill="#FFE492"/>
<path d="M25.3903 5.68989C24.9748 5.71023 24.5629 5.73591 24.1474 5.74875C23.927 5.75517 23.8475 5.8012 23.7572 5.84401C23.6849 5.87826 23.6018 5.88896 23.4681 5.89538C22.3407 5.94783 21.217 6.00348 20.0932 6.05807C19.9523 6.04416 19.8836 6.02168 19.9162 5.99493C19.9342 5.97887 19.9776 5.95639 20.021 5.95425C20.7906 5.91465 21.5566 5.87398 22.3299 5.84294C22.5503 5.83438 22.6117 5.78728 22.7237 5.74875C22.7599 5.73591 22.7888 5.71664 22.8358 5.70915C22.8827 5.70059 22.9514 5.70166 23.0128 5.69952C24.2558 5.63852 25.4988 5.57858 26.7418 5.51758C26.8827 5.53149 26.9514 5.55396 26.9189 5.58072C26.9008 5.59678 26.8574 5.61925 26.8141 5.62139C26.3371 5.64387 25.8637 5.66635 25.3903 5.68989Z" fill="#FFE492"/>
<path d="M252.296 11.3902C252.108 11.403 251.869 11.4212 251.674 11.3591C251.58 11.3292 251.479 11.3196 251.356 11.326C251.179 11.3367 250.998 11.3452 250.818 11.3517C250.771 11.3527 250.709 11.341 250.662 11.3313C250.561 11.3121 250.475 11.28 250.366 11.2714C250.258 11.2628 250.128 11.2864 250.016 11.281C249.867 11.2735 249.806 11.2446 249.846 11.2179C249.867 11.2029 249.911 11.1815 249.958 11.1783C250.626 11.1387 250.63 11.1387 250.818 11.1772C250.962 11.2072 251.096 11.2403 251.302 11.2221C251.475 11.2072 251.66 11.204 251.837 11.1943C252.082 11.1815 252.082 11.1825 252.48 11.25C252.581 11.2671 252.689 11.266 252.82 11.2564C252.932 11.2489 253.04 11.266 253.13 11.2949C253.073 11.3313 252.989 11.3549 252.877 11.3613C252.697 11.372 252.52 11.3795 252.296 11.3902Z" fill="#FFE492"/>
<path d="M246.402 11.0595C246.858 11.037 247.317 11.0178 247.772 10.9921C247.96 10.9814 248.108 10.9931 248.238 11.0295C248.379 11.0691 248.538 11.0659 248.711 11.0584C248.82 11.0542 248.925 11.0713 248.997 11.1012C249.026 11.113 249.018 11.1344 249.029 11.1515C248.632 11.1708 248.231 11.1911 247.83 11.2083C247.783 11.2104 247.725 11.1997 247.681 11.1911C247.584 11.173 247.501 11.1408 247.396 11.1344C247.172 11.1194 246.948 11.1483 246.72 11.1537C246.612 11.1558 246.507 11.1398 246.435 11.1109C246.406 11.097 246.413 11.0766 246.402 11.0595Z" fill="#FFE492"/>
<path d="M80.9205 1.85862C81.3939 1.83507 81.8672 1.81261 82.3405 1.78906C82.4815 1.80405 82.5465 1.82545 82.5176 1.85221C82.4995 1.86826 82.4561 1.89074 82.4128 1.89288C81.4661 1.94104 80.5194 1.98706 79.5764 2.03308C79.4354 2.0181 79.3704 1.99669 79.3993 1.96994C79.4174 1.95388 79.4608 1.9314 79.5041 1.92926C79.9739 1.90465 80.4472 1.88217 80.9205 1.85862Z" fill="#FFE492"/>
<path d="M8.11038 7.80548C7.8972 7.80762 7.67321 7.84722 7.43473 7.81726C7.38776 7.8119 7.3227 7.79477 7.32632 7.78514C7.33354 7.76909 7.37691 7.74875 7.42388 7.74233C7.62984 7.71557 7.88642 7.71236 7.9912 7.63744C8.04179 7.59891 8.13574 7.58607 8.2622 7.57858C8.3959 7.57002 8.48981 7.57322 8.5946 7.5957C8.73191 7.6246 8.84755 7.67811 9.06435 7.65028C9.07519 7.66741 9.10042 7.68667 9.08958 7.70273C9.07874 7.71878 9.03185 7.73377 8.98849 7.74554C8.94874 7.75624 8.89449 7.76587 8.8439 7.76908C8.60542 7.78193 8.36693 7.79264 8.11038 7.80548Z" fill="#FFE492"/>
<path d="M196.623 7.5899C196.8 7.58134 196.985 7.57705 197.158 7.56207C197.295 7.5503 197.382 7.55778 197.491 7.58347C197.675 7.62842 197.686 7.62415 198.137 7.63057C198.188 7.63164 198.249 7.64769 198.278 7.6616C198.296 7.66909 198.271 7.68944 198.249 7.70014C198.217 7.71405 198.17 7.73224 198.127 7.73224C197.841 7.73545 197.552 7.79861 197.274 7.72583C197.133 7.68944 196.977 7.6723 196.786 7.68836C196.67 7.69799 196.548 7.70227 196.428 7.70656C196.313 7.71084 196.193 7.69906 196.121 7.66696C196.016 7.61986 196.078 7.60167 196.266 7.60488C196.385 7.60702 196.504 7.59525 196.623 7.5899Z" fill="#FFE492"/>
<path d="M261.802 14.9699C262.029 14.9592 262.257 14.9463 262.488 14.9378C262.535 14.9356 262.593 14.9474 262.637 14.9549C262.81 14.987 262.785 15.0416 262.792 15.0897C262.795 15.14 262.394 15.1807 262.225 15.1465C262.037 15.1079 261.867 15.0641 261.607 15.0876C261.506 15.0962 261.386 15.0769 261.321 15.0459C261.224 15.0009 261.278 14.9827 261.462 14.9859C261.571 14.9881 261.686 14.9763 261.802 14.9699Z" fill="#FFE492"/>
<path d="M146.554 0.400194C146.789 0.388421 147.023 0.370235 147.258 0.369164C147.396 0.368094 147.464 0.403407 147.432 0.429094C147.414 0.445149 147.37 0.467625 147.327 0.469766C146.857 0.495453 146.387 0.516862 145.918 0.540409C145.78 0.525425 145.712 0.502952 145.744 0.477265C145.762 0.461211 145.806 0.439804 145.849 0.436593C146.084 0.421609 146.319 0.411967 146.554 0.400194Z" fill="#FFE492"/>
<path d="M257.233 11.4854C257.461 11.4747 257.692 11.4586 257.919 11.4533C258.039 11.4511 258.133 11.4757 258.147 11.5036C258.154 11.5164 258.096 11.5389 258.049 11.5442C257.724 11.5806 257.374 11.5849 257.034 11.6031C256.926 11.6085 256.81 11.5913 256.745 11.5614C256.647 11.5153 256.702 11.4982 256.886 11.5014C257.002 11.5025 257.117 11.4907 257.233 11.4854Z" fill="#FFE492"/>
<path d="M202.256 7.73454C202.372 7.72919 202.491 7.71527 202.603 7.71956C202.722 7.72491 202.798 7.75595 202.834 7.78698C202.874 7.8223 202.87 7.85549 202.834 7.88546C202.776 7.93683 202.718 7.93469 202.585 7.90044C202.379 7.84693 202.364 7.85334 201.956 7.85549C201.909 7.85549 201.851 7.83943 201.815 7.82551C201.761 7.80411 201.79 7.77094 201.916 7.75167C202.01 7.73776 202.14 7.73989 202.256 7.73454Z" fill="#FFE492"/>
<path d="M249.044 11.1338C249.214 11.1253 249.383 11.1114 249.553 11.1114C249.672 11.1103 249.766 11.1349 249.777 11.1617C249.781 11.1745 249.727 11.1959 249.683 11.2023C249.477 11.2312 249.246 11.2334 249.022 11.243C248.917 11.2473 248.802 11.2302 248.737 11.2002C248.639 11.1552 248.697 11.1349 248.874 11.1413C248.928 11.1435 248.986 11.137 249.044 11.1338Z" fill="#FFE492"/>
<path d="M221.713 9.81909C221.46 9.83193 221.221 9.81588 221.239 9.78806C221.265 9.75167 221.369 9.72811 221.478 9.72168C221.651 9.71098 221.825 9.70242 222.002 9.696C222.114 9.69172 222.215 9.70777 222.305 9.7356C222.251 9.76985 222.168 9.79446 222.059 9.80196C221.947 9.80945 221.828 9.81373 221.713 9.81909Z" fill="#FFE492"/>
<path d="M220.45 9.68462C220.62 9.67605 220.79 9.66214 220.959 9.66214C221.079 9.66107 221.173 9.68569 221.184 9.71244C221.187 9.72529 221.133 9.74669 221.09 9.75312C220.884 9.78201 220.652 9.78415 220.428 9.79379C220.324 9.79807 220.208 9.78094 220.143 9.75097C220.045 9.70602 220.103 9.68569 220.28 9.69211C220.334 9.69426 220.392 9.68783 220.45 9.68462Z" fill="#FFE492"/>
<path d="M199.852 7.72867C200.022 7.72011 200.192 7.70618 200.362 7.70511C200.481 7.70404 200.575 7.72867 200.586 7.75543C200.589 7.76827 200.535 7.78861 200.492 7.7961C200.286 7.825 200.055 7.82714 199.831 7.83677C199.726 7.84105 199.61 7.82392 199.545 7.79395C199.448 7.749 199.505 7.72866 199.682 7.73508C199.737 7.73722 199.795 7.73081 199.852 7.72867Z" fill="#FFE492"/>
<path d="M198.815 7.6643C198.995 7.65574 199.053 7.65039 199.111 7.65039C199.22 7.65039 199.332 7.66324 199.397 7.69428C199.494 7.73923 199.436 7.75208 199.259 7.75422C199.032 7.75636 198.808 7.77884 198.58 7.78312C198.461 7.78526 198.367 7.75956 198.36 7.73281C198.356 7.71996 198.41 7.69749 198.453 7.69321C198.605 7.67715 198.771 7.66752 198.815 7.6643Z" fill="#FFE492"/>
<path d="M219.475 1.36723C219.359 1.37258 219.236 1.38756 219.128 1.38221C218.983 1.37472 218.926 1.34583 218.962 1.31907C218.983 1.30408 219.023 1.28268 219.066 1.27947C219.298 1.26448 219.533 1.25484 219.764 1.24414C219.901 1.2602 219.963 1.28267 219.926 1.30943C219.905 1.32441 219.865 1.34475 219.822 1.34903C219.71 1.35973 219.59 1.36188 219.475 1.36723Z" fill="#FFE492"/>
<path d="M78.6617 1.98443C78.7737 1.98336 78.8748 1.99728 78.9615 2.02403C78.9073 2.05828 78.8279 2.08076 78.7195 2.09039C78.6653 2.09467 78.6038 2.09788 78.546 2.09895C78.434 2.10109 78.3328 2.08611 78.2461 2.05935C78.3003 2.0251 78.3834 2.00262 78.4882 1.99299C78.5424 1.98871 78.6039 1.98764 78.6617 1.98443Z" fill="#FFE492"/>
<path d="M255.555 11.4794C255.551 11.4483 255.771 11.413 255.97 11.4141C256.075 11.4152 256.183 11.4301 256.245 11.459C256.339 11.5029 256.285 11.52 256.107 11.5168C255.999 11.5147 255.883 11.5329 255.775 11.5297C255.652 11.5286 255.58 11.5051 255.555 11.4794Z" fill="#FFE492"/>
<path d="M202.946 7.86562C202.942 7.85384 202.924 7.83993 202.935 7.82923C203.004 7.77036 203.419 7.75217 203.528 7.80354C203.546 7.81318 203.553 7.82923 203.539 7.83886C203.517 7.85384 203.477 7.87311 203.434 7.87739C203.322 7.88809 203.206 7.89345 203.09 7.89452C203.04 7.89452 202.993 7.87632 202.946 7.86562Z" fill="#FFE492"/>
<path d="M10.0098 7.63617C9.58343 7.65864 9.57621 7.6565 9.65209 7.60298C9.72074 7.55482 9.84723 7.52592 10.0315 7.52592C10.0857 7.52592 10.1435 7.52379 10.1905 7.52807C10.2411 7.53342 10.3134 7.54411 10.3242 7.55695C10.3459 7.58157 10.2844 7.60833 10.176 7.62653C10.129 7.63509 10.0676 7.63296 10.0098 7.63617Z" fill="#FFE492"/>
<path d="M84.307 1.83338C84.1805 1.85157 84.0721 1.84515 83.9926 1.81091C83.9131 1.77666 84.0396 1.73598 84.26 1.72635C84.3178 1.72421 84.3793 1.71565 84.4335 1.71993C84.4877 1.72314 84.5419 1.73598 84.5744 1.74882C84.6322 1.77023 84.5961 1.79913 84.4805 1.82375C84.4335 1.83338 84.3648 1.83124 84.307 1.83338Z" fill="#FFE492"/>
<path d="M255.562 11.4C255.595 11.3861 255.628 11.3722 255.664 11.3594C255.799 11.3776 255.857 11.399 255.82 11.4236C255.799 11.4386 255.755 11.4514 255.722 11.4653C255.588 11.4471 255.533 11.4247 255.562 11.4Z" fill="#FFE492"/>
<path d="M15.332 19.8187C15.332 19.8058 15.3826 19.7855 15.4224 19.7812C15.4982 19.7737 15.5922 19.7887 15.6572 19.8187C15.7475 19.8615 15.6934 19.884 15.5272 19.8722C15.4115 19.8636 15.332 19.8422 15.332 19.8187Z" fill="#FFE492"/>
<path d="M204.299 6.8671C204.346 6.87673 204.393 6.88637 204.436 6.89707C204.375 6.93667 204.299 6.95379 204.219 6.94308C204.169 6.93666 204.125 6.92382 204.078 6.91418C204.14 6.87458 204.212 6.85961 204.299 6.8671Z" fill="#FFE492"/>
<path d="M203.029 6.82043C203.101 6.80437 203.188 6.81294 203.289 6.84398C203.257 6.8579 203.228 6.87395 203.188 6.88465C203.12 6.90178 203.029 6.89321 202.932 6.8611C202.961 6.84825 202.993 6.83434 203.029 6.82043Z" fill="#FFE492"/>
<path d="M202.009 6.86747C202.056 6.87711 202.103 6.88674 202.147 6.89745C202.085 6.93705 202.013 6.95416 201.93 6.94346C201.879 6.93704 201.836 6.92419 201.789 6.91456C201.85 6.87496 201.923 6.85891 202.009 6.86747Z" fill="#FFE492"/>
<path d="M202.036 6.81122C202.091 6.83263 202.062 6.85831 201.956 6.88721C201.909 6.87758 201.855 6.87009 201.818 6.85725C201.76 6.83691 201.789 6.81015 201.898 6.78125C201.942 6.79195 201.989 6.80159 202.036 6.81122Z" fill="#FFE492"/>
</svg>
